<?xml version="1.0" encoding="utf-8" standalone="no"?>
<!DOCTYPE svg PUBLIC "-//W3C//DTD SVG 1.1//EN"
  "http://www.w3.org/Graphics/SVG/1.1/DTD/svg11.dtd">
<!-- Created with matplotlib (http://matplotlib.org/) -->
<svg height="345.6pt" version="1.1" viewBox="0 0 460.8 345.6" width="460.8pt" xmlns="http://www.w3.org/2000/svg" xmlns:xlink="http://www.w3.org/1999/xlink">
 <defs>
  <style type="text/css">
*{stroke-linecap:butt;stroke-linejoin:round;}
  </style>
 </defs>
 <g id="figure_1">
  <g id="patch_1">
   <path d="M 0 345.6 
L 460.8 345.6 
L 460.8 0 
L 0 0 
z
" style="fill:#ffffff;"/>
  </g>
  <g id="axes_1">
   <g id="patch_2">
    <path d="M 57.6 307.584 
L 414.72 307.584 
L 414.72 41.472 
L 57.6 41.472 
z
" style="fill:#ffffff;"/>
   </g>
   <g id="patch_3">
    <path clip-path="url(#p35df622810)" d="M 75.93216 182.483649 
L 122.59584 182.483649 
L 122.59584 164.894751 
L 75.93216 164.894751 
L 75.93216 182.483649 
z
" style="fill:#79b2ec;stroke:#1f1f1f;stroke-linejoin:miter;stroke-width:1.5;"/>
   </g>
   <g id="patch_4">
    <path clip-path="url(#p35df622810)" d="M 123.54816 212.507143 
L 170.21184 212.507143 
L 170.21184 175.379485 
L 123.54816 175.379485 
L 123.54816 212.507143 
z
" style="fill:#0d3359;stroke:#1f1f1f;stroke-linejoin:miter;stroke-width:1.5;"/>
   </g>
   <g id="patch_5">
    <path clip-path="url(#p35df622810)" d="M 171.16416 184.60616 
L 217.82784 184.60616 
L 217.82784 166.140078 
L 171.16416 166.140078 
L 171.16416 184.60616 
z
" style="fill:#2080df;stroke:#1f1f1f;stroke-linejoin:miter;stroke-width:1.5;"/>
   </g>
   <g id="patch_6">
    <path clip-path="url(#p35df622810)" d="M 254.49216 175.322976 
L 301.15584 175.322976 
L 301.15584 156.35633 
L 254.49216 156.35633 
L 254.49216 175.322976 
z
" style="fill:#79b2ec;stroke:#1f1f1f;stroke-linejoin:miter;stroke-width:1.5;"/>
   </g>
   <g id="patch_7">
    <path clip-path="url(#p35df622810)" d="M 302.10816 193.031554 
L 348.77184 193.031554 
L 348.77184 158.693371 
L 302.10816 158.693371 
L 302.10816 193.031554 
z
" style="fill:#0d3359;stroke:#1f1f1f;stroke-linejoin:miter;stroke-width:1.5;"/>
   </g>
   <g id="patch_8">
    <path clip-path="url(#p35df622810)" d="M 349.72416 171.048208 
L 396.38784 171.048208 
L 396.38784 160.482213 
L 349.72416 160.482213 
L 349.72416 171.048208 
z
" style="fill:#2080df;stroke:#1f1f1f;stroke-linejoin:miter;stroke-width:1.5;"/>
   </g>
   <g id="patch_9">
    <path clip-path="url(#p35df622810)" d="M 146.88 192.695236 
L 146.88 192.695236 
L 146.88 192.695236 
L 146.88 192.695236 
z
" style="fill:#79b2ec;stroke:#1f1f1f;stroke-linejoin:miter;stroke-width:0.75;"/>
   </g>
   <g id="patch_10">
    <path clip-path="url(#p35df622810)" d="M 146.88 192.695236 
L 146.88 192.695236 
L 146.88 192.695236 
L 146.88 192.695236 
z
" style="fill:#0d3359;stroke:#1f1f1f;stroke-linejoin:miter;stroke-width:0.75;"/>
   </g>
   <g id="patch_11">
    <path clip-path="url(#p35df622810)" d="M 146.88 192.695236 
L 146.88 192.695236 
L 146.88 192.695236 
L 146.88 192.695236 
z
" style="fill:#2080df;stroke:#1f1f1f;stroke-linejoin:miter;stroke-width:0.75;"/>
   </g>
   <g id="matplotlib.axis_1">
    <g id="xtick_1">
     <g id="line2d_1">
      <defs>
       <path d="M 0 4 
L 0 -4 
" id="mb68b7fbe8d" style="stroke:#000000;stroke-width:3;"/>
      </defs>
      <g>
       <use style="stroke:#000000;stroke-width:3;" x="146.88" xlink:href="#mb68b7fbe8d" y="307.584"/>
      </g>
     </g>
     <g id="text_1">
      <!-- arhgdia -->
      <defs>
       <path d="M 34.28125 27.484375 
Q 23.390625 27.484375 19.1875 25 
Q 14.984375 22.515625 14.984375 16.5 
Q 14.984375 11.71875 18.140625 8.90625 
Q 21.296875 6.109375 26.703125 6.109375 
Q 34.1875 6.109375 38.703125 11.40625 
Q 43.21875 16.703125 43.21875 25.484375 
L 43.21875 27.484375 
z
M 52.203125 31.203125 
L 52.203125 0 
L 43.21875 0 
L 43.21875 8.296875 
Q 40.140625 3.328125 35.546875 0.953125 
Q 30.953125 -1.421875 24.3125 -1.421875 
Q 15.921875 -1.421875 10.953125 3.296875 
Q 6 8.015625 6 15.921875 
Q 6 25.140625 12.171875 29.828125 
Q 18.359375 34.515625 30.609375 34.515625 
L 43.21875 34.515625 
L 43.21875 35.40625 
Q 43.21875 41.609375 39.140625 45 
Q 35.0625 48.390625 27.6875 48.390625 
Q 23 48.390625 18.546875 47.265625 
Q 14.109375 46.140625 10.015625 43.890625 
L 10.015625 52.203125 
Q 14.9375 54.109375 19.578125 55.046875 
Q 24.21875 56 28.609375 56 
Q 40.484375 56 46.34375 49.84375 
Q 52.203125 43.703125 52.203125 31.203125 
z
" id="DejaVuSans-61"/>
       <path d="M 41.109375 46.296875 
Q 39.59375 47.171875 37.8125 47.578125 
Q 36.03125 48 33.890625 48 
Q 26.265625 48 22.1875 43.046875 
Q 18.109375 38.09375 18.109375 28.8125 
L 18.109375 0 
L 9.078125 0 
L 9.078125 54.6875 
L 18.109375 54.6875 
L 18.109375 46.1875 
Q 20.953125 51.171875 25.484375 53.578125 
Q 30.03125 56 36.53125 56 
Q 37.453125 56 38.578125 55.875 
Q 39.703125 55.765625 41.0625 55.515625 
z
" id="DejaVuSans-72"/>
       <path d="M 54.890625 33.015625 
L 54.890625 0 
L 45.90625 0 
L 45.90625 32.71875 
Q 45.90625 40.484375 42.875 44.328125 
Q 39.84375 48.1875 33.796875 48.1875 
Q 26.515625 48.1875 22.3125 43.546875 
Q 18.109375 38.921875 18.109375 30.90625 
L 18.109375 0 
L 9.078125 0 
L 9.078125 75.984375 
L 18.109375 75.984375 
L 18.109375 46.1875 
Q 21.34375 51.125 25.703125 53.5625 
Q 30.078125 56 35.796875 56 
Q 45.21875 56 50.046875 50.171875 
Q 54.890625 44.34375 54.890625 33.015625 
z
" id="DejaVuSans-68"/>
       <path d="M 45.40625 27.984375 
Q 45.40625 37.75 41.375 43.109375 
Q 37.359375 48.484375 30.078125 48.484375 
Q 22.859375 48.484375 18.828125 43.109375 
Q 14.796875 37.75 14.796875 27.984375 
Q 14.796875 18.265625 18.828125 12.890625 
Q 22.859375 7.515625 30.078125 7.515625 
Q 37.359375 7.515625 41.375 12.890625 
Q 45.40625 18.265625 45.40625 27.984375 
z
M 54.390625 6.78125 
Q 54.390625 -7.171875 48.1875 -13.984375 
Q 42 -20.796875 29.203125 -20.796875 
Q 24.46875 -20.796875 20.265625 -20.09375 
Q 16.0625 -19.390625 12.109375 -17.921875 
L 12.109375 -9.1875 
Q 16.0625 -11.328125 19.921875 -12.34375 
Q 23.78125 -13.375 27.78125 -13.375 
Q 36.625 -13.375 41.015625 -8.765625 
Q 45.40625 -4.15625 45.40625 5.171875 
L 45.40625 9.625 
Q 42.625 4.78125 38.28125 2.390625 
Q 33.9375 0 27.875 0 
Q 17.828125 0 11.671875 7.65625 
Q 5.515625 15.328125 5.515625 27.984375 
Q 5.515625 40.671875 11.671875 48.328125 
Q 17.828125 56 27.875 56 
Q 33.9375 56 38.28125 53.609375 
Q 42.625 51.21875 45.40625 46.390625 
L 45.40625 54.6875 
L 54.390625 54.6875 
z
" id="DejaVuSans-67"/>
       <path d="M 45.40625 46.390625 
L 45.40625 75.984375 
L 54.390625 75.984375 
L 54.390625 0 
L 45.40625 0 
L 45.40625 8.203125 
Q 42.578125 3.328125 38.25 0.953125 
Q 33.9375 -1.421875 27.875 -1.421875 
Q 17.96875 -1.421875 11.734375 6.484375 
Q 5.515625 14.40625 5.515625 27.296875 
Q 5.515625 40.1875 11.734375 48.09375 
Q 17.96875 56 27.875 56 
Q 33.9375 56 38.25 53.625 
Q 42.578125 51.265625 45.40625 46.390625 
z
M 14.796875 27.296875 
Q 14.796875 17.390625 18.875 11.75 
Q 22.953125 6.109375 30.078125 6.109375 
Q 37.203125 6.109375 41.296875 11.75 
Q 45.40625 17.390625 45.40625 27.296875 
Q 45.40625 37.203125 41.296875 42.84375 
Q 37.203125 48.484375 30.078125 48.484375 
Q 22.953125 48.484375 18.875 42.84375 
Q 14.796875 37.203125 14.796875 27.296875 
z
" id="DejaVuSans-64"/>
       <path d="M 9.421875 54.6875 
L 18.40625 54.6875 
L 18.40625 0 
L 9.421875 0 
z
M 9.421875 75.984375 
L 18.40625 75.984375 
L 18.40625 64.59375 
L 9.421875 64.59375 
z
" id="DejaVuSans-69"/>
      </defs>
      <g transform="translate(127.790937 322.682437)scale(0.1 -0.1)">
       <use xlink:href="#DejaVuSans-61"/>
       <use x="61.279297" xlink:href="#DejaVuSans-72"/>
       <use x="102.376953" xlink:href="#DejaVuSans-68"/>
       <use x="165.755859" xlink:href="#DejaVuSans-67"/>
       <use x="229.232422" xlink:href="#DejaVuSans-64"/>
       <use x="292.708984" xlink:href="#DejaVuSans-69"/>
       <use x="320.492188" xlink:href="#DejaVuSans-61"/>
      </g>
     </g>
    </g>
    <g id="xtick_2">
     <g id="line2d_2">
      <g>
       <use style="stroke:#000000;stroke-width:3;" x="325.44" xlink:href="#mb68b7fbe8d" y="307.584"/>
      </g>
     </g>
     <g id="text_2">
      <!-- arhgdia_nocodazole -->
      <defs>
       <path d="M 50.984375 -16.609375 
L 50.984375 -23.578125 
L -0.984375 -23.578125 
L -0.984375 -16.609375 
z
" id="DejaVuSans-5f"/>
       <path d="M 54.890625 33.015625 
L 54.890625 0 
L 45.90625 0 
L 45.90625 32.71875 
Q 45.90625 40.484375 42.875 44.328125 
Q 39.84375 48.1875 33.796875 48.1875 
Q 26.515625 48.1875 22.3125 43.546875 
Q 18.109375 38.921875 18.109375 30.90625 
L 18.109375 0 
L 9.078125 0 
L 9.078125 54.6875 
L 18.109375 54.6875 
L 18.109375 46.1875 
Q 21.34375 51.125 25.703125 53.5625 
Q 30.078125 56 35.796875 56 
Q 45.21875 56 50.046875 50.171875 
Q 54.890625 44.34375 54.890625 33.015625 
z
" id="DejaVuSans-6e"/>
       <path d="M 30.609375 48.390625 
Q 23.390625 48.390625 19.1875 42.75 
Q 14.984375 37.109375 14.984375 27.296875 
Q 14.984375 17.484375 19.15625 11.84375 
Q 23.34375 6.203125 30.609375 6.203125 
Q 37.796875 6.203125 41.984375 11.859375 
Q 46.1875 17.53125 46.1875 27.296875 
Q 46.1875 37.015625 41.984375 42.703125 
Q 37.796875 48.390625 30.609375 48.390625 
z
M 30.609375 56 
Q 42.328125 56 49.015625 48.375 
Q 55.71875 40.765625 55.71875 27.296875 
Q 55.71875 13.875 49.015625 6.21875 
Q 42.328125 -1.421875 30.609375 -1.421875 
Q 18.84375 -1.421875 12.171875 6.21875 
Q 5.515625 13.875 5.515625 27.296875 
Q 5.515625 40.765625 12.171875 48.375 
Q 18.84375 56 30.609375 56 
z
" id="DejaVuSans-6f"/>
       <path d="M 48.78125 52.59375 
L 48.78125 44.1875 
Q 44.96875 46.296875 41.140625 47.34375 
Q 37.3125 48.390625 33.40625 48.390625 
Q 24.65625 48.390625 19.8125 42.84375 
Q 14.984375 37.3125 14.984375 27.296875 
Q 14.984375 17.28125 19.8125 11.734375 
Q 24.65625 6.203125 33.40625 6.203125 
Q 37.3125 6.203125 41.140625 7.25 
Q 44.96875 8.296875 48.78125 10.40625 
L 48.78125 2.09375 
Q 45.015625 0.34375 40.984375 -0.53125 
Q 36.96875 -1.421875 32.421875 -1.421875 
Q 20.0625 -1.421875 12.78125 6.34375 
Q 5.515625 14.109375 5.515625 27.296875 
Q 5.515625 40.671875 12.859375 48.328125 
Q 20.21875 56 33.015625 56 
Q 37.15625 56 41.109375 55.140625 
Q 45.0625 54.296875 48.78125 52.59375 
z
" id="DejaVuSans-63"/>
       <path d="M 5.515625 54.6875 
L 48.1875 54.6875 
L 48.1875 46.484375 
L 14.40625 7.171875 
L 48.1875 7.171875 
L 48.1875 0 
L 4.296875 0 
L 4.296875 8.203125 
L 38.09375 47.515625 
L 5.515625 47.515625 
z
" id="DejaVuSans-7a"/>
       <path d="M 9.421875 75.984375 
L 18.40625 75.984375 
L 18.40625 0 
L 9.421875 0 
z
" id="DejaVuSans-6c"/>
       <path d="M 56.203125 29.59375 
L 56.203125 25.203125 
L 14.890625 25.203125 
Q 15.484375 15.921875 20.484375 11.0625 
Q 25.484375 6.203125 34.421875 6.203125 
Q 39.59375 6.203125 44.453125 7.46875 
Q 49.3125 8.734375 54.109375 11.28125 
L 54.109375 2.78125 
Q 49.265625 0.734375 44.1875 -0.34375 
Q 39.109375 -1.421875 33.890625 -1.421875 
Q 20.796875 -1.421875 13.15625 6.1875 
Q 5.515625 13.8125 5.515625 26.8125 
Q 5.515625 40.234375 12.765625 48.109375 
Q 20.015625 56 32.328125 56 
Q 43.359375 56 49.78125 48.890625 
Q 56.203125 41.796875 56.203125 29.59375 
z
M 47.21875 32.234375 
Q 47.125 39.59375 43.09375 43.984375 
Q 39.0625 48.390625 32.421875 48.390625 
Q 24.90625 48.390625 20.390625 44.140625 
Q 15.875 39.890625 15.1875 32.171875 
z
" id="DejaVuSans-65"/>
      </defs>
      <g transform="translate(275.426719 322.682437)scale(0.1 -0.1)">
       <use xlink:href="#DejaVuSans-61"/>
       <use x="61.279297" xlink:href="#DejaVuSans-72"/>
       <use x="102.376953" xlink:href="#DejaVuSans-68"/>
       <use x="165.755859" xlink:href="#DejaVuSans-67"/>
       <use x="229.232422" xlink:href="#DejaVuSans-64"/>
       <use x="292.708984" xlink:href="#DejaVuSans-69"/>
       <use x="320.492188" xlink:href="#DejaVuSans-61"/>
       <use x="381.771484" xlink:href="#DejaVuSans-5f"/>
       <use x="431.771484" xlink:href="#DejaVuSans-6e"/>
       <use x="495.150391" xlink:href="#DejaVuSans-6f"/>
       <use x="556.332031" xlink:href="#DejaVuSans-63"/>
       <use x="611.3125" xlink:href="#DejaVuSans-6f"/>
       <use x="672.494141" xlink:href="#DejaVuSans-64"/>
       <use x="735.970703" xlink:href="#DejaVuSans-61"/>
       <use x="797.25" xlink:href="#DejaVuSans-7a"/>
       <use x="849.740234" xlink:href="#DejaVuSans-6f"/>
       <use x="910.921875" xlink:href="#DejaVuSans-6c"/>
       <use x="938.705078" xlink:href="#DejaVuSans-65"/>
      </g>
     </g>
    </g>
   </g>
   <g id="matplotlib.axis_2">
    <g id="ytick_1">
     <g id="line2d_3">
      <path clip-path="url(#p35df622810)" d="M 57.6 303.835399 
L 414.72 303.835399 
" style="fill:none;stroke:#000000;stroke-linecap:square;stroke-width:0.25;"/>
     </g>
     <g id="line2d_4">
      <defs>
       <path d="M 4 0 
L -4 -0 
" id="m893cf58dd4" style="stroke:#000000;stroke-width:3;"/>
      </defs>
      <g>
       <use style="stroke:#000000;stroke-width:3;" x="57.6" xlink:href="#m893cf58dd4" y="303.835399"/>
      </g>
     </g>
     <g id="text_3">
      <!-- −3 -->
      <defs>
       <path d="M 10.59375 35.5 
L 73.1875 35.5 
L 73.1875 27.203125 
L 10.59375 27.203125 
z
" id="DejaVuSans-2212"/>
       <path d="M 40.578125 39.3125 
Q 47.65625 37.796875 51.625 33 
Q 55.609375 28.21875 55.609375 21.1875 
Q 55.609375 10.40625 48.1875 4.484375 
Q 40.765625 -1.421875 27.09375 -1.421875 
Q 22.515625 -1.421875 17.65625 -0.515625 
Q 12.796875 0.390625 7.625 2.203125 
L 7.625 11.71875 
Q 11.71875 9.328125 16.59375 8.109375 
Q 21.484375 6.890625 26.8125 6.890625 
Q 36.078125 6.890625 40.9375 10.546875 
Q 45.796875 14.203125 45.796875 21.1875 
Q 45.796875 27.640625 41.28125 31.265625 
Q 36.765625 34.90625 28.71875 34.90625 
L 20.21875 34.90625 
L 20.21875 43.015625 
L 29.109375 43.015625 
Q 36.375 43.015625 40.234375 45.921875 
Q 44.09375 48.828125 44.09375 54.296875 
Q 44.09375 59.90625 40.109375 62.90625 
Q 36.140625 65.921875 28.71875 65.921875 
Q 24.65625 65.921875 20.015625 65.03125 
Q 15.375 64.15625 9.8125 62.3125 
L 9.8125 71.09375 
Q 15.4375 72.65625 20.34375 73.4375 
Q 25.25 74.21875 29.59375 74.21875 
Q 40.828125 74.21875 47.359375 69.109375 
Q 53.90625 64.015625 53.90625 55.328125 
Q 53.90625 49.265625 50.4375 45.09375 
Q 46.96875 40.921875 40.578125 39.3125 
z
" id="DejaVuSans-33"/>
      </defs>
      <g transform="translate(13.244531 313.333446)scale(0.25 -0.25)">
       <use xlink:href="#DejaVuSans-2212"/>
       <use x="83.789062" xlink:href="#DejaVuSans-33"/>
      </g>
     </g>
    </g>
    <g id="ytick_2">
     <g id="line2d_5">
      <path clip-path="url(#p35df622810)" d="M 57.6 266.788678 
L 414.72 266.788678 
" style="fill:none;stroke:#000000;stroke-linecap:square;stroke-width:0.25;"/>
     </g>
     <g id="line2d_6">
      <g>
       <use style="stroke:#000000;stroke-width:3;" x="57.6" xlink:href="#m893cf58dd4" y="266.788678"/>
      </g>
     </g>
     <g id="text_4">
      <!-- −2 -->
      <defs>
       <path d="M 19.1875 8.296875 
L 53.609375 8.296875 
L 53.609375 0 
L 7.328125 0 
L 7.328125 8.296875 
Q 12.9375 14.109375 22.625 23.890625 
Q 32.328125 33.6875 34.8125 36.53125 
Q 39.546875 41.84375 41.421875 45.53125 
Q 43.3125 49.21875 43.3125 52.78125 
Q 43.3125 58.59375 39.234375 62.25 
Q 35.15625 65.921875 28.609375 65.921875 
Q 23.96875 65.921875 18.8125 64.3125 
Q 13.671875 62.703125 7.8125 59.421875 
L 7.8125 69.390625 
Q 13.765625 71.78125 18.9375 73 
Q 24.125 74.21875 28.421875 74.21875 
Q 39.75 74.21875 46.484375 68.546875 
Q 53.21875 62.890625 53.21875 53.421875 
Q 53.21875 48.921875 51.53125 44.890625 
Q 49.859375 40.875 45.40625 35.40625 
Q 44.1875 33.984375 37.640625 27.21875 
Q 31.109375 20.453125 19.1875 8.296875 
z
" id="DejaVuSans-32"/>
      </defs>
      <g transform="translate(13.244531 276.286725)scale(0.25 -0.25)">
       <use xlink:href="#DejaVuSans-2212"/>
       <use x="83.789062" xlink:href="#DejaVuSans-32"/>
      </g>
     </g>
    </g>
    <g id="ytick_3">
     <g id="line2d_7">
      <path clip-path="url(#p35df622810)" d="M 57.6 229.741957 
L 414.72 229.741957 
" style="fill:none;stroke:#000000;stroke-linecap:square;stroke-width:0.25;"/>
     </g>
     <g id="line2d_8">
      <g>
       <use style="stroke:#000000;stroke-width:3;" x="57.6" xlink:href="#m893cf58dd4" y="229.741957"/>
      </g>
     </g>
     <g id="text_5">
      <!-- −1 -->
      <defs>
       <path d="M 12.40625 8.296875 
L 28.515625 8.296875 
L 28.515625 63.921875 
L 10.984375 60.40625 
L 10.984375 69.390625 
L 28.421875 72.90625 
L 38.28125 72.90625 
L 38.28125 8.296875 
L 54.390625 8.296875 
L 54.390625 0 
L 12.40625 0 
z
" id="DejaVuSans-31"/>
      </defs>
      <g transform="translate(13.244531 239.240004)scale(0.25 -0.25)">
       <use xlink:href="#DejaVuSans-2212"/>
       <use x="83.789062" xlink:href="#DejaVuSans-31"/>
      </g>
     </g>
    </g>
    <g id="ytick_4">
     <g id="line2d_9">
      <path clip-path="url(#p35df622810)" d="M 57.6 192.695236 
L 414.72 192.695236 
" style="fill:none;stroke:#000000;stroke-linecap:square;stroke-width:0.25;"/>
     </g>
     <g id="line2d_10">
      <g>
       <use style="stroke:#000000;stroke-width:3;" x="57.6" xlink:href="#m893cf58dd4" y="192.695236"/>
      </g>
     </g>
     <g id="text_6">
      <!-- 0 -->
      <defs>
       <path d="M 31.78125 66.40625 
Q 24.171875 66.40625 20.328125 58.90625 
Q 16.5 51.421875 16.5 36.375 
Q 16.5 21.390625 20.328125 13.890625 
Q 24.171875 6.390625 31.78125 6.390625 
Q 39.453125 6.390625 43.28125 13.890625 
Q 47.125 21.390625 47.125 36.375 
Q 47.125 51.421875 43.28125 58.90625 
Q 39.453125 66.40625 31.78125 66.40625 
z
M 31.78125 74.21875 
Q 44.046875 74.21875 50.515625 64.515625 
Q 56.984375 54.828125 56.984375 36.375 
Q 56.984375 17.96875 50.515625 8.265625 
Q 44.046875 -1.421875 31.78125 -1.421875 
Q 19.53125 -1.421875 13.0625 8.265625 
Q 6.59375 17.96875 6.59375 36.375 
Q 6.59375 54.828125 13.0625 64.515625 
Q 19.53125 74.21875 31.78125 74.21875 
z
" id="DejaVuSans-30"/>
      </defs>
      <g transform="translate(34.19375 202.193283)scale(0.25 -0.25)">
       <use xlink:href="#DejaVuSans-30"/>
      </g>
     </g>
    </g>
    <g id="ytick_5">
     <g id="line2d_11">
      <path clip-path="url(#p35df622810)" d="M 57.6 155.648515 
L 414.72 155.648515 
" style="fill:none;stroke:#000000;stroke-linecap:square;stroke-width:0.25;"/>
     </g>
     <g id="line2d_12">
      <g>
       <use style="stroke:#000000;stroke-width:3;" x="57.6" xlink:href="#m893cf58dd4" y="155.648515"/>
      </g>
     </g>
     <g id="text_7">
      <!-- 1 -->
      <g transform="translate(34.19375 165.146562)scale(0.25 -0.25)">
       <use xlink:href="#DejaVuSans-31"/>
      </g>
     </g>
    </g>
    <g id="ytick_6">
     <g id="line2d_13">
      <path clip-path="url(#p35df622810)" d="M 57.6 118.601795 
L 414.72 118.601795 
" style="fill:none;stroke:#000000;stroke-linecap:square;stroke-width:0.25;"/>
     </g>
     <g id="line2d_14">
      <g>
       <use style="stroke:#000000;stroke-width:3;" x="57.6" xlink:href="#m893cf58dd4" y="118.601795"/>
      </g>
     </g>
     <g id="text_8">
      <!-- 2 -->
      <g transform="translate(34.19375 128.099841)scale(0.25 -0.25)">
       <use xlink:href="#DejaVuSans-32"/>
      </g>
     </g>
    </g>
    <g id="ytick_7">
     <g id="line2d_15">
      <path clip-path="url(#p35df622810)" d="M 57.6 81.555074 
L 414.72 81.555074 
" style="fill:none;stroke:#000000;stroke-linecap:square;stroke-width:0.25;"/>
     </g>
     <g id="line2d_16">
      <g>
       <use style="stroke:#000000;stroke-width:3;" x="57.6" xlink:href="#m893cf58dd4" y="81.555074"/>
      </g>
     </g>
     <g id="text_9">
      <!-- 3 -->
      <g transform="translate(34.19375 91.053121)scale(0.25 -0.25)">
       <use xlink:href="#DejaVuSans-33"/>
      </g>
     </g>
    </g>
    <g id="ytick_8">
     <g id="line2d_17">
      <path clip-path="url(#p35df622810)" d="M 57.6 44.508353 
L 414.72 44.508353 
" style="fill:none;stroke:#000000;stroke-linecap:square;stroke-width:0.25;"/>
     </g>
     <g id="line2d_18">
      <g>
       <use style="stroke:#000000;stroke-width:3;" x="57.6" xlink:href="#m893cf58dd4" y="44.508353"/>
      </g>
     </g>
     <g id="text_10">
      <!-- 4 -->
      <defs>
       <path d="M 37.796875 64.3125 
L 12.890625 25.390625 
L 37.796875 25.390625 
z
M 35.203125 72.90625 
L 47.609375 72.90625 
L 47.609375 25.390625 
L 58.015625 25.390625 
L 58.015625 17.1875 
L 47.609375 17.1875 
L 47.609375 0 
L 37.796875 0 
L 37.796875 17.1875 
L 4.890625 17.1875 
L 4.890625 26.703125 
z
" id="DejaVuSans-34"/>
      </defs>
      <g transform="translate(34.19375 54.0064)scale(0.25 -0.25)">
       <use xlink:href="#DejaVuSans-34"/>
      </g>
     </g>
    </g>
   </g>
   <g id="line2d_19">
    <path clip-path="url(#p35df622810)" d="M 99.264 182.483649 
L 99.264 208.527565 
" style="fill:none;stroke:#1f1f1f;stroke-linecap:square;stroke-width:1.5;"/>
   </g>
   <g id="line2d_20">
    <path clip-path="url(#p35df622810)" d="M 99.264 164.894751 
L 99.264 141.363563 
" style="fill:none;stroke:#1f1f1f;stroke-linecap:square;stroke-width:1.5;"/>
   </g>
   <g id="line2d_21">
    <path clip-path="url(#p35df622810)" d="M 87.59808 208.527565 
L 110.92992 208.527565 
" style="fill:none;stroke:#1f1f1f;stroke-linecap:square;stroke-width:1.5;"/>
   </g>
   <g id="line2d_22">
    <path clip-path="url(#p35df622810)" d="M 87.59808 141.363563 
L 110.92992 141.363563 
" style="fill:none;stroke:#1f1f1f;stroke-linecap:square;stroke-width:1.5;"/>
   </g>
   <g id="line2d_23">
    <defs>
     <path d="M -0 3.535534 
L 2.12132 0 
L -0 -3.535534 
L -2.12132 -0 
z
" id="mfd0f65d1f0" style="stroke:#1f1f1f;stroke-linejoin:miter;"/>
    </defs>
    <g clip-path="url(#p35df622810)">
     <use style="fill:#1f1f1f;stroke:#1f1f1f;stroke-linejoin:miter;" x="99.264" xlink:href="#mfd0f65d1f0" y="210.884709"/>
     <use style="fill:#1f1f1f;stroke:#1f1f1f;stroke-linejoin:miter;" x="99.264" xlink:href="#mfd0f65d1f0" y="212.963403"/>
     <use style="fill:#1f1f1f;stroke:#1f1f1f;stroke-linejoin:miter;" x="99.264" xlink:href="#mfd0f65d1f0" y="126.895672"/>
    </g>
   </g>
   <g id="line2d_24">
    <path clip-path="url(#p35df622810)" d="M 146.88 212.507143 
L 146.88 263.844648 
" style="fill:none;stroke:#1f1f1f;stroke-linecap:square;stroke-width:1.5;"/>
   </g>
   <g id="line2d_25">
    <path clip-path="url(#p35df622810)" d="M 146.88 175.379485 
L 146.88 121.40037 
" style="fill:none;stroke:#1f1f1f;stroke-linecap:square;stroke-width:1.5;"/>
   </g>
   <g id="line2d_26">
    <path clip-path="url(#p35df622810)" d="M 135.21408 263.844648 
L 158.54592 263.844648 
" style="fill:none;stroke:#1f1f1f;stroke-linecap:square;stroke-width:1.5;"/>
   </g>
   <g id="line2d_27">
    <path clip-path="url(#p35df622810)" d="M 135.21408 121.40037 
L 158.54592 121.40037 
" style="fill:none;stroke:#1f1f1f;stroke-linecap:square;stroke-width:1.5;"/>
   </g>
   <g id="line2d_28">
    <g clip-path="url(#p35df622810)">
     <use style="fill:#1f1f1f;stroke:#1f1f1f;stroke-linejoin:miter;" x="146.88" xlink:href="#mfd0f65d1f0" y="295.488"/>
     <use style="fill:#1f1f1f;stroke:#1f1f1f;stroke-linejoin:miter;" x="146.88" xlink:href="#mfd0f65d1f0" y="281.495839"/>
     <use style="fill:#1f1f1f;stroke:#1f1f1f;stroke-linejoin:miter;" x="146.88" xlink:href="#mfd0f65d1f0" y="291.945069"/>
     <use style="fill:#1f1f1f;stroke:#1f1f1f;stroke-linejoin:miter;" x="146.88" xlink:href="#mfd0f65d1f0" y="111.044327"/>
     <use style="fill:#1f1f1f;stroke:#1f1f1f;stroke-linejoin:miter;" x="146.88" xlink:href="#mfd0f65d1f0" y="114.179609"/>
     <use style="fill:#1f1f1f;stroke:#1f1f1f;stroke-linejoin:miter;" x="146.88" xlink:href="#mfd0f65d1f0" y="106.494235"/>
     <use style="fill:#1f1f1f;stroke:#1f1f1f;stroke-linejoin:miter;" x="146.88" xlink:href="#mfd0f65d1f0" y="53.568"/>
    </g>
   </g>
   <g id="line2d_29">
    <path clip-path="url(#p35df622810)" d="M 194.496 184.60616 
L 194.496 210.884709 
" style="fill:none;stroke:#1f1f1f;stroke-linecap:square;stroke-width:1.5;"/>
   </g>
   <g id="line2d_30">
    <path clip-path="url(#p35df622810)" d="M 194.496 166.140078 
L 194.496 152.873221 
" style="fill:none;stroke:#1f1f1f;stroke-linecap:square;stroke-width:1.5;"/>
   </g>
   <g id="line2d_31">
    <path clip-path="url(#p35df622810)" d="M 182.83008 210.884709 
L 206.16192 210.884709 
" style="fill:none;stroke:#1f1f1f;stroke-linecap:square;stroke-width:1.5;"/>
   </g>
   <g id="line2d_32">
    <path clip-path="url(#p35df622810)" d="M 182.83008 152.873221 
L 206.16192 152.873221 
" style="fill:none;stroke:#1f1f1f;stroke-linecap:square;stroke-width:1.5;"/>
   </g>
   <g id="line2d_33">
    <g clip-path="url(#p35df622810)">
     <use style="fill:#1f1f1f;stroke:#1f1f1f;stroke-linejoin:miter;" x="194.496" xlink:href="#mfd0f65d1f0" y="212.963403"/>
    </g>
   </g>
   <g id="line2d_34">
    <path clip-path="url(#p35df622810)" d="M 277.824 175.322976 
L 277.824 192.046219 
" style="fill:none;stroke:#1f1f1f;stroke-linecap:square;stroke-width:1.5;"/>
   </g>
   <g id="line2d_35">
    <path clip-path="url(#p35df622810)" d="M 277.824 156.35633 
L 277.824 129.291797 
" style="fill:none;stroke:#1f1f1f;stroke-linecap:square;stroke-width:1.5;"/>
   </g>
   <g id="line2d_36">
    <path clip-path="url(#p35df622810)" d="M 266.15808 192.046219 
L 289.48992 192.046219 
" style="fill:none;stroke:#1f1f1f;stroke-linecap:square;stroke-width:1.5;"/>
   </g>
   <g id="line2d_37">
    <path clip-path="url(#p35df622810)" d="M 266.15808 129.291797 
L 289.48992 129.291797 
" style="fill:none;stroke:#1f1f1f;stroke-linecap:square;stroke-width:1.5;"/>
   </g>
   <g id="line2d_38">
    <g clip-path="url(#p35df622810)">
     <use style="fill:#1f1f1f;stroke:#1f1f1f;stroke-linejoin:miter;" x="277.824" xlink:href="#mfd0f65d1f0" y="118.630254"/>
    </g>
   </g>
   <g id="line2d_39">
    <path clip-path="url(#p35df622810)" d="M 325.44 193.031554 
L 325.44 243.611451 
" style="fill:none;stroke:#1f1f1f;stroke-linecap:square;stroke-width:1.5;"/>
   </g>
   <g id="line2d_40">
    <path clip-path="url(#p35df622810)" d="M 325.44 158.693371 
L 325.44 112.015631 
" style="fill:none;stroke:#1f1f1f;stroke-linecap:square;stroke-width:1.5;"/>
   </g>
   <g id="line2d_41">
    <path clip-path="url(#p35df622810)" d="M 313.77408 243.611451 
L 337.10592 243.611451 
" style="fill:none;stroke:#1f1f1f;stroke-linecap:square;stroke-width:1.5;"/>
   </g>
   <g id="line2d_42">
    <path clip-path="url(#p35df622810)" d="M 313.77408 112.015631 
L 337.10592 112.015631 
" style="fill:none;stroke:#1f1f1f;stroke-linecap:square;stroke-width:1.5;"/>
   </g>
   <g id="line2d_43">
    <g clip-path="url(#p35df622810)">
     <use style="fill:#1f1f1f;stroke:#1f1f1f;stroke-linejoin:miter;" x="325.44" xlink:href="#mfd0f65d1f0" y="244.738002"/>
     <use style="fill:#1f1f1f;stroke:#1f1f1f;stroke-linejoin:miter;" x="325.44" xlink:href="#mfd0f65d1f0" y="105.568671"/>
     <use style="fill:#1f1f1f;stroke:#1f1f1f;stroke-linejoin:miter;" x="325.44" xlink:href="#mfd0f65d1f0" y="104.172836"/>
     <use style="fill:#1f1f1f;stroke:#1f1f1f;stroke-linejoin:miter;" x="325.44" xlink:href="#mfd0f65d1f0" y="106.564833"/>
    </g>
   </g>
   <g id="line2d_44">
    <path clip-path="url(#p35df622810)" d="M 373.056 171.048208 
L 373.056 182.449707 
" style="fill:none;stroke:#1f1f1f;stroke-linecap:square;stroke-width:1.5;"/>
   </g>
   <g id="line2d_45">
    <path clip-path="url(#p35df622810)" d="M 373.056 160.482213 
L 373.056 145.688001 
" style="fill:none;stroke:#1f1f1f;stroke-linecap:square;stroke-width:1.5;"/>
   </g>
   <g id="line2d_46">
    <path clip-path="url(#p35df622810)" d="M 361.39008 182.449707 
L 384.72192 182.449707 
" style="fill:none;stroke:#1f1f1f;stroke-linecap:square;stroke-width:1.5;"/>
   </g>
   <g id="line2d_47">
    <path clip-path="url(#p35df622810)" d="M 361.39008 145.688001 
L 384.72192 145.688001 
" style="fill:none;stroke:#1f1f1f;stroke-linecap:square;stroke-width:1.5;"/>
   </g>
   <g id="line2d_48">
    <g clip-path="url(#p35df622810)">
     <use style="fill:#1f1f1f;stroke:#1f1f1f;stroke-linejoin:miter;" x="373.056" xlink:href="#mfd0f65d1f0" y="190.153357"/>
     <use style="fill:#1f1f1f;stroke:#1f1f1f;stroke-linejoin:miter;" x="373.056" xlink:href="#mfd0f65d1f0" y="134.910671"/>
     <use style="fill:#1f1f1f;stroke:#1f1f1f;stroke-linejoin:miter;" x="373.056" xlink:href="#mfd0f65d1f0" y="140.654023"/>
    </g>
   </g>
   <g id="line2d_49">
    <path clip-path="url(#p35df622810)" d="M 75.93216 174.420995 
L 122.59584 174.420995 
" style="fill:none;stroke:#1f1f1f;stroke-linecap:square;stroke-width:1.5;"/>
   </g>
   <g id="line2d_50">
    <path clip-path="url(#p35df622810)" d="M 123.54816 195.948913 
L 170.21184 195.948913 
" style="fill:none;stroke:#1f1f1f;stroke-linecap:square;stroke-width:1.5;"/>
   </g>
   <g id="line2d_51">
    <path clip-path="url(#p35df622810)" d="M 171.16416 176.233935 
L 217.82784 176.233935 
" style="fill:none;stroke:#1f1f1f;stroke-linecap:square;stroke-width:1.5;"/>
   </g>
   <g id="line2d_52">
    <path clip-path="url(#p35df622810)" d="M 254.49216 167.446963 
L 301.15584 167.446963 
" style="fill:none;stroke:#1f1f1f;stroke-linecap:square;stroke-width:1.5;"/>
   </g>
   <g id="line2d_53">
    <path clip-path="url(#p35df622810)" d="M 302.10816 177.808527 
L 348.77184 177.808527 
" style="fill:none;stroke:#1f1f1f;stroke-linecap:square;stroke-width:1.5;"/>
   </g>
   <g id="line2d_54">
    <path clip-path="url(#p35df622810)" d="M 349.72416 167.080396 
L 396.38784 167.080396 
" style="fill:none;stroke:#1f1f1f;stroke-linecap:square;stroke-width:1.5;"/>
   </g>
   <g id="patch_12">
    <path d="M 57.6 307.584 
L 57.6 41.472 
" style="fill:none;stroke:#000000;stroke-linecap:square;stroke-linejoin:miter;stroke-width:0.8;"/>
   </g>
   <g id="patch_13">
    <path d="M 414.72 307.584 
L 414.72 41.472 
" style="fill:none;stroke:#000000;stroke-linecap:square;stroke-linejoin:miter;stroke-width:0.8;"/>
   </g>
   <g id="patch_14">
    <path d="M 57.6 307.584 
L 414.72 307.584 
" style="fill:none;stroke:#000000;stroke-linecap:square;stroke-linejoin:miter;stroke-width:0.8;"/>
   </g>
   <g id="patch_15">
    <path d="M 57.6 41.472 
L 414.72 41.472 
" style="fill:none;stroke:#000000;stroke-linecap:square;stroke-linejoin:miter;stroke-width:0.8;"/>
   </g>
  </g>
 </g>
 <defs>
  <clipPath id="p35df622810">
   <rect height="266.112" width="357.12" x="57.6" y="41.472"/>
  </clipPath>
 </defs>
</svg>
