<?xml version="1.0" encoding="utf-8" standalone="no"?>
<!DOCTYPE svg PUBLIC "-//W3C//DTD SVG 1.1//EN"
  "http://www.w3.org/Graphics/SVG/1.1/DTD/svg11.dtd">
<!-- Created with matplotlib (http://matplotlib.org/) -->
<svg height="345.6pt" version="1.1" viewBox="0 0 460.8 345.6" width="460.8pt" xmlns="http://www.w3.org/2000/svg" xmlns:xlink="http://www.w3.org/1999/xlink">
 <defs>
  <style type="text/css">
*{stroke-linecap:butt;stroke-linejoin:round;}
  </style>
 </defs>
 <g id="figure_1">
  <g id="patch_1">
   <path d="M 0 345.6 
L 460.8 345.6 
L 460.8 0 
L 0 0 
z
" style="fill:#ffffff;"/>
  </g>
  <g id="axes_1">
   <g id="patch_2">
    <path d="M 57.6 307.584 
L 414.72 307.584 
L 414.72 41.472 
L 57.6 41.472 
z
" style="fill:#ffffff;"/>
   </g>
   <g id="patch_3">
    <path clip-path="url(#p9db77c1d4e)" d="M 75.93216 182.178338 
L 122.59584 182.178338 
L 122.59584 164.914259 
L 75.93216 164.914259 
L 75.93216 182.178338 
z
" style="fill:#79b2ec;stroke:#1f1f1f;stroke-linejoin:miter;stroke-width:1.5;"/>
   </g>
   <g id="patch_4">
    <path clip-path="url(#p9db77c1d4e)" d="M 123.54816 205.24055 
L 170.21184 205.24055 
L 170.21184 174.646645 
L 123.54816 174.646645 
L 123.54816 205.24055 
z
" style="fill:#0d3359;stroke:#1f1f1f;stroke-linejoin:miter;stroke-width:1.5;"/>
   </g>
   <g id="patch_5">
    <path clip-path="url(#p9db77c1d4e)" d="M 171.16416 176.963462 
L 217.82784 176.963462 
L 217.82784 167.534482 
L 171.16416 167.534482 
L 171.16416 176.963462 
z
" style="fill:#2080df;stroke:#1f1f1f;stroke-linejoin:miter;stroke-width:1.5;"/>
   </g>
   <g id="patch_6">
    <path clip-path="url(#p9db77c1d4e)" d="M 254.49216 177.316228 
L 301.15584 177.316228 
L 301.15584 150.632929 
L 254.49216 150.632929 
L 254.49216 177.316228 
z
" style="fill:#79b2ec;stroke:#1f1f1f;stroke-linejoin:miter;stroke-width:1.5;"/>
   </g>
   <g id="patch_7">
    <path clip-path="url(#p9db77c1d4e)" d="M 302.10816 198.850289 
L 348.77184 198.850289 
L 348.77184 172.777003 
L 302.10816 172.777003 
L 302.10816 198.850289 
z
" style="fill:#0d3359;stroke:#1f1f1f;stroke-linejoin:miter;stroke-width:1.5;"/>
   </g>
   <g id="patch_8">
    <path clip-path="url(#p9db77c1d4e)" d="M 349.72416 167.45653 
L 396.38784 167.45653 
L 396.38784 150.258501 
L 349.72416 150.258501 
L 349.72416 167.45653 
z
" style="fill:#2080df;stroke:#1f1f1f;stroke-linejoin:miter;stroke-width:1.5;"/>
   </g>
   <g id="patch_9">
    <path clip-path="url(#p9db77c1d4e)" d="M 146.88 149.618634 
L 146.88 149.618634 
L 146.88 149.618634 
L 146.88 149.618634 
z
" style="fill:#79b2ec;stroke:#1f1f1f;stroke-linejoin:miter;stroke-width:0.75;"/>
   </g>
   <g id="patch_10">
    <path clip-path="url(#p9db77c1d4e)" d="M 146.88 149.618634 
L 146.88 149.618634 
L 146.88 149.618634 
L 146.88 149.618634 
z
" style="fill:#0d3359;stroke:#1f1f1f;stroke-linejoin:miter;stroke-width:0.75;"/>
   </g>
   <g id="patch_11">
    <path clip-path="url(#p9db77c1d4e)" d="M 146.88 149.618634 
L 146.88 149.618634 
L 146.88 149.618634 
L 146.88 149.618634 
z
" style="fill:#2080df;stroke:#1f1f1f;stroke-linejoin:miter;stroke-width:0.75;"/>
   </g>
   <g id="matplotlib.axis_1">
    <g id="xtick_1">
     <g id="line2d_1">
      <defs>
       <path d="M 0 4 
L 0 -4 
" id="m882e8053aa" style="stroke:#000000;stroke-width:3;"/>
      </defs>
      <g>
       <use style="stroke:#000000;stroke-width:3;" x="146.88" xlink:href="#m882e8053aa" y="307.584"/>
      </g>
     </g>
     <g id="text_1">
      <!-- arhgdia -->
      <defs>
       <path d="M 34.28125 27.484375 
Q 23.390625 27.484375 19.1875 25 
Q 14.984375 22.515625 14.984375 16.5 
Q 14.984375 11.71875 18.140625 8.90625 
Q 21.296875 6.109375 26.703125 6.109375 
Q 34.1875 6.109375 38.703125 11.40625 
Q 43.21875 16.703125 43.21875 25.484375 
L 43.21875 27.484375 
z
M 52.203125 31.203125 
L 52.203125 0 
L 43.21875 0 
L 43.21875 8.296875 
Q 40.140625 3.328125 35.546875 0.953125 
Q 30.953125 -1.421875 24.3125 -1.421875 
Q 15.921875 -1.421875 10.953125 3.296875 
Q 6 8.015625 6 15.921875 
Q 6 25.140625 12.171875 29.828125 
Q 18.359375 34.515625 30.609375 34.515625 
L 43.21875 34.515625 
L 43.21875 35.40625 
Q 43.21875 41.609375 39.140625 45 
Q 35.0625 48.390625 27.6875 48.390625 
Q 23 48.390625 18.546875 47.265625 
Q 14.109375 46.140625 10.015625 43.890625 
L 10.015625 52.203125 
Q 14.9375 54.109375 19.578125 55.046875 
Q 24.21875 56 28.609375 56 
Q 40.484375 56 46.34375 49.84375 
Q 52.203125 43.703125 52.203125 31.203125 
z
" id="DejaVuSans-61"/>
       <path d="M 41.109375 46.296875 
Q 39.59375 47.171875 37.8125 47.578125 
Q 36.03125 48 33.890625 48 
Q 26.265625 48 22.1875 43.046875 
Q 18.109375 38.09375 18.109375 28.8125 
L 18.109375 0 
L 9.078125 0 
L 9.078125 54.6875 
L 18.109375 54.6875 
L 18.109375 46.1875 
Q 20.953125 51.171875 25.484375 53.578125 
Q 30.03125 56 36.53125 56 
Q 37.453125 56 38.578125 55.875 
Q 39.703125 55.765625 41.0625 55.515625 
z
" id="DejaVuSans-72"/>
       <path d="M 54.890625 33.015625 
L 54.890625 0 
L 45.90625 0 
L 45.90625 32.71875 
Q 45.90625 40.484375 42.875 44.328125 
Q 39.84375 48.1875 33.796875 48.1875 
Q 26.515625 48.1875 22.3125 43.546875 
Q 18.109375 38.921875 18.109375 30.90625 
L 18.109375 0 
L 9.078125 0 
L 9.078125 75.984375 
L 18.109375 75.984375 
L 18.109375 46.1875 
Q 21.34375 51.125 25.703125 53.5625 
Q 30.078125 56 35.796875 56 
Q 45.21875 56 50.046875 50.171875 
Q 54.890625 44.34375 54.890625 33.015625 
z
" id="DejaVuSans-68"/>
       <path d="M 45.40625 27.984375 
Q 45.40625 37.75 41.375 43.109375 
Q 37.359375 48.484375 30.078125 48.484375 
Q 22.859375 48.484375 18.828125 43.109375 
Q 14.796875 37.75 14.796875 27.984375 
Q 14.796875 18.265625 18.828125 12.890625 
Q 22.859375 7.515625 30.078125 7.515625 
Q 37.359375 7.515625 41.375 12.890625 
Q 45.40625 18.265625 45.40625 27.984375 
z
M 54.390625 6.78125 
Q 54.390625 -7.171875 48.1875 -13.984375 
Q 42 -20.796875 29.203125 -20.796875 
Q 24.46875 -20.796875 20.265625 -20.09375 
Q 16.0625 -19.390625 12.109375 -17.921875 
L 12.109375 -9.1875 
Q 16.0625 -11.328125 19.921875 -12.34375 
Q 23.78125 -13.375 27.78125 -13.375 
Q 36.625 -13.375 41.015625 -8.765625 
Q 45.40625 -4.15625 45.40625 5.171875 
L 45.40625 9.625 
Q 42.625 4.78125 38.28125 2.390625 
Q 33.9375 0 27.875 0 
Q 17.828125 0 11.671875 7.65625 
Q 5.515625 15.328125 5.515625 27.984375 
Q 5.515625 40.671875 11.671875 48.328125 
Q 17.828125 56 27.875 56 
Q 33.9375 56 38.28125 53.609375 
Q 42.625 51.21875 45.40625 46.390625 
L 45.40625 54.6875 
L 54.390625 54.6875 
z
" id="DejaVuSans-67"/>
       <path d="M 45.40625 46.390625 
L 45.40625 75.984375 
L 54.390625 75.984375 
L 54.390625 0 
L 45.40625 0 
L 45.40625 8.203125 
Q 42.578125 3.328125 38.25 0.953125 
Q 33.9375 -1.421875 27.875 -1.421875 
Q 17.96875 -1.421875 11.734375 6.484375 
Q 5.515625 14.40625 5.515625 27.296875 
Q 5.515625 40.1875 11.734375 48.09375 
Q 17.96875 56 27.875 56 
Q 33.9375 56 38.25 53.625 
Q 42.578125 51.265625 45.40625 46.390625 
z
M 14.796875 27.296875 
Q 14.796875 17.390625 18.875 11.75 
Q 22.953125 6.109375 30.078125 6.109375 
Q 37.203125 6.109375 41.296875 11.75 
Q 45.40625 17.390625 45.40625 27.296875 
Q 45.40625 37.203125 41.296875 42.84375 
Q 37.203125 48.484375 30.078125 48.484375 
Q 22.953125 48.484375 18.875 42.84375 
Q 14.796875 37.203125 14.796875 27.296875 
z
" id="DejaVuSans-64"/>
       <path d="M 9.421875 54.6875 
L 18.40625 54.6875 
L 18.40625 0 
L 9.421875 0 
z
M 9.421875 75.984375 
L 18.40625 75.984375 
L 18.40625 64.59375 
L 9.421875 64.59375 
z
" id="DejaVuSans-69"/>
      </defs>
      <g transform="translate(127.790937 322.682437)scale(0.1 -0.1)">
       <use xlink:href="#DejaVuSans-61"/>
       <use x="61.279297" xlink:href="#DejaVuSans-72"/>
       <use x="102.376953" xlink:href="#DejaVuSans-68"/>
       <use x="165.755859" xlink:href="#DejaVuSans-67"/>
       <use x="229.232422" xlink:href="#DejaVuSans-64"/>
       <use x="292.708984" xlink:href="#DejaVuSans-69"/>
       <use x="320.492188" xlink:href="#DejaVuSans-61"/>
      </g>
     </g>
    </g>
    <g id="xtick_2">
     <g id="line2d_2">
      <g>
       <use style="stroke:#000000;stroke-width:3;" x="325.44" xlink:href="#m882e8053aa" y="307.584"/>
      </g>
     </g>
     <g id="text_2">
      <!-- arhgdia_nocodazole -->
      <defs>
       <path d="M 50.984375 -16.609375 
L 50.984375 -23.578125 
L -0.984375 -23.578125 
L -0.984375 -16.609375 
z
" id="DejaVuSans-5f"/>
       <path d="M 54.890625 33.015625 
L 54.890625 0 
L 45.90625 0 
L 45.90625 32.71875 
Q 45.90625 40.484375 42.875 44.328125 
Q 39.84375 48.1875 33.796875 48.1875 
Q 26.515625 48.1875 22.3125 43.546875 
Q 18.109375 38.921875 18.109375 30.90625 
L 18.109375 0 
L 9.078125 0 
L 9.078125 54.6875 
L 18.109375 54.6875 
L 18.109375 46.1875 
Q 21.34375 51.125 25.703125 53.5625 
Q 30.078125 56 35.796875 56 
Q 45.21875 56 50.046875 50.171875 
Q 54.890625 44.34375 54.890625 33.015625 
z
" id="DejaVuSans-6e"/>
       <path d="M 30.609375 48.390625 
Q 23.390625 48.390625 19.1875 42.75 
Q 14.984375 37.109375 14.984375 27.296875 
Q 14.984375 17.484375 19.15625 11.84375 
Q 23.34375 6.203125 30.609375 6.203125 
Q 37.796875 6.203125 41.984375 11.859375 
Q 46.1875 17.53125 46.1875 27.296875 
Q 46.1875 37.015625 41.984375 42.703125 
Q 37.796875 48.390625 30.609375 48.390625 
z
M 30.609375 56 
Q 42.328125 56 49.015625 48.375 
Q 55.71875 40.765625 55.71875 27.296875 
Q 55.71875 13.875 49.015625 6.21875 
Q 42.328125 -1.421875 30.609375 -1.421875 
Q 18.84375 -1.421875 12.171875 6.21875 
Q 5.515625 13.875 5.515625 27.296875 
Q 5.515625 40.765625 12.171875 48.375 
Q 18.84375 56 30.609375 56 
z
" id="DejaVuSans-6f"/>
       <path d="M 48.78125 52.59375 
L 48.78125 44.1875 
Q 44.96875 46.296875 41.140625 47.34375 
Q 37.3125 48.390625 33.40625 48.390625 
Q 24.65625 48.390625 19.8125 42.84375 
Q 14.984375 37.3125 14.984375 27.296875 
Q 14.984375 17.28125 19.8125 11.734375 
Q 24.65625 6.203125 33.40625 6.203125 
Q 37.3125 6.203125 41.140625 7.25 
Q 44.96875 8.296875 48.78125 10.40625 
L 48.78125 2.09375 
Q 45.015625 0.34375 40.984375 -0.53125 
Q 36.96875 -1.421875 32.421875 -1.421875 
Q 20.0625 -1.421875 12.78125 6.34375 
Q 5.515625 14.109375 5.515625 27.296875 
Q 5.515625 40.671875 12.859375 48.328125 
Q 20.21875 56 33.015625 56 
Q 37.15625 56 41.109375 55.140625 
Q 45.0625 54.296875 48.78125 52.59375 
z
" id="DejaVuSans-63"/>
       <path d="M 5.515625 54.6875 
L 48.1875 54.6875 
L 48.1875 46.484375 
L 14.40625 7.171875 
L 48.1875 7.171875 
L 48.1875 0 
L 4.296875 0 
L 4.296875 8.203125 
L 38.09375 47.515625 
L 5.515625 47.515625 
z
" id="DejaVuSans-7a"/>
       <path d="M 9.421875 75.984375 
L 18.40625 75.984375 
L 18.40625 0 
L 9.421875 0 
z
" id="DejaVuSans-6c"/>
       <path d="M 56.203125 29.59375 
L 56.203125 25.203125 
L 14.890625 25.203125 
Q 15.484375 15.921875 20.484375 11.0625 
Q 25.484375 6.203125 34.421875 6.203125 
Q 39.59375 6.203125 44.453125 7.46875 
Q 49.3125 8.734375 54.109375 11.28125 
L 54.109375 2.78125 
Q 49.265625 0.734375 44.1875 -0.34375 
Q 39.109375 -1.421875 33.890625 -1.421875 
Q 20.796875 -1.421875 13.15625 6.1875 
Q 5.515625 13.8125 5.515625 26.8125 
Q 5.515625 40.234375 12.765625 48.109375 
Q 20.015625 56 32.328125 56 
Q 43.359375 56 49.78125 48.890625 
Q 56.203125 41.796875 56.203125 29.59375 
z
M 47.21875 32.234375 
Q 47.125 39.59375 43.09375 43.984375 
Q 39.0625 48.390625 32.421875 48.390625 
Q 24.90625 48.390625 20.390625 44.140625 
Q 15.875 39.890625 15.1875 32.171875 
z
" id="DejaVuSans-65"/>
      </defs>
      <g transform="translate(275.426719 322.682437)scale(0.1 -0.1)">
       <use xlink:href="#DejaVuSans-61"/>
       <use x="61.279297" xlink:href="#DejaVuSans-72"/>
       <use x="102.376953" xlink:href="#DejaVuSans-68"/>
       <use x="165.755859" xlink:href="#DejaVuSans-67"/>
       <use x="229.232422" xlink:href="#DejaVuSans-64"/>
       <use x="292.708984" xlink:href="#DejaVuSans-69"/>
       <use x="320.492188" xlink:href="#DejaVuSans-61"/>
       <use x="381.771484" xlink:href="#DejaVuSans-5f"/>
       <use x="431.771484" xlink:href="#DejaVuSans-6e"/>
       <use x="495.150391" xlink:href="#DejaVuSans-6f"/>
       <use x="556.332031" xlink:href="#DejaVuSans-63"/>
       <use x="611.3125" xlink:href="#DejaVuSans-6f"/>
       <use x="672.494141" xlink:href="#DejaVuSans-64"/>
       <use x="735.970703" xlink:href="#DejaVuSans-61"/>
       <use x="797.25" xlink:href="#DejaVuSans-7a"/>
       <use x="849.740234" xlink:href="#DejaVuSans-6f"/>
       <use x="910.921875" xlink:href="#DejaVuSans-6c"/>
       <use x="938.705078" xlink:href="#DejaVuSans-65"/>
      </g>
     </g>
    </g>
   </g>
   <g id="matplotlib.axis_2">
    <g id="ytick_1">
     <g id="line2d_3">
      <path clip-path="url(#p9db77c1d4e)" d="M 57.6 288.372842 
L 414.72 288.372842 
" style="fill:none;stroke:#000000;stroke-linecap:square;stroke-width:0.25;"/>
     </g>
     <g id="line2d_4">
      <defs>
       <path d="M 4 0 
L -4 -0 
" id="m7d0ca3238d" style="stroke:#000000;stroke-width:3;"/>
      </defs>
      <g>
       <use style="stroke:#000000;stroke-width:3;" x="57.6" xlink:href="#m7d0ca3238d" y="288.372842"/>
      </g>
     </g>
     <g id="text_3">
      <!-- −1.5 -->
      <defs>
       <path d="M 10.59375 35.5 
L 73.1875 35.5 
L 73.1875 27.203125 
L 10.59375 27.203125 
z
" id="DejaVuSans-2212"/>
       <path d="M 12.40625 8.296875 
L 28.515625 8.296875 
L 28.515625 63.921875 
L 10.984375 60.40625 
L 10.984375 69.390625 
L 28.421875 72.90625 
L 38.28125 72.90625 
L 38.28125 8.296875 
L 54.390625 8.296875 
L 54.390625 0 
L 12.40625 0 
z
" id="DejaVuSans-31"/>
       <path d="M 10.6875 12.40625 
L 21 12.40625 
L 21 0 
L 10.6875 0 
z
" id="DejaVuSans-2e"/>
       <path d="M 10.796875 72.90625 
L 49.515625 72.90625 
L 49.515625 64.59375 
L 19.828125 64.59375 
L 19.828125 46.734375 
Q 21.96875 47.46875 24.109375 47.828125 
Q 26.265625 48.1875 28.421875 48.1875 
Q 40.625 48.1875 47.75 41.5 
Q 54.890625 34.8125 54.890625 23.390625 
Q 54.890625 11.625 47.5625 5.09375 
Q 40.234375 -1.421875 26.90625 -1.421875 
Q 22.3125 -1.421875 17.546875 -0.640625 
Q 12.796875 0.140625 7.71875 1.703125 
L 7.71875 11.625 
Q 12.109375 9.234375 16.796875 8.0625 
Q 21.484375 6.890625 26.703125 6.890625 
Q 35.15625 6.890625 40.078125 11.328125 
Q 45.015625 15.765625 45.015625 23.390625 
Q 45.015625 31 40.078125 35.4375 
Q 35.15625 39.890625 26.703125 39.890625 
Q 22.75 39.890625 18.8125 39.015625 
Q 14.890625 38.140625 10.796875 36.28125 
z
" id="DejaVuSans-35"/>
      </defs>
      <g transform="translate(-10.607031 297.870889)scale(0.25 -0.25)">
       <use xlink:href="#DejaVuSans-2212"/>
       <use x="83.789062" xlink:href="#DejaVuSans-31"/>
       <use x="147.412109" xlink:href="#DejaVuSans-2e"/>
       <use x="179.199219" xlink:href="#DejaVuSans-35"/>
      </g>
     </g>
    </g>
    <g id="ytick_2">
     <g id="line2d_5">
      <path clip-path="url(#p9db77c1d4e)" d="M 57.6 242.121439 
L 414.72 242.121439 
" style="fill:none;stroke:#000000;stroke-linecap:square;stroke-width:0.25;"/>
     </g>
     <g id="line2d_6">
      <g>
       <use style="stroke:#000000;stroke-width:3;" x="57.6" xlink:href="#m7d0ca3238d" y="242.121439"/>
      </g>
     </g>
     <g id="text_4">
      <!-- −1.0 -->
      <defs>
       <path d="M 31.78125 66.40625 
Q 24.171875 66.40625 20.328125 58.90625 
Q 16.5 51.421875 16.5 36.375 
Q 16.5 21.390625 20.328125 13.890625 
Q 24.171875 6.390625 31.78125 6.390625 
Q 39.453125 6.390625 43.28125 13.890625 
Q 47.125 21.390625 47.125 36.375 
Q 47.125 51.421875 43.28125 58.90625 
Q 39.453125 66.40625 31.78125 66.40625 
z
M 31.78125 74.21875 
Q 44.046875 74.21875 50.515625 64.515625 
Q 56.984375 54.828125 56.984375 36.375 
Q 56.984375 17.96875 50.515625 8.265625 
Q 44.046875 -1.421875 31.78125 -1.421875 
Q 19.53125 -1.421875 13.0625 8.265625 
Q 6.59375 17.96875 6.59375 36.375 
Q 6.59375 54.828125 13.0625 64.515625 
Q 19.53125 74.21875 31.78125 74.21875 
z
" id="DejaVuSans-30"/>
      </defs>
      <g transform="translate(-10.607031 251.619486)scale(0.25 -0.25)">
       <use xlink:href="#DejaVuSans-2212"/>
       <use x="83.789062" xlink:href="#DejaVuSans-31"/>
       <use x="147.412109" xlink:href="#DejaVuSans-2e"/>
       <use x="179.199219" xlink:href="#DejaVuSans-30"/>
      </g>
     </g>
    </g>
    <g id="ytick_3">
     <g id="line2d_7">
      <path clip-path="url(#p9db77c1d4e)" d="M 57.6 195.870037 
L 414.72 195.870037 
" style="fill:none;stroke:#000000;stroke-linecap:square;stroke-width:0.25;"/>
     </g>
     <g id="line2d_8">
      <g>
       <use style="stroke:#000000;stroke-width:3;" x="57.6" xlink:href="#m7d0ca3238d" y="195.870037"/>
      </g>
     </g>
     <g id="text_5">
      <!-- −0.5 -->
      <g transform="translate(-10.607031 205.368084)scale(0.25 -0.25)">
       <use xlink:href="#DejaVuSans-2212"/>
       <use x="83.789062" xlink:href="#DejaVuSans-30"/>
       <use x="147.412109" xlink:href="#DejaVuSans-2e"/>
       <use x="179.199219" xlink:href="#DejaVuSans-35"/>
      </g>
     </g>
    </g>
    <g id="ytick_4">
     <g id="line2d_9">
      <path clip-path="url(#p9db77c1d4e)" d="M 57.6 149.618634 
L 414.72 149.618634 
" style="fill:none;stroke:#000000;stroke-linecap:square;stroke-width:0.25;"/>
     </g>
     <g id="line2d_10">
      <g>
       <use style="stroke:#000000;stroke-width:3;" x="57.6" xlink:href="#m7d0ca3238d" y="149.618634"/>
      </g>
     </g>
     <g id="text_6">
      <!-- 0.0 -->
      <g transform="translate(10.342188 159.116681)scale(0.25 -0.25)">
       <use xlink:href="#DejaVuSans-30"/>
       <use x="63.623047" xlink:href="#DejaVuSans-2e"/>
       <use x="95.410156" xlink:href="#DejaVuSans-30"/>
      </g>
     </g>
    </g>
    <g id="ytick_5">
     <g id="line2d_11">
      <path clip-path="url(#p9db77c1d4e)" d="M 57.6 103.367231 
L 414.72 103.367231 
" style="fill:none;stroke:#000000;stroke-linecap:square;stroke-width:0.25;"/>
     </g>
     <g id="line2d_12">
      <g>
       <use style="stroke:#000000;stroke-width:3;" x="57.6" xlink:href="#m7d0ca3238d" y="103.367231"/>
      </g>
     </g>
     <g id="text_7">
      <!-- 0.5 -->
      <g transform="translate(10.342188 112.865278)scale(0.25 -0.25)">
       <use xlink:href="#DejaVuSans-30"/>
       <use x="63.623047" xlink:href="#DejaVuSans-2e"/>
       <use x="95.410156" xlink:href="#DejaVuSans-35"/>
      </g>
     </g>
    </g>
    <g id="ytick_6">
     <g id="line2d_13">
      <path clip-path="url(#p9db77c1d4e)" d="M 57.6 57.115829 
L 414.72 57.115829 
" style="fill:none;stroke:#000000;stroke-linecap:square;stroke-width:0.25;"/>
     </g>
     <g id="line2d_14">
      <g>
       <use style="stroke:#000000;stroke-width:3;" x="57.6" xlink:href="#m7d0ca3238d" y="57.115829"/>
      </g>
     </g>
     <g id="text_8">
      <!-- 1.0 -->
      <g transform="translate(10.342188 66.613876)scale(0.25 -0.25)">
       <use xlink:href="#DejaVuSans-31"/>
       <use x="63.623047" xlink:href="#DejaVuSans-2e"/>
       <use x="95.410156" xlink:href="#DejaVuSans-30"/>
      </g>
     </g>
    </g>
   </g>
   <g id="line2d_15">
    <path clip-path="url(#p9db77c1d4e)" d="M 99.264 182.178338 
L 99.264 204.800142 
" style="fill:none;stroke:#1f1f1f;stroke-linecap:square;stroke-width:1.5;"/>
   </g>
   <g id="line2d_16">
    <path clip-path="url(#p9db77c1d4e)" d="M 99.264 164.914259 
L 99.264 139.940123 
" style="fill:none;stroke:#1f1f1f;stroke-linecap:square;stroke-width:1.5;"/>
   </g>
   <g id="line2d_17">
    <path clip-path="url(#p9db77c1d4e)" d="M 87.59808 204.800142 
L 110.92992 204.800142 
" style="fill:none;stroke:#1f1f1f;stroke-linecap:square;stroke-width:1.5;"/>
   </g>
   <g id="line2d_18">
    <path clip-path="url(#p9db77c1d4e)" d="M 87.59808 139.940123 
L 110.92992 139.940123 
" style="fill:none;stroke:#1f1f1f;stroke-linecap:square;stroke-width:1.5;"/>
   </g>
   <g id="line2d_19">
    <defs>
     <path d="M -0 3.535534 
L 2.12132 0 
L -0 -3.535534 
L -2.12132 -0 
z
" id="m7375c79d2a" style="stroke:#1f1f1f;stroke-linejoin:miter;"/>
    </defs>
    <g clip-path="url(#p9db77c1d4e)">
     <use style="fill:#1f1f1f;stroke:#1f1f1f;stroke-linejoin:miter;" x="99.264" xlink:href="#m7375c79d2a" y="225.402784"/>
     <use style="fill:#1f1f1f;stroke:#1f1f1f;stroke-linejoin:miter;" x="99.264" xlink:href="#m7375c79d2a" y="224.717096"/>
     <use style="fill:#1f1f1f;stroke:#1f1f1f;stroke-linejoin:miter;" x="99.264" xlink:href="#m7375c79d2a" y="243.415443"/>
     <use style="fill:#1f1f1f;stroke:#1f1f1f;stroke-linejoin:miter;" x="99.264" xlink:href="#m7375c79d2a" y="97.080278"/>
    </g>
   </g>
   <g id="line2d_20">
    <path clip-path="url(#p9db77c1d4e)" d="M 146.88 205.24055 
L 146.88 250.586106 
" style="fill:none;stroke:#1f1f1f;stroke-linecap:square;stroke-width:1.5;"/>
   </g>
   <g id="line2d_21">
    <path clip-path="url(#p9db77c1d4e)" d="M 146.88 174.646645 
L 146.88 140.381365 
" style="fill:none;stroke:#1f1f1f;stroke-linecap:square;stroke-width:1.5;"/>
   </g>
   <g id="line2d_22">
    <path clip-path="url(#p9db77c1d4e)" d="M 135.21408 250.586106 
L 158.54592 250.586106 
" style="fill:none;stroke:#1f1f1f;stroke-linecap:square;stroke-width:1.5;"/>
   </g>
   <g id="line2d_23">
    <path clip-path="url(#p9db77c1d4e)" d="M 135.21408 140.381365 
L 158.54592 140.381365 
" style="fill:none;stroke:#1f1f1f;stroke-linecap:square;stroke-width:1.5;"/>
   </g>
   <g id="line2d_24">
    <g clip-path="url(#p9db77c1d4e)">
     <use style="fill:#1f1f1f;stroke:#1f1f1f;stroke-linejoin:miter;" x="146.88" xlink:href="#m7375c79d2a" y="295.488"/>
     <use style="fill:#1f1f1f;stroke:#1f1f1f;stroke-linejoin:miter;" x="146.88" xlink:href="#m7375c79d2a" y="278.436946"/>
     <use style="fill:#1f1f1f;stroke:#1f1f1f;stroke-linejoin:miter;" x="146.88" xlink:href="#m7375c79d2a" y="251.921543"/>
     <use style="fill:#1f1f1f;stroke:#1f1f1f;stroke-linejoin:miter;" x="146.88" xlink:href="#m7375c79d2a" y="287.387861"/>
     <use style="fill:#1f1f1f;stroke:#1f1f1f;stroke-linejoin:miter;" x="146.88" xlink:href="#m7375c79d2a" y="259.193153"/>
     <use style="fill:#1f1f1f;stroke:#1f1f1f;stroke-linejoin:miter;" x="146.88" xlink:href="#m7375c79d2a" y="294.1969"/>
     <use style="fill:#1f1f1f;stroke:#1f1f1f;stroke-linejoin:miter;" x="146.88" xlink:href="#m7375c79d2a" y="288.03331"/>
     <use style="fill:#1f1f1f;stroke:#1f1f1f;stroke-linejoin:miter;" x="146.88" xlink:href="#m7375c79d2a" y="251.653194"/>
     <use style="fill:#1f1f1f;stroke:#1f1f1f;stroke-linejoin:miter;" x="146.88" xlink:href="#m7375c79d2a" y="272.968084"/>
     <use style="fill:#1f1f1f;stroke:#1f1f1f;stroke-linejoin:miter;" x="146.88" xlink:href="#m7375c79d2a" y="260.400054"/>
     <use style="fill:#1f1f1f;stroke:#1f1f1f;stroke-linejoin:miter;" x="146.88" xlink:href="#m7375c79d2a" y="269.703849"/>
     <use style="fill:#1f1f1f;stroke:#1f1f1f;stroke-linejoin:miter;" x="146.88" xlink:href="#m7375c79d2a" y="262.205056"/>
     <use style="fill:#1f1f1f;stroke:#1f1f1f;stroke-linejoin:miter;" x="146.88" xlink:href="#m7375c79d2a" y="124.901459"/>
     <use style="fill:#1f1f1f;stroke:#1f1f1f;stroke-linejoin:miter;" x="146.88" xlink:href="#m7375c79d2a" y="53.568"/>
     <use style="fill:#1f1f1f;stroke:#1f1f1f;stroke-linejoin:miter;" x="146.88" xlink:href="#m7375c79d2a" y="72.038225"/>
     <use style="fill:#1f1f1f;stroke:#1f1f1f;stroke-linejoin:miter;" x="146.88" xlink:href="#m7375c79d2a" y="85.51638"/>
    </g>
   </g>
   <g id="line2d_25">
    <path clip-path="url(#p9db77c1d4e)" d="M 194.496 176.963462 
L 194.496 187.317126 
" style="fill:none;stroke:#1f1f1f;stroke-linecap:square;stroke-width:1.5;"/>
   </g>
   <g id="line2d_26">
    <path clip-path="url(#p9db77c1d4e)" d="M 194.496 167.534482 
L 194.496 158.171906 
" style="fill:none;stroke:#1f1f1f;stroke-linecap:square;stroke-width:1.5;"/>
   </g>
   <g id="line2d_27">
    <path clip-path="url(#p9db77c1d4e)" d="M 182.83008 187.317126 
L 206.16192 187.317126 
" style="fill:none;stroke:#1f1f1f;stroke-linecap:square;stroke-width:1.5;"/>
   </g>
   <g id="line2d_28">
    <path clip-path="url(#p9db77c1d4e)" d="M 182.83008 158.171906 
L 206.16192 158.171906 
" style="fill:none;stroke:#1f1f1f;stroke-linecap:square;stroke-width:1.5;"/>
   </g>
   <g id="line2d_29">
    <g clip-path="url(#p9db77c1d4e)">
     <use style="fill:#1f1f1f;stroke:#1f1f1f;stroke-linejoin:miter;" x="194.496" xlink:href="#m7375c79d2a" y="204.800142"/>
     <use style="fill:#1f1f1f;stroke:#1f1f1f;stroke-linejoin:miter;" x="194.496" xlink:href="#m7375c79d2a" y="198.726237"/>
     <use style="fill:#1f1f1f;stroke:#1f1f1f;stroke-linejoin:miter;" x="194.496" xlink:href="#m7375c79d2a" y="192.572014"/>
     <use style="fill:#1f1f1f;stroke:#1f1f1f;stroke-linejoin:miter;" x="194.496" xlink:href="#m7375c79d2a" y="149.090826"/>
     <use style="fill:#1f1f1f;stroke:#1f1f1f;stroke-linejoin:miter;" x="194.496" xlink:href="#m7375c79d2a" y="148.187361"/>
     <use style="fill:#1f1f1f;stroke:#1f1f1f;stroke-linejoin:miter;" x="194.496" xlink:href="#m7375c79d2a" y="152.838208"/>
    </g>
   </g>
   <g id="line2d_30">
    <path clip-path="url(#p9db77c1d4e)" d="M 277.824 177.316228 
L 277.824 215.635177 
" style="fill:none;stroke:#1f1f1f;stroke-linecap:square;stroke-width:1.5;"/>
   </g>
   <g id="line2d_31">
    <path clip-path="url(#p9db77c1d4e)" d="M 277.824 150.632929 
L 277.824 139.457226 
" style="fill:none;stroke:#1f1f1f;stroke-linecap:square;stroke-width:1.5;"/>
   </g>
   <g id="line2d_32">
    <path clip-path="url(#p9db77c1d4e)" d="M 266.15808 215.635177 
L 289.48992 215.635177 
" style="fill:none;stroke:#1f1f1f;stroke-linecap:square;stroke-width:1.5;"/>
   </g>
   <g id="line2d_33">
    <path clip-path="url(#p9db77c1d4e)" d="M 266.15808 139.457226 
L 289.48992 139.457226 
" style="fill:none;stroke:#1f1f1f;stroke-linecap:square;stroke-width:1.5;"/>
   </g>
   <g id="line2d_34"/>
   <g id="line2d_35">
    <path clip-path="url(#p9db77c1d4e)" d="M 325.44 198.850289 
L 325.44 237.268463 
" style="fill:none;stroke:#1f1f1f;stroke-linecap:square;stroke-width:1.5;"/>
   </g>
   <g id="line2d_36">
    <path clip-path="url(#p9db77c1d4e)" d="M 325.44 172.777003 
L 325.44 137.679123 
" style="fill:none;stroke:#1f1f1f;stroke-linecap:square;stroke-width:1.5;"/>
   </g>
   <g id="line2d_37">
    <path clip-path="url(#p9db77c1d4e)" d="M 313.77408 237.268463 
L 337.10592 237.268463 
" style="fill:none;stroke:#1f1f1f;stroke-linecap:square;stroke-width:1.5;"/>
   </g>
   <g id="line2d_38">
    <path clip-path="url(#p9db77c1d4e)" d="M 313.77408 137.679123 
L 337.10592 137.679123 
" style="fill:none;stroke:#1f1f1f;stroke-linecap:square;stroke-width:1.5;"/>
   </g>
   <g id="line2d_39">
    <g clip-path="url(#p9db77c1d4e)">
     <use style="fill:#1f1f1f;stroke:#1f1f1f;stroke-linejoin:miter;" x="325.44" xlink:href="#m7375c79d2a" y="126.132535"/>
     <use style="fill:#1f1f1f;stroke:#1f1f1f;stroke-linejoin:miter;" x="325.44" xlink:href="#m7375c79d2a" y="114.649488"/>
     <use style="fill:#1f1f1f;stroke:#1f1f1f;stroke-linejoin:miter;" x="325.44" xlink:href="#m7375c79d2a" y="122.572709"/>
    </g>
   </g>
   <g id="line2d_40">
    <path clip-path="url(#p9db77c1d4e)" d="M 373.056 167.45653 
L 373.056 192.309887 
" style="fill:none;stroke:#1f1f1f;stroke-linecap:square;stroke-width:1.5;"/>
   </g>
   <g id="line2d_41">
    <path clip-path="url(#p9db77c1d4e)" d="M 373.056 150.258501 
L 373.056 145.533697 
" style="fill:none;stroke:#1f1f1f;stroke-linecap:square;stroke-width:1.5;"/>
   </g>
   <g id="line2d_42">
    <path clip-path="url(#p9db77c1d4e)" d="M 361.39008 192.309887 
L 384.72192 192.309887 
" style="fill:none;stroke:#1f1f1f;stroke-linecap:square;stroke-width:1.5;"/>
   </g>
   <g id="line2d_43">
    <path clip-path="url(#p9db77c1d4e)" d="M 361.39008 145.533697 
L 384.72192 145.533697 
" style="fill:none;stroke:#1f1f1f;stroke-linecap:square;stroke-width:1.5;"/>
   </g>
   <g id="line2d_44"/>
   <g id="line2d_45">
    <path clip-path="url(#p9db77c1d4e)" d="M 75.93216 172.428558 
L 122.59584 172.428558 
" style="fill:none;stroke:#1f1f1f;stroke-linecap:square;stroke-width:1.5;"/>
   </g>
   <g id="line2d_46">
    <path clip-path="url(#p9db77c1d4e)" d="M 123.54816 188.324332 
L 170.21184 188.324332 
" style="fill:none;stroke:#1f1f1f;stroke-linecap:square;stroke-width:1.5;"/>
   </g>
   <g id="line2d_47">
    <path clip-path="url(#p9db77c1d4e)" d="M 171.16416 172.180593 
L 217.82784 172.180593 
" style="fill:none;stroke:#1f1f1f;stroke-linecap:square;stroke-width:1.5;"/>
   </g>
   <g id="line2d_48">
    <path clip-path="url(#p9db77c1d4e)" d="M 254.49216 161.460619 
L 301.15584 161.460619 
" style="fill:none;stroke:#1f1f1f;stroke-linecap:square;stroke-width:1.5;"/>
   </g>
   <g id="line2d_49">
    <path clip-path="url(#p9db77c1d4e)" d="M 302.10816 188.890064 
L 348.77184 188.890064 
" style="fill:none;stroke:#1f1f1f;stroke-linecap:square;stroke-width:1.5;"/>
   </g>
   <g id="line2d_50">
    <path clip-path="url(#p9db77c1d4e)" d="M 349.72416 157.628925 
L 396.38784 157.628925 
" style="fill:none;stroke:#1f1f1f;stroke-linecap:square;stroke-width:1.5;"/>
   </g>
   <g id="patch_12">
    <path d="M 57.6 307.584 
L 57.6 41.472 
" style="fill:none;stroke:#000000;stroke-linecap:square;stroke-linejoin:miter;stroke-width:0.8;"/>
   </g>
   <g id="patch_13">
    <path d="M 414.72 307.584 
L 414.72 41.472 
" style="fill:none;stroke:#000000;stroke-linecap:square;stroke-linejoin:miter;stroke-width:0.8;"/>
   </g>
   <g id="patch_14">
    <path d="M 57.6 307.584 
L 414.72 307.584 
" style="fill:none;stroke:#000000;stroke-linecap:square;stroke-linejoin:miter;stroke-width:0.8;"/>
   </g>
   <g id="patch_15">
    <path d="M 57.6 41.472 
L 414.72 41.472 
" style="fill:none;stroke:#000000;stroke-linecap:square;stroke-linejoin:miter;stroke-width:0.8;"/>
   </g>
  </g>
 </g>
 <defs>
  <clipPath id="p9db77c1d4e">
   <rect height="266.112" width="357.12" x="57.6" y="41.472"/>
  </clipPath>
 </defs>
</svg>
