<?xml version="1.0" encoding="utf-8" standalone="no"?>
<!DOCTYPE svg PUBLIC "-//W3C//DTD SVG 1.1//EN"
  "http://www.w3.org/Graphics/SVG/1.1/DTD/svg11.dtd">
<!-- Created with matplotlib (http://matplotlib.org/) -->
<svg height="345.6pt" version="1.1" viewBox="0 0 460.8 345.6" width="460.8pt" xmlns="http://www.w3.org/2000/svg" xmlns:xlink="http://www.w3.org/1999/xlink">
 <defs>
  <style type="text/css">
*{stroke-linecap:butt;stroke-linejoin:round;}
  </style>
 </defs>
 <g id="figure_1">
  <g id="patch_1">
   <path d="M 0 345.6 
L 460.8 345.6 
L 460.8 0 
L 0 0 
z
" style="fill:#ffffff;"/>
  </g>
  <g id="axes_1">
   <g id="patch_2">
    <path d="M 57.6 307.584 
L 414.72 307.584 
L 414.72 41.472 
L 57.6 41.472 
z
" style="fill:#ffffff;"/>
   </g>
   <g id="patch_3">
    <path clip-path="url(#p1a603db5dd)" d="M 75.93216 226.545482 
L 122.59584 226.545482 
L 122.59584 198.0745 
L 75.93216 198.0745 
L 75.93216 226.545482 
z
" style="fill:#79b2ec;stroke:#1f1f1f;stroke-linejoin:miter;stroke-width:1.5;"/>
   </g>
   <g id="patch_4">
    <path clip-path="url(#p1a603db5dd)" d="M 123.54816 236.964443 
L 170.21184 236.964443 
L 170.21184 198.849448 
L 123.54816 198.849448 
L 123.54816 236.964443 
z
" style="fill:#0d3359;stroke:#1f1f1f;stroke-linejoin:miter;stroke-width:1.5;"/>
   </g>
   <g id="patch_5">
    <path clip-path="url(#p1a603db5dd)" d="M 171.16416 211.612153 
L 217.82784 211.612153 
L 217.82784 196.235052 
L 171.16416 196.235052 
L 171.16416 211.612153 
z
" style="fill:#2080df;stroke:#1f1f1f;stroke-linejoin:miter;stroke-width:1.5;"/>
   </g>
   <g id="patch_6">
    <path clip-path="url(#p1a603db5dd)" d="M 254.49216 216.662138 
L 301.15584 216.662138 
L 301.15584 205.621959 
L 254.49216 205.621959 
L 254.49216 216.662138 
z
" style="fill:#79b2ec;stroke:#1f1f1f;stroke-linejoin:miter;stroke-width:1.5;"/>
   </g>
   <g id="patch_7">
    <path clip-path="url(#p1a603db5dd)" d="M 302.10816 227.385153 
L 348.77184 227.385153 
L 348.77184 209.870447 
L 302.10816 209.870447 
L 302.10816 227.385153 
z
" style="fill:#0d3359;stroke:#1f1f1f;stroke-linejoin:miter;stroke-width:1.5;"/>
   </g>
   <g id="patch_8">
    <path clip-path="url(#p1a603db5dd)" d="M 349.72416 216.143004 
L 396.38784 216.143004 
L 396.38784 202.599597 
L 349.72416 202.599597 
L 349.72416 216.143004 
z
" style="fill:#2080df;stroke:#1f1f1f;stroke-linejoin:miter;stroke-width:1.5;"/>
   </g>
   <g id="patch_9">
    <path clip-path="url(#p1a603db5dd)" d="M 146.88 202.806269 
L 146.88 202.806269 
L 146.88 202.806269 
L 146.88 202.806269 
z
" style="fill:#79b2ec;stroke:#1f1f1f;stroke-linejoin:miter;stroke-width:0.75;"/>
   </g>
   <g id="patch_10">
    <path clip-path="url(#p1a603db5dd)" d="M 146.88 202.806269 
L 146.88 202.806269 
L 146.88 202.806269 
L 146.88 202.806269 
z
" style="fill:#0d3359;stroke:#1f1f1f;stroke-linejoin:miter;stroke-width:0.75;"/>
   </g>
   <g id="patch_11">
    <path clip-path="url(#p1a603db5dd)" d="M 146.88 202.806269 
L 146.88 202.806269 
L 146.88 202.806269 
L 146.88 202.806269 
z
" style="fill:#2080df;stroke:#1f1f1f;stroke-linejoin:miter;stroke-width:0.75;"/>
   </g>
   <g id="matplotlib.axis_1">
    <g id="xtick_1">
     <g id="line2d_1">
      <defs>
       <path d="M 0 4 
L 0 -4 
" id="m5d259813d7" style="stroke:#000000;stroke-width:3;"/>
      </defs>
      <g>
       <use style="stroke:#000000;stroke-width:3;" x="146.88" xlink:href="#m5d259813d7" y="307.584"/>
      </g>
     </g>
     <g id="text_1">
      <!-- pard3 -->
      <defs>
       <path d="M 18.109375 8.203125 
L 18.109375 -20.796875 
L 9.078125 -20.796875 
L 9.078125 54.6875 
L 18.109375 54.6875 
L 18.109375 46.390625 
Q 20.953125 51.265625 25.265625 53.625 
Q 29.59375 56 35.59375 56 
Q 45.5625 56 51.78125 48.09375 
Q 58.015625 40.1875 58.015625 27.296875 
Q 58.015625 14.40625 51.78125 6.484375 
Q 45.5625 -1.421875 35.59375 -1.421875 
Q 29.59375 -1.421875 25.265625 0.953125 
Q 20.953125 3.328125 18.109375 8.203125 
z
M 48.6875 27.296875 
Q 48.6875 37.203125 44.609375 42.84375 
Q 40.53125 48.484375 33.40625 48.484375 
Q 26.265625 48.484375 22.1875 42.84375 
Q 18.109375 37.203125 18.109375 27.296875 
Q 18.109375 17.390625 22.1875 11.75 
Q 26.265625 6.109375 33.40625 6.109375 
Q 40.53125 6.109375 44.609375 11.75 
Q 48.6875 17.390625 48.6875 27.296875 
z
" id="DejaVuSans-70"/>
       <path d="M 34.28125 27.484375 
Q 23.390625 27.484375 19.1875 25 
Q 14.984375 22.515625 14.984375 16.5 
Q 14.984375 11.71875 18.140625 8.90625 
Q 21.296875 6.109375 26.703125 6.109375 
Q 34.1875 6.109375 38.703125 11.40625 
Q 43.21875 16.703125 43.21875 25.484375 
L 43.21875 27.484375 
z
M 52.203125 31.203125 
L 52.203125 0 
L 43.21875 0 
L 43.21875 8.296875 
Q 40.140625 3.328125 35.546875 0.953125 
Q 30.953125 -1.421875 24.3125 -1.421875 
Q 15.921875 -1.421875 10.953125 3.296875 
Q 6 8.015625 6 15.921875 
Q 6 25.140625 12.171875 29.828125 
Q 18.359375 34.515625 30.609375 34.515625 
L 43.21875 34.515625 
L 43.21875 35.40625 
Q 43.21875 41.609375 39.140625 45 
Q 35.0625 48.390625 27.6875 48.390625 
Q 23 48.390625 18.546875 47.265625 
Q 14.109375 46.140625 10.015625 43.890625 
L 10.015625 52.203125 
Q 14.9375 54.109375 19.578125 55.046875 
Q 24.21875 56 28.609375 56 
Q 40.484375 56 46.34375 49.84375 
Q 52.203125 43.703125 52.203125 31.203125 
z
" id="DejaVuSans-61"/>
       <path d="M 41.109375 46.296875 
Q 39.59375 47.171875 37.8125 47.578125 
Q 36.03125 48 33.890625 48 
Q 26.265625 48 22.1875 43.046875 
Q 18.109375 38.09375 18.109375 28.8125 
L 18.109375 0 
L 9.078125 0 
L 9.078125 54.6875 
L 18.109375 54.6875 
L 18.109375 46.1875 
Q 20.953125 51.171875 25.484375 53.578125 
Q 30.03125 56 36.53125 56 
Q 37.453125 56 38.578125 55.875 
Q 39.703125 55.765625 41.0625 55.515625 
z
" id="DejaVuSans-72"/>
       <path d="M 45.40625 46.390625 
L 45.40625 75.984375 
L 54.390625 75.984375 
L 54.390625 0 
L 45.40625 0 
L 45.40625 8.203125 
Q 42.578125 3.328125 38.25 0.953125 
Q 33.9375 -1.421875 27.875 -1.421875 
Q 17.96875 -1.421875 11.734375 6.484375 
Q 5.515625 14.40625 5.515625 27.296875 
Q 5.515625 40.1875 11.734375 48.09375 
Q 17.96875 56 27.875 56 
Q 33.9375 56 38.25 53.625 
Q 42.578125 51.265625 45.40625 46.390625 
z
M 14.796875 27.296875 
Q 14.796875 17.390625 18.875 11.75 
Q 22.953125 6.109375 30.078125 6.109375 
Q 37.203125 6.109375 41.296875 11.75 
Q 45.40625 17.390625 45.40625 27.296875 
Q 45.40625 37.203125 41.296875 42.84375 
Q 37.203125 48.484375 30.078125 48.484375 
Q 22.953125 48.484375 18.875 42.84375 
Q 14.796875 37.203125 14.796875 27.296875 
z
" id="DejaVuSans-64"/>
       <path d="M 40.578125 39.3125 
Q 47.65625 37.796875 51.625 33 
Q 55.609375 28.21875 55.609375 21.1875 
Q 55.609375 10.40625 48.1875 4.484375 
Q 40.765625 -1.421875 27.09375 -1.421875 
Q 22.515625 -1.421875 17.65625 -0.515625 
Q 12.796875 0.390625 7.625 2.203125 
L 7.625 11.71875 
Q 11.71875 9.328125 16.59375 8.109375 
Q 21.484375 6.890625 26.8125 6.890625 
Q 36.078125 6.890625 40.9375 10.546875 
Q 45.796875 14.203125 45.796875 21.1875 
Q 45.796875 27.640625 41.28125 31.265625 
Q 36.765625 34.90625 28.71875 34.90625 
L 20.21875 34.90625 
L 20.21875 43.015625 
L 29.109375 43.015625 
Q 36.375 43.015625 40.234375 45.921875 
Q 44.09375 48.828125 44.09375 54.296875 
Q 44.09375 59.90625 40.109375 62.90625 
Q 36.140625 65.921875 28.71875 65.921875 
Q 24.65625 65.921875 20.015625 65.03125 
Q 15.375 64.15625 9.8125 62.3125 
L 9.8125 71.09375 
Q 15.4375 72.65625 20.34375 73.4375 
Q 25.25 74.21875 29.59375 74.21875 
Q 40.828125 74.21875 47.359375 69.109375 
Q 53.90625 64.015625 53.90625 55.328125 
Q 53.90625 49.265625 50.4375 45.09375 
Q 46.96875 40.921875 40.578125 39.3125 
z
" id="DejaVuSans-33"/>
      </defs>
      <g transform="translate(132.231562 322.682437)scale(0.1 -0.1)">
       <use xlink:href="#DejaVuSans-70"/>
       <use x="63.476562" xlink:href="#DejaVuSans-61"/>
       <use x="124.755859" xlink:href="#DejaVuSans-72"/>
       <use x="165.853516" xlink:href="#DejaVuSans-64"/>
       <use x="229.330078" xlink:href="#DejaVuSans-33"/>
      </g>
     </g>
    </g>
    <g id="xtick_2">
     <g id="line2d_2">
      <g>
       <use style="stroke:#000000;stroke-width:3;" x="325.44" xlink:href="#m5d259813d7" y="307.584"/>
      </g>
     </g>
     <g id="text_2">
      <!-- pard3_nocodazole -->
      <defs>
       <path d="M 50.984375 -16.609375 
L 50.984375 -23.578125 
L -0.984375 -23.578125 
L -0.984375 -16.609375 
z
" id="DejaVuSans-5f"/>
       <path d="M 54.890625 33.015625 
L 54.890625 0 
L 45.90625 0 
L 45.90625 32.71875 
Q 45.90625 40.484375 42.875 44.328125 
Q 39.84375 48.1875 33.796875 48.1875 
Q 26.515625 48.1875 22.3125 43.546875 
Q 18.109375 38.921875 18.109375 30.90625 
L 18.109375 0 
L 9.078125 0 
L 9.078125 54.6875 
L 18.109375 54.6875 
L 18.109375 46.1875 
Q 21.34375 51.125 25.703125 53.5625 
Q 30.078125 56 35.796875 56 
Q 45.21875 56 50.046875 50.171875 
Q 54.890625 44.34375 54.890625 33.015625 
z
" id="DejaVuSans-6e"/>
       <path d="M 30.609375 48.390625 
Q 23.390625 48.390625 19.1875 42.75 
Q 14.984375 37.109375 14.984375 27.296875 
Q 14.984375 17.484375 19.15625 11.84375 
Q 23.34375 6.203125 30.609375 6.203125 
Q 37.796875 6.203125 41.984375 11.859375 
Q 46.1875 17.53125 46.1875 27.296875 
Q 46.1875 37.015625 41.984375 42.703125 
Q 37.796875 48.390625 30.609375 48.390625 
z
M 30.609375 56 
Q 42.328125 56 49.015625 48.375 
Q 55.71875 40.765625 55.71875 27.296875 
Q 55.71875 13.875 49.015625 6.21875 
Q 42.328125 -1.421875 30.609375 -1.421875 
Q 18.84375 -1.421875 12.171875 6.21875 
Q 5.515625 13.875 5.515625 27.296875 
Q 5.515625 40.765625 12.171875 48.375 
Q 18.84375 56 30.609375 56 
z
" id="DejaVuSans-6f"/>
       <path d="M 48.78125 52.59375 
L 48.78125 44.1875 
Q 44.96875 46.296875 41.140625 47.34375 
Q 37.3125 48.390625 33.40625 48.390625 
Q 24.65625 48.390625 19.8125 42.84375 
Q 14.984375 37.3125 14.984375 27.296875 
Q 14.984375 17.28125 19.8125 11.734375 
Q 24.65625 6.203125 33.40625 6.203125 
Q 37.3125 6.203125 41.140625 7.25 
Q 44.96875 8.296875 48.78125 10.40625 
L 48.78125 2.09375 
Q 45.015625 0.34375 40.984375 -0.53125 
Q 36.96875 -1.421875 32.421875 -1.421875 
Q 20.0625 -1.421875 12.78125 6.34375 
Q 5.515625 14.109375 5.515625 27.296875 
Q 5.515625 40.671875 12.859375 48.328125 
Q 20.21875 56 33.015625 56 
Q 37.15625 56 41.109375 55.140625 
Q 45.0625 54.296875 48.78125 52.59375 
z
" id="DejaVuSans-63"/>
       <path d="M 5.515625 54.6875 
L 48.1875 54.6875 
L 48.1875 46.484375 
L 14.40625 7.171875 
L 48.1875 7.171875 
L 48.1875 0 
L 4.296875 0 
L 4.296875 8.203125 
L 38.09375 47.515625 
L 5.515625 47.515625 
z
" id="DejaVuSans-7a"/>
       <path d="M 9.421875 75.984375 
L 18.40625 75.984375 
L 18.40625 0 
L 9.421875 0 
z
" id="DejaVuSans-6c"/>
       <path d="M 56.203125 29.59375 
L 56.203125 25.203125 
L 14.890625 25.203125 
Q 15.484375 15.921875 20.484375 11.0625 
Q 25.484375 6.203125 34.421875 6.203125 
Q 39.59375 6.203125 44.453125 7.46875 
Q 49.3125 8.734375 54.109375 11.28125 
L 54.109375 2.78125 
Q 49.265625 0.734375 44.1875 -0.34375 
Q 39.109375 -1.421875 33.890625 -1.421875 
Q 20.796875 -1.421875 13.15625 6.1875 
Q 5.515625 13.8125 5.515625 26.8125 
Q 5.515625 40.234375 12.765625 48.109375 
Q 20.015625 56 32.328125 56 
Q 43.359375 56 49.78125 48.890625 
Q 56.203125 41.796875 56.203125 29.59375 
z
M 47.21875 32.234375 
Q 47.125 39.59375 43.09375 43.984375 
Q 39.0625 48.390625 32.421875 48.390625 
Q 24.90625 48.390625 20.390625 44.140625 
Q 15.875 39.890625 15.1875 32.171875 
z
" id="DejaVuSans-65"/>
      </defs>
      <g transform="translate(279.867344 322.682437)scale(0.1 -0.1)">
       <use xlink:href="#DejaVuSans-70"/>
       <use x="63.476562" xlink:href="#DejaVuSans-61"/>
       <use x="124.755859" xlink:href="#DejaVuSans-72"/>
       <use x="165.853516" xlink:href="#DejaVuSans-64"/>
       <use x="229.330078" xlink:href="#DejaVuSans-33"/>
       <use x="292.953125" xlink:href="#DejaVuSans-5f"/>
       <use x="342.953125" xlink:href="#DejaVuSans-6e"/>
       <use x="406.332031" xlink:href="#DejaVuSans-6f"/>
       <use x="467.513672" xlink:href="#DejaVuSans-63"/>
       <use x="522.494141" xlink:href="#DejaVuSans-6f"/>
       <use x="583.675781" xlink:href="#DejaVuSans-64"/>
       <use x="647.152344" xlink:href="#DejaVuSans-61"/>
       <use x="708.431641" xlink:href="#DejaVuSans-7a"/>
       <use x="760.921875" xlink:href="#DejaVuSans-6f"/>
       <use x="822.103516" xlink:href="#DejaVuSans-6c"/>
       <use x="849.886719" xlink:href="#DejaVuSans-65"/>
      </g>
     </g>
    </g>
   </g>
   <g id="matplotlib.axis_2">
    <g id="ytick_1">
     <g id="line2d_3">
      <path clip-path="url(#p1a603db5dd)" d="M 57.6 305.495591 
L 414.72 305.495591 
" style="fill:none;stroke:#000000;stroke-linecap:square;stroke-width:0.25;"/>
     </g>
     <g id="line2d_4">
      <defs>
       <path d="M 4 0 
L -4 -0 
" id="m614264dbd8" style="stroke:#000000;stroke-width:3;"/>
      </defs>
      <g>
       <use style="stroke:#000000;stroke-width:3;" x="57.6" xlink:href="#m614264dbd8" y="305.495591"/>
      </g>
     </g>
     <g id="text_3">
      <!-- −1.5 -->
      <defs>
       <path d="M 10.59375 35.5 
L 73.1875 35.5 
L 73.1875 27.203125 
L 10.59375 27.203125 
z
" id="DejaVuSans-2212"/>
       <path d="M 12.40625 8.296875 
L 28.515625 8.296875 
L 28.515625 63.921875 
L 10.984375 60.40625 
L 10.984375 69.390625 
L 28.421875 72.90625 
L 38.28125 72.90625 
L 38.28125 8.296875 
L 54.390625 8.296875 
L 54.390625 0 
L 12.40625 0 
z
" id="DejaVuSans-31"/>
       <path d="M 10.6875 12.40625 
L 21 12.40625 
L 21 0 
L 10.6875 0 
z
" id="DejaVuSans-2e"/>
       <path d="M 10.796875 72.90625 
L 49.515625 72.90625 
L 49.515625 64.59375 
L 19.828125 64.59375 
L 19.828125 46.734375 
Q 21.96875 47.46875 24.109375 47.828125 
Q 26.265625 48.1875 28.421875 48.1875 
Q 40.625 48.1875 47.75 41.5 
Q 54.890625 34.8125 54.890625 23.390625 
Q 54.890625 11.625 47.5625 5.09375 
Q 40.234375 -1.421875 26.90625 -1.421875 
Q 22.3125 -1.421875 17.546875 -0.640625 
Q 12.796875 0.140625 7.71875 1.703125 
L 7.71875 11.625 
Q 12.109375 9.234375 16.796875 8.0625 
Q 21.484375 6.890625 26.703125 6.890625 
Q 35.15625 6.890625 40.078125 11.328125 
Q 45.015625 15.765625 45.015625 23.390625 
Q 45.015625 31 40.078125 35.4375 
Q 35.15625 39.890625 26.703125 39.890625 
Q 22.75 39.890625 18.8125 39.015625 
Q 14.890625 38.140625 10.796875 36.28125 
z
" id="DejaVuSans-35"/>
      </defs>
      <g transform="translate(-10.607031 314.993638)scale(0.25 -0.25)">
       <use xlink:href="#DejaVuSans-2212"/>
       <use x="83.789062" xlink:href="#DejaVuSans-31"/>
       <use x="147.412109" xlink:href="#DejaVuSans-2e"/>
       <use x="179.199219" xlink:href="#DejaVuSans-35"/>
      </g>
     </g>
    </g>
    <g id="ytick_2">
     <g id="line2d_5">
      <path clip-path="url(#p1a603db5dd)" d="M 57.6 271.265817 
L 414.72 271.265817 
" style="fill:none;stroke:#000000;stroke-linecap:square;stroke-width:0.25;"/>
     </g>
     <g id="line2d_6">
      <g>
       <use style="stroke:#000000;stroke-width:3;" x="57.6" xlink:href="#m614264dbd8" y="271.265817"/>
      </g>
     </g>
     <g id="text_4">
      <!-- −1.0 -->
      <defs>
       <path d="M 31.78125 66.40625 
Q 24.171875 66.40625 20.328125 58.90625 
Q 16.5 51.421875 16.5 36.375 
Q 16.5 21.390625 20.328125 13.890625 
Q 24.171875 6.390625 31.78125 6.390625 
Q 39.453125 6.390625 43.28125 13.890625 
Q 47.125 21.390625 47.125 36.375 
Q 47.125 51.421875 43.28125 58.90625 
Q 39.453125 66.40625 31.78125 66.40625 
z
M 31.78125 74.21875 
Q 44.046875 74.21875 50.515625 64.515625 
Q 56.984375 54.828125 56.984375 36.375 
Q 56.984375 17.96875 50.515625 8.265625 
Q 44.046875 -1.421875 31.78125 -1.421875 
Q 19.53125 -1.421875 13.0625 8.265625 
Q 6.59375 17.96875 6.59375 36.375 
Q 6.59375 54.828125 13.0625 64.515625 
Q 19.53125 74.21875 31.78125 74.21875 
z
" id="DejaVuSans-30"/>
      </defs>
      <g transform="translate(-10.607031 280.763864)scale(0.25 -0.25)">
       <use xlink:href="#DejaVuSans-2212"/>
       <use x="83.789062" xlink:href="#DejaVuSans-31"/>
       <use x="147.412109" xlink:href="#DejaVuSans-2e"/>
       <use x="179.199219" xlink:href="#DejaVuSans-30"/>
      </g>
     </g>
    </g>
    <g id="ytick_3">
     <g id="line2d_7">
      <path clip-path="url(#p1a603db5dd)" d="M 57.6 237.036043 
L 414.72 237.036043 
" style="fill:none;stroke:#000000;stroke-linecap:square;stroke-width:0.25;"/>
     </g>
     <g id="line2d_8">
      <g>
       <use style="stroke:#000000;stroke-width:3;" x="57.6" xlink:href="#m614264dbd8" y="237.036043"/>
      </g>
     </g>
     <g id="text_5">
      <!-- −0.5 -->
      <g transform="translate(-10.607031 246.53409)scale(0.25 -0.25)">
       <use xlink:href="#DejaVuSans-2212"/>
       <use x="83.789062" xlink:href="#DejaVuSans-30"/>
       <use x="147.412109" xlink:href="#DejaVuSans-2e"/>
       <use x="179.199219" xlink:href="#DejaVuSans-35"/>
      </g>
     </g>
    </g>
    <g id="ytick_4">
     <g id="line2d_9">
      <path clip-path="url(#p1a603db5dd)" d="M 57.6 202.806269 
L 414.72 202.806269 
" style="fill:none;stroke:#000000;stroke-linecap:square;stroke-width:0.25;"/>
     </g>
     <g id="line2d_10">
      <g>
       <use style="stroke:#000000;stroke-width:3;" x="57.6" xlink:href="#m614264dbd8" y="202.806269"/>
      </g>
     </g>
     <g id="text_6">
      <!-- 0.0 -->
      <g transform="translate(10.342188 212.304316)scale(0.25 -0.25)">
       <use xlink:href="#DejaVuSans-30"/>
       <use x="63.623047" xlink:href="#DejaVuSans-2e"/>
       <use x="95.410156" xlink:href="#DejaVuSans-30"/>
      </g>
     </g>
    </g>
    <g id="ytick_5">
     <g id="line2d_11">
      <path clip-path="url(#p1a603db5dd)" d="M 57.6 168.576496 
L 414.72 168.576496 
" style="fill:none;stroke:#000000;stroke-linecap:square;stroke-width:0.25;"/>
     </g>
     <g id="line2d_12">
      <g>
       <use style="stroke:#000000;stroke-width:3;" x="57.6" xlink:href="#m614264dbd8" y="168.576496"/>
      </g>
     </g>
     <g id="text_7">
      <!-- 0.5 -->
      <g transform="translate(10.342188 178.074542)scale(0.25 -0.25)">
       <use xlink:href="#DejaVuSans-30"/>
       <use x="63.623047" xlink:href="#DejaVuSans-2e"/>
       <use x="95.410156" xlink:href="#DejaVuSans-35"/>
      </g>
     </g>
    </g>
    <g id="ytick_6">
     <g id="line2d_13">
      <path clip-path="url(#p1a603db5dd)" d="M 57.6 134.346722 
L 414.72 134.346722 
" style="fill:none;stroke:#000000;stroke-linecap:square;stroke-width:0.25;"/>
     </g>
     <g id="line2d_14">
      <g>
       <use style="stroke:#000000;stroke-width:3;" x="57.6" xlink:href="#m614264dbd8" y="134.346722"/>
      </g>
     </g>
     <g id="text_8">
      <!-- 1.0 -->
      <g transform="translate(10.342188 143.844769)scale(0.25 -0.25)">
       <use xlink:href="#DejaVuSans-31"/>
       <use x="63.623047" xlink:href="#DejaVuSans-2e"/>
       <use x="95.410156" xlink:href="#DejaVuSans-30"/>
      </g>
     </g>
    </g>
    <g id="ytick_7">
     <g id="line2d_15">
      <path clip-path="url(#p1a603db5dd)" d="M 57.6 100.116948 
L 414.72 100.116948 
" style="fill:none;stroke:#000000;stroke-linecap:square;stroke-width:0.25;"/>
     </g>
     <g id="line2d_16">
      <g>
       <use style="stroke:#000000;stroke-width:3;" x="57.6" xlink:href="#m614264dbd8" y="100.116948"/>
      </g>
     </g>
     <g id="text_9">
      <!-- 1.5 -->
      <g transform="translate(10.342188 109.614995)scale(0.25 -0.25)">
       <use xlink:href="#DejaVuSans-31"/>
       <use x="63.623047" xlink:href="#DejaVuSans-2e"/>
       <use x="95.410156" xlink:href="#DejaVuSans-35"/>
      </g>
     </g>
    </g>
    <g id="ytick_8">
     <g id="line2d_17">
      <path clip-path="url(#p1a603db5dd)" d="M 57.6 65.887174 
L 414.72 65.887174 
" style="fill:none;stroke:#000000;stroke-linecap:square;stroke-width:0.25;"/>
     </g>
     <g id="line2d_18">
      <g>
       <use style="stroke:#000000;stroke-width:3;" x="57.6" xlink:href="#m614264dbd8" y="65.887174"/>
      </g>
     </g>
     <g id="text_10">
      <!-- 2.0 -->
      <defs>
       <path d="M 19.1875 8.296875 
L 53.609375 8.296875 
L 53.609375 0 
L 7.328125 0 
L 7.328125 8.296875 
Q 12.9375 14.109375 22.625 23.890625 
Q 32.328125 33.6875 34.8125 36.53125 
Q 39.546875 41.84375 41.421875 45.53125 
Q 43.3125 49.21875 43.3125 52.78125 
Q 43.3125 58.59375 39.234375 62.25 
Q 35.15625 65.921875 28.609375 65.921875 
Q 23.96875 65.921875 18.8125 64.3125 
Q 13.671875 62.703125 7.8125 59.421875 
L 7.8125 69.390625 
Q 13.765625 71.78125 18.9375 73 
Q 24.125 74.21875 28.421875 74.21875 
Q 39.75 74.21875 46.484375 68.546875 
Q 53.21875 62.890625 53.21875 53.421875 
Q 53.21875 48.921875 51.53125 44.890625 
Q 49.859375 40.875 45.40625 35.40625 
Q 44.1875 33.984375 37.640625 27.21875 
Q 31.109375 20.453125 19.1875 8.296875 
z
" id="DejaVuSans-32"/>
      </defs>
      <g transform="translate(10.342188 75.385221)scale(0.25 -0.25)">
       <use xlink:href="#DejaVuSans-32"/>
       <use x="63.623047" xlink:href="#DejaVuSans-2e"/>
       <use x="95.410156" xlink:href="#DejaVuSans-30"/>
      </g>
     </g>
    </g>
   </g>
   <g id="line2d_19">
    <path clip-path="url(#p1a603db5dd)" d="M 99.264 226.545482 
L 99.264 265.626512 
" style="fill:none;stroke:#1f1f1f;stroke-linecap:square;stroke-width:1.5;"/>
   </g>
   <g id="line2d_20">
    <path clip-path="url(#p1a603db5dd)" d="M 99.264 198.0745 
L 99.264 189.569018 
" style="fill:none;stroke:#1f1f1f;stroke-linecap:square;stroke-width:1.5;"/>
   </g>
   <g id="line2d_21">
    <path clip-path="url(#p1a603db5dd)" d="M 87.59808 265.626512 
L 110.92992 265.626512 
" style="fill:none;stroke:#1f1f1f;stroke-linecap:square;stroke-width:1.5;"/>
   </g>
   <g id="line2d_22">
    <path clip-path="url(#p1a603db5dd)" d="M 87.59808 189.569018 
L 110.92992 189.569018 
" style="fill:none;stroke:#1f1f1f;stroke-linecap:square;stroke-width:1.5;"/>
   </g>
   <g id="line2d_23">
    <defs>
     <path d="M -0 3.535534 
L 2.12132 0 
L -0 -3.535534 
L -2.12132 -0 
z
" id="mef1907c05c" style="stroke:#1f1f1f;stroke-linejoin:miter;"/>
    </defs>
    <g clip-path="url(#p1a603db5dd)">
     <use style="fill:#1f1f1f;stroke:#1f1f1f;stroke-linejoin:miter;" x="99.264" xlink:href="#mef1907c05c" y="109.801787"/>
     <use style="fill:#1f1f1f;stroke:#1f1f1f;stroke-linejoin:miter;" x="99.264" xlink:href="#mef1907c05c" y="58.236285"/>
     <use style="fill:#1f1f1f;stroke:#1f1f1f;stroke-linejoin:miter;" x="99.264" xlink:href="#mef1907c05c" y="64.237263"/>
     <use style="fill:#1f1f1f;stroke:#1f1f1f;stroke-linejoin:miter;" x="99.264" xlink:href="#mef1907c05c" y="82.443809"/>
    </g>
   </g>
   <g id="line2d_24">
    <path clip-path="url(#p1a603db5dd)" d="M 146.88 236.964443 
L 146.88 270.14583 
" style="fill:none;stroke:#1f1f1f;stroke-linecap:square;stroke-width:1.5;"/>
   </g>
   <g id="line2d_25">
    <path clip-path="url(#p1a603db5dd)" d="M 146.88 198.849448 
L 146.88 161.947399 
" style="fill:none;stroke:#1f1f1f;stroke-linecap:square;stroke-width:1.5;"/>
   </g>
   <g id="line2d_26">
    <path clip-path="url(#p1a603db5dd)" d="M 135.21408 270.14583 
L 158.54592 270.14583 
" style="fill:none;stroke:#1f1f1f;stroke-linecap:square;stroke-width:1.5;"/>
   </g>
   <g id="line2d_27">
    <path clip-path="url(#p1a603db5dd)" d="M 135.21408 161.947399 
L 158.54592 161.947399 
" style="fill:none;stroke:#1f1f1f;stroke-linecap:square;stroke-width:1.5;"/>
   </g>
   <g id="line2d_28">
    <g clip-path="url(#p1a603db5dd)">
     <use style="fill:#1f1f1f;stroke:#1f1f1f;stroke-linejoin:miter;" x="146.88" xlink:href="#mef1907c05c" y="295.488"/>
     <use style="fill:#1f1f1f;stroke:#1f1f1f;stroke-linejoin:miter;" x="146.88" xlink:href="#mef1907c05c" y="102.177808"/>
     <use style="fill:#1f1f1f;stroke:#1f1f1f;stroke-linejoin:miter;" x="146.88" xlink:href="#mef1907c05c" y="138.664816"/>
     <use style="fill:#1f1f1f;stroke:#1f1f1f;stroke-linejoin:miter;" x="146.88" xlink:href="#mef1907c05c" y="112.701201"/>
     <use style="fill:#1f1f1f;stroke:#1f1f1f;stroke-linejoin:miter;" x="146.88" xlink:href="#mef1907c05c" y="129.750858"/>
     <use style="fill:#1f1f1f;stroke:#1f1f1f;stroke-linejoin:miter;" x="146.88" xlink:href="#mef1907c05c" y="120.533701"/>
     <use style="fill:#1f1f1f;stroke:#1f1f1f;stroke-linejoin:miter;" x="146.88" xlink:href="#mef1907c05c" y="106.658162"/>
     <use style="fill:#1f1f1f;stroke:#1f1f1f;stroke-linejoin:miter;" x="146.88" xlink:href="#mef1907c05c" y="53.568"/>
     <use style="fill:#1f1f1f;stroke:#1f1f1f;stroke-linejoin:miter;" x="146.88" xlink:href="#mef1907c05c" y="129.357331"/>
    </g>
   </g>
   <g id="line2d_29">
    <path clip-path="url(#p1a603db5dd)" d="M 194.496 211.612153 
L 194.496 226.610411 
" style="fill:none;stroke:#1f1f1f;stroke-linecap:square;stroke-width:1.5;"/>
   </g>
   <g id="line2d_30">
    <path clip-path="url(#p1a603db5dd)" d="M 194.496 196.235052 
L 194.496 189.569018 
" style="fill:none;stroke:#1f1f1f;stroke-linecap:square;stroke-width:1.5;"/>
   </g>
   <g id="line2d_31">
    <path clip-path="url(#p1a603db5dd)" d="M 182.83008 226.610411 
L 206.16192 226.610411 
" style="fill:none;stroke:#1f1f1f;stroke-linecap:square;stroke-width:1.5;"/>
   </g>
   <g id="line2d_32">
    <path clip-path="url(#p1a603db5dd)" d="M 182.83008 189.569018 
L 206.16192 189.569018 
" style="fill:none;stroke:#1f1f1f;stroke-linecap:square;stroke-width:1.5;"/>
   </g>
   <g id="line2d_33">
    <g clip-path="url(#p1a603db5dd)">
     <use style="fill:#1f1f1f;stroke:#1f1f1f;stroke-linejoin:miter;" x="194.496" xlink:href="#mef1907c05c" y="265.626512"/>
     <use style="fill:#1f1f1f;stroke:#1f1f1f;stroke-linejoin:miter;" x="194.496" xlink:href="#mef1907c05c" y="64.237263"/>
    </g>
   </g>
   <g id="line2d_34">
    <path clip-path="url(#p1a603db5dd)" d="M 277.824 216.662138 
L 277.824 223.6809 
" style="fill:none;stroke:#1f1f1f;stroke-linecap:square;stroke-width:1.5;"/>
   </g>
   <g id="line2d_35">
    <path clip-path="url(#p1a603db5dd)" d="M 277.824 205.621959 
L 277.824 193.992485 
" style="fill:none;stroke:#1f1f1f;stroke-linecap:square;stroke-width:1.5;"/>
   </g>
   <g id="line2d_36">
    <path clip-path="url(#p1a603db5dd)" d="M 266.15808 223.6809 
L 289.48992 223.6809 
" style="fill:none;stroke:#1f1f1f;stroke-linecap:square;stroke-width:1.5;"/>
   </g>
   <g id="line2d_37">
    <path clip-path="url(#p1a603db5dd)" d="M 266.15808 193.992485 
L 289.48992 193.992485 
" style="fill:none;stroke:#1f1f1f;stroke-linecap:square;stroke-width:1.5;"/>
   </g>
   <g id="line2d_38">
    <g clip-path="url(#p1a603db5dd)">
     <use style="fill:#1f1f1f;stroke:#1f1f1f;stroke-linejoin:miter;" x="277.824" xlink:href="#mef1907c05c" y="185.341065"/>
    </g>
   </g>
   <g id="line2d_39">
    <path clip-path="url(#p1a603db5dd)" d="M 325.44 227.385153 
L 325.44 242.968842 
" style="fill:none;stroke:#1f1f1f;stroke-linecap:square;stroke-width:1.5;"/>
   </g>
   <g id="line2d_40">
    <path clip-path="url(#p1a603db5dd)" d="M 325.44 209.870447 
L 325.44 183.700459 
" style="fill:none;stroke:#1f1f1f;stroke-linecap:square;stroke-width:1.5;"/>
   </g>
   <g id="line2d_41">
    <path clip-path="url(#p1a603db5dd)" d="M 313.77408 242.968842 
L 337.10592 242.968842 
" style="fill:none;stroke:#1f1f1f;stroke-linecap:square;stroke-width:1.5;"/>
   </g>
   <g id="line2d_42">
    <path clip-path="url(#p1a603db5dd)" d="M 313.77408 183.700459 
L 337.10592 183.700459 
" style="fill:none;stroke:#1f1f1f;stroke-linecap:square;stroke-width:1.5;"/>
   </g>
   <g id="line2d_43">
    <g clip-path="url(#p1a603db5dd)">
     <use style="fill:#1f1f1f;stroke:#1f1f1f;stroke-linejoin:miter;" x="325.44" xlink:href="#mef1907c05c" y="171.726265"/>
    </g>
   </g>
   <g id="line2d_44">
    <path clip-path="url(#p1a603db5dd)" d="M 373.056 216.143004 
L 373.056 222.625946 
" style="fill:none;stroke:#1f1f1f;stroke-linecap:square;stroke-width:1.5;"/>
   </g>
   <g id="line2d_45">
    <path clip-path="url(#p1a603db5dd)" d="M 373.056 202.599597 
L 373.056 185.341065 
" style="fill:none;stroke:#1f1f1f;stroke-linecap:square;stroke-width:1.5;"/>
   </g>
   <g id="line2d_46">
    <path clip-path="url(#p1a603db5dd)" d="M 361.39008 222.625946 
L 384.72192 222.625946 
" style="fill:none;stroke:#1f1f1f;stroke-linecap:square;stroke-width:1.5;"/>
   </g>
   <g id="line2d_47">
    <path clip-path="url(#p1a603db5dd)" d="M 361.39008 185.341065 
L 384.72192 185.341065 
" style="fill:none;stroke:#1f1f1f;stroke-linecap:square;stroke-width:1.5;"/>
   </g>
   <g id="line2d_48"/>
   <g id="line2d_49">
    <path clip-path="url(#p1a603db5dd)" d="M 75.93216 210.263195 
L 122.59584 210.263195 
" style="fill:none;stroke:#1f1f1f;stroke-linecap:square;stroke-width:1.5;"/>
   </g>
   <g id="line2d_50">
    <path clip-path="url(#p1a603db5dd)" d="M 123.54816 217.009392 
L 170.21184 217.009392 
" style="fill:none;stroke:#1f1f1f;stroke-linecap:square;stroke-width:1.5;"/>
   </g>
   <g id="line2d_51">
    <path clip-path="url(#p1a603db5dd)" d="M 171.16416 205.941033 
L 217.82784 205.941033 
" style="fill:none;stroke:#1f1f1f;stroke-linecap:square;stroke-width:1.5;"/>
   </g>
   <g id="line2d_52">
    <path clip-path="url(#p1a603db5dd)" d="M 254.49216 210.205194 
L 301.15584 210.205194 
" style="fill:none;stroke:#1f1f1f;stroke-linecap:square;stroke-width:1.5;"/>
   </g>
   <g id="line2d_53">
    <path clip-path="url(#p1a603db5dd)" d="M 302.10816 218.652245 
L 348.77184 218.652245 
" style="fill:none;stroke:#1f1f1f;stroke-linecap:square;stroke-width:1.5;"/>
   </g>
   <g id="line2d_54">
    <path clip-path="url(#p1a603db5dd)" d="M 349.72416 210.382804 
L 396.38784 210.382804 
" style="fill:none;stroke:#1f1f1f;stroke-linecap:square;stroke-width:1.5;"/>
   </g>
   <g id="patch_12">
    <path d="M 57.6 307.584 
L 57.6 41.472 
" style="fill:none;stroke:#000000;stroke-linecap:square;stroke-linejoin:miter;stroke-width:0.8;"/>
   </g>
   <g id="patch_13">
    <path d="M 414.72 307.584 
L 414.72 41.472 
" style="fill:none;stroke:#000000;stroke-linecap:square;stroke-linejoin:miter;stroke-width:0.8;"/>
   </g>
   <g id="patch_14">
    <path d="M 57.6 307.584 
L 414.72 307.584 
" style="fill:none;stroke:#000000;stroke-linecap:square;stroke-linejoin:miter;stroke-width:0.8;"/>
   </g>
   <g id="patch_15">
    <path d="M 57.6 41.472 
L 414.72 41.472 
" style="fill:none;stroke:#000000;stroke-linecap:square;stroke-linejoin:miter;stroke-width:0.8;"/>
   </g>
  </g>
 </g>
 <defs>
  <clipPath id="p1a603db5dd">
   <rect height="266.112" width="357.12" x="57.6" y="41.472"/>
  </clipPath>
 </defs>
</svg>
