<?xml version="1.0" encoding="utf-8" standalone="no"?>
<!DOCTYPE svg PUBLIC "-//W3C//DTD SVG 1.1//EN"
  "http://www.w3.org/Graphics/SVG/1.1/DTD/svg11.dtd">
<!-- Created with matplotlib (http://matplotlib.org/) -->
<svg height="432pt" version="1.1" viewBox="0 0 576 432" width="576pt" xmlns="http://www.w3.org/2000/svg" xmlns:xlink="http://www.w3.org/1999/xlink">
 <defs>
  <style type="text/css">
*{stroke-linecap:butt;stroke-linejoin:round;stroke-miterlimit:100000;}
  </style>
 </defs>
 <g id="figure_1">
  <g id="patch_1">
   <path d="M 0 432 
L 576 432 
L 576 0 
L 0 0 
z
" style="fill:#ffffff;"/>
  </g>
  <g id="axes_1">
   <g id="patch_2">
    <path d="M 72 388.8 
L 518.4 388.8 
L 518.4 43.2 
L 72 43.2 
z
" style="fill:#ffffff;"/>
   </g>
   <g id="patch_3">
    <path clip-path="url(#p47c4f8c192)" d="M 94.9152 226.864225 
L 153.2448 226.864225 
L 153.2448 169.885873 
L 94.9152 169.885873 
L 94.9152 226.864225 
z
" style="fill:#79b2ec;stroke:#1f1f1f;stroke-linejoin:miter;"/>
   </g>
   <g id="patch_4">
    <path clip-path="url(#p47c4f8c192)" d="M 154.4352 259.587998 
L 212.7648 259.587998 
L 212.7648 184.329785 
L 154.4352 184.329785 
L 154.4352 259.587998 
z
" style="fill:#0d3359;stroke:#1f1f1f;stroke-linejoin:miter;"/>
   </g>
   <g id="patch_5">
    <path clip-path="url(#p47c4f8c192)" d="M 213.9552 233.798528 
L 272.2848 233.798528 
L 272.2848 190.428493 
L 213.9552 190.428493 
L 213.9552 233.798528 
z
" style="fill:#2080df;stroke:#1f1f1f;stroke-linejoin:miter;"/>
   </g>
   <g id="patch_6">
    <path clip-path="url(#p47c4f8c192)" d="M 318.1152 170.494134 
L 376.4448 170.494134 
L 376.4448 117.396234 
L 318.1152 117.396234 
L 318.1152 170.494134 
z
" style="fill:#79b2ec;stroke:#1f1f1f;stroke-linejoin:miter;"/>
   </g>
   <g id="patch_7">
    <path clip-path="url(#p47c4f8c192)" d="M 377.6352 186.547937 
L 435.9648 186.547937 
L 435.9648 113.759218 
L 377.6352 113.759218 
L 377.6352 186.547937 
z
" style="fill:#0d3359;stroke:#1f1f1f;stroke-linejoin:miter;"/>
   </g>
   <g id="patch_8">
    <path clip-path="url(#p47c4f8c192)" d="M 437.1552 170.494134 
L 495.4848 170.494134 
L 495.4848 137.01513 
L 437.1552 137.01513 
L 437.1552 170.494134 
z
" style="fill:#2080df;stroke:#1f1f1f;stroke-linejoin:miter;"/>
   </g>
   <g id="patch_9">
    <path clip-path="url(#p47c4f8c192)" d="M 183.6 77.76 
L 183.6 77.76 
L 183.6 77.76 
L 183.6 77.76 
z
" style="fill:#79b2ec;stroke:#1f1f1f;stroke-linejoin:miter;stroke-width:0.5;"/>
   </g>
   <g id="patch_10">
    <path clip-path="url(#p47c4f8c192)" d="M 183.6 77.76 
L 183.6 77.76 
L 183.6 77.76 
L 183.6 77.76 
z
" style="fill:#0d3359;stroke:#1f1f1f;stroke-linejoin:miter;stroke-width:0.5;"/>
   </g>
   <g id="patch_11">
    <path clip-path="url(#p47c4f8c192)" d="M 183.6 77.76 
L 183.6 77.76 
L 183.6 77.76 
L 183.6 77.76 
z
" style="fill:#2080df;stroke:#1f1f1f;stroke-linejoin:miter;stroke-width:0.5;"/>
   </g>
   <g id="line2d_1">
    <path clip-path="url(#p47c4f8c192)" d="M 124.08 226.864225 
L 124.08 309.558294 
" style="fill:none;stroke:#1f1f1f;stroke-linecap:square;"/>
   </g>
   <g id="line2d_2">
    <path clip-path="url(#p47c4f8c192)" d="M 124.08 169.885873 
L 124.08 133.669347 
" style="fill:none;stroke:#1f1f1f;stroke-linecap:square;"/>
   </g>
   <g id="line2d_3">
    <path clip-path="url(#p47c4f8c192)" d="M 109.4976 309.558294 
L 138.6624 309.558294 
" style="fill:none;stroke:#1f1f1f;stroke-linecap:square;"/>
   </g>
   <g id="line2d_4">
    <path clip-path="url(#p47c4f8c192)" d="M 109.4976 133.669347 
L 138.6624 133.669347 
" style="fill:none;stroke:#1f1f1f;stroke-linecap:square;"/>
   </g>
   <g id="line2d_5">
    <path clip-path="url(#p47c4f8c192)" d="M 94.9152 202.795636 
L 153.2448 202.795636 
" style="fill:none;stroke:#1f1f1f;stroke-linecap:square;"/>
   </g>
   <g id="line2d_6">
    <defs>
     <path d="M -0 3.535534 
L 2.12132 0 
L -0 -3.535534 
L -2.12132 -0 
z
" id="m45571925a8" style="stroke:#1f1f1f;stroke-linejoin:miter;stroke-width:0.5;"/>
    </defs>
    <g clip-path="url(#p47c4f8c192)">
     <use style="fill:#1f1f1f;stroke:#1f1f1f;stroke-linejoin:miter;stroke-width:0.5;" x="124.08" xlink:href="#m45571925a8" y="343.519328763"/>
     <use style="fill:#1f1f1f;stroke:#1f1f1f;stroke-linejoin:miter;stroke-width:0.5;" x="124.08" xlink:href="#m45571925a8" y="354.570194812"/>
    </g>
   </g>
   <g id="line2d_7">
    <path clip-path="url(#p47c4f8c192)" d="M 183.6 259.587998 
L 183.6 352.262735 
" style="fill:none;stroke:#1f1f1f;stroke-linecap:square;"/>
   </g>
   <g id="line2d_8">
    <path clip-path="url(#p47c4f8c192)" d="M 183.6 184.329785 
L 183.6 132.839676 
" style="fill:none;stroke:#1f1f1f;stroke-linecap:square;"/>
   </g>
   <g id="line2d_9">
    <path clip-path="url(#p47c4f8c192)" d="M 169.0176 352.262735 
L 198.1824 352.262735 
" style="fill:none;stroke:#1f1f1f;stroke-linecap:square;"/>
   </g>
   <g id="line2d_10">
    <path clip-path="url(#p47c4f8c192)" d="M 169.0176 132.839676 
L 198.1824 132.839676 
" style="fill:none;stroke:#1f1f1f;stroke-linecap:square;"/>
   </g>
   <g id="line2d_11">
    <path clip-path="url(#p47c4f8c192)" d="M 154.4352 220.92961 
L 212.7648 220.92961 
" style="fill:none;stroke:#1f1f1f;stroke-linecap:square;"/>
   </g>
   <g id="line2d_12">
    <g clip-path="url(#p47c4f8c192)">
     <use style="fill:#1f1f1f;stroke:#1f1f1f;stroke-linejoin:miter;stroke-width:0.5;" x="6.95306663959e-310" xlink:href="#m45571925a8" y="6.94414767657e-310"/>
    </g>
   </g>
   <g id="line2d_13">
    <path clip-path="url(#p47c4f8c192)" d="M 243.12 233.798528 
L 243.12 284.066713 
" style="fill:none;stroke:#1f1f1f;stroke-linecap:square;"/>
   </g>
   <g id="line2d_14">
    <path clip-path="url(#p47c4f8c192)" d="M 243.12 190.428493 
L 243.12 133.953563 
" style="fill:none;stroke:#1f1f1f;stroke-linecap:square;"/>
   </g>
   <g id="line2d_15">
    <path clip-path="url(#p47c4f8c192)" d="M 228.5376 284.066713 
L 257.7024 284.066713 
" style="fill:none;stroke:#1f1f1f;stroke-linecap:square;"/>
   </g>
   <g id="line2d_16">
    <path clip-path="url(#p47c4f8c192)" d="M 228.5376 133.953563 
L 257.7024 133.953563 
" style="fill:none;stroke:#1f1f1f;stroke-linecap:square;"/>
   </g>
   <g id="line2d_17">
    <path clip-path="url(#p47c4f8c192)" d="M 213.9552 213.088833 
L 272.2848 213.088833 
" style="fill:none;stroke:#1f1f1f;stroke-linecap:square;"/>
   </g>
   <g id="line2d_18">
    <g clip-path="url(#p47c4f8c192)">
     <use style="fill:#1f1f1f;stroke:#1f1f1f;stroke-linejoin:miter;stroke-width:0.5;" x="243.12" xlink:href="#m45571925a8" y="309.55829418"/>
     <use style="fill:#1f1f1f;stroke:#1f1f1f;stroke-linejoin:miter;stroke-width:0.5;" x="243.12" xlink:href="#m45571925a8" y="354.570194812"/>
    </g>
   </g>
   <g id="line2d_19">
    <path clip-path="url(#p47c4f8c192)" d="M 347.28 170.494134 
L 347.28 234.379106 
" style="fill:none;stroke:#1f1f1f;stroke-linecap:square;"/>
   </g>
   <g id="line2d_20">
    <path clip-path="url(#p47c4f8c192)" d="M 347.28 117.396234 
L 347.28 73.629046 
" style="fill:none;stroke:#1f1f1f;stroke-linecap:square;"/>
   </g>
   <g id="line2d_21">
    <path clip-path="url(#p47c4f8c192)" d="M 332.6976 234.379106 
L 361.8624 234.379106 
" style="fill:none;stroke:#1f1f1f;stroke-linecap:square;"/>
   </g>
   <g id="line2d_22">
    <path clip-path="url(#p47c4f8c192)" d="M 332.6976 73.629046 
L 361.8624 73.629046 
" style="fill:none;stroke:#1f1f1f;stroke-linecap:square;"/>
   </g>
   <g id="line2d_23">
    <path clip-path="url(#p47c4f8c192)" d="M 318.1152 144.620373 
L 376.4448 144.620373 
" style="fill:none;stroke:#1f1f1f;stroke-linecap:square;"/>
   </g>
   <g id="line2d_24"/>
   <g id="line2d_25">
    <path clip-path="url(#p47c4f8c192)" d="M 406.8 186.547937 
L 406.8 292.910565 
" style="fill:none;stroke:#1f1f1f;stroke-linecap:square;"/>
   </g>
   <g id="line2d_26">
    <path clip-path="url(#p47c4f8c192)" d="M 406.8 113.759218 
L 406.8 65.65633 
" style="fill:none;stroke:#1f1f1f;stroke-linecap:square;"/>
   </g>
   <g id="line2d_27">
    <path clip-path="url(#p47c4f8c192)" d="M 392.2176 292.910565 
L 421.3824 292.910565 
" style="fill:none;stroke:#1f1f1f;stroke-linecap:square;"/>
   </g>
   <g id="line2d_28">
    <path clip-path="url(#p47c4f8c192)" d="M 392.2176 65.65633 
L 421.3824 65.65633 
" style="fill:none;stroke:#1f1f1f;stroke-linecap:square;"/>
   </g>
   <g id="line2d_29">
    <path clip-path="url(#p47c4f8c192)" d="M 377.6352 148.07127 
L 435.9648 148.07127 
" style="fill:none;stroke:#1f1f1f;stroke-linecap:square;"/>
   </g>
   <g id="line2d_30">
    <g clip-path="url(#p47c4f8c192)">
     <use style="fill:#1f1f1f;stroke:#1f1f1f;stroke-linejoin:miter;stroke-width:0.5;" x="406.8" xlink:href="#m45571925a8" y="314.642567411"/>
    </g>
   </g>
   <g id="line2d_31">
    <path clip-path="url(#p47c4f8c192)" d="M 466.32 170.494134 
L 466.32 218.069708 
" style="fill:none;stroke:#1f1f1f;stroke-linecap:square;"/>
   </g>
   <g id="line2d_32">
    <path clip-path="url(#p47c4f8c192)" d="M 466.32 137.01513 
L 466.32 92.914295 
" style="fill:none;stroke:#1f1f1f;stroke-linecap:square;"/>
   </g>
   <g id="line2d_33">
    <path clip-path="url(#p47c4f8c192)" d="M 451.7376 218.069708 
L 480.9024 218.069708 
" style="fill:none;stroke:#1f1f1f;stroke-linecap:square;"/>
   </g>
   <g id="line2d_34">
    <path clip-path="url(#p47c4f8c192)" d="M 451.7376 92.914295 
L 480.9024 92.914295 
" style="fill:none;stroke:#1f1f1f;stroke-linecap:square;"/>
   </g>
   <g id="line2d_35">
    <path clip-path="url(#p47c4f8c192)" d="M 437.1552 148.316364 
L 495.4848 148.316364 
" style="fill:none;stroke:#1f1f1f;stroke-linecap:square;"/>
   </g>
   <g id="line2d_36">
    <g clip-path="url(#p47c4f8c192)">
     <use style="fill:#1f1f1f;stroke:#1f1f1f;stroke-linejoin:miter;stroke-width:0.5;" x="466.32" xlink:href="#m45571925a8" y="222.300702883"/>
     <use style="fill:#1f1f1f;stroke:#1f1f1f;stroke-linejoin:miter;stroke-width:0.5;" x="466.32" xlink:href="#m45571925a8" y="73.629046237"/>
    </g>
   </g>
   <g id="patch_12">
    <path d="M 72 43.2 
L 518.4 43.2 
" style="fill:none;stroke:#000000;stroke-linecap:square;stroke-linejoin:miter;"/>
   </g>
   <g id="patch_13">
    <path d="M 518.4 388.8 
L 518.4 43.2 
" style="fill:none;stroke:#000000;stroke-linecap:square;stroke-linejoin:miter;"/>
   </g>
   <g id="patch_14">
    <path d="M 72 388.8 
L 518.4 388.8 
" style="fill:none;stroke:#000000;stroke-linecap:square;stroke-linejoin:miter;"/>
   </g>
   <g id="patch_15">
    <path d="M 72 388.8 
L 72 43.2 
" style="fill:none;stroke:#000000;stroke-linecap:square;stroke-linejoin:miter;"/>
   </g>
   <g id="matplotlib.axis_1">
    <g id="xtick_1">
     <g id="line2d_37">
      <defs>
       <path d="M 0 4 
L 0 -4 
" id="m1f2b47a6d1" style="stroke:#000000;stroke-width:3.0;"/>
      </defs>
      <g>
       <use style="stroke:#000000;stroke-width:3.0;" x="183.6" xlink:href="#m1f2b47a6d1" y="388.8"/>
      </g>
     </g>
     <g id="text_1">
      <!-- arhgdia -->
      <defs>
       <path d="M 34.28125 27.484375 
Q 23.390625 27.484375 19.1875 25 
Q 14.984375 22.515625 14.984375 16.5 
Q 14.984375 11.71875 18.140625 8.90625 
Q 21.296875 6.109375 26.703125 6.109375 
Q 34.1875 6.109375 38.703125 11.40625 
Q 43.21875 16.703125 43.21875 25.484375 
L 43.21875 27.484375 
z
M 52.203125 31.203125 
L 52.203125 0 
L 43.21875 0 
L 43.21875 8.296875 
Q 40.140625 3.328125 35.546875 0.953125 
Q 30.953125 -1.421875 24.3125 -1.421875 
Q 15.921875 -1.421875 10.953125 3.296875 
Q 6 8.015625 6 15.921875 
Q 6 25.140625 12.171875 29.828125 
Q 18.359375 34.515625 30.609375 34.515625 
L 43.21875 34.515625 
L 43.21875 35.40625 
Q 43.21875 41.609375 39.140625 45 
Q 35.0625 48.390625 27.6875 48.390625 
Q 23 48.390625 18.546875 47.265625 
Q 14.109375 46.140625 10.015625 43.890625 
L 10.015625 52.203125 
Q 14.9375 54.109375 19.578125 55.046875 
Q 24.21875 56 28.609375 56 
Q 40.484375 56 46.34375 49.84375 
Q 52.203125 43.703125 52.203125 31.203125 
" id="BitstreamVeraSans-Roman-61"/>
       <path d="M 9.421875 54.6875 
L 18.40625 54.6875 
L 18.40625 0 
L 9.421875 0 
z
M 9.421875 75.984375 
L 18.40625 75.984375 
L 18.40625 64.59375 
L 9.421875 64.59375 
z
" id="BitstreamVeraSans-Roman-69"/>
       <path d="M 54.890625 33.015625 
L 54.890625 0 
L 45.90625 0 
L 45.90625 32.71875 
Q 45.90625 40.484375 42.875 44.328125 
Q 39.84375 48.1875 33.796875 48.1875 
Q 26.515625 48.1875 22.3125 43.546875 
Q 18.109375 38.921875 18.109375 30.90625 
L 18.109375 0 
L 9.078125 0 
L 9.078125 75.984375 
L 18.109375 75.984375 
L 18.109375 46.1875 
Q 21.34375 51.125 25.703125 53.5625 
Q 30.078125 56 35.796875 56 
Q 45.21875 56 50.046875 50.171875 
Q 54.890625 44.34375 54.890625 33.015625 
" id="BitstreamVeraSans-Roman-68"/>
       <path d="M 45.40625 46.390625 
L 45.40625 75.984375 
L 54.390625 75.984375 
L 54.390625 0 
L 45.40625 0 
L 45.40625 8.203125 
Q 42.578125 3.328125 38.25 0.953125 
Q 33.9375 -1.421875 27.875 -1.421875 
Q 17.96875 -1.421875 11.734375 6.484375 
Q 5.515625 14.40625 5.515625 27.296875 
Q 5.515625 40.1875 11.734375 48.09375 
Q 17.96875 56 27.875 56 
Q 33.9375 56 38.25 53.625 
Q 42.578125 51.265625 45.40625 46.390625 
M 14.796875 27.296875 
Q 14.796875 17.390625 18.875 11.75 
Q 22.953125 6.109375 30.078125 6.109375 
Q 37.203125 6.109375 41.296875 11.75 
Q 45.40625 17.390625 45.40625 27.296875 
Q 45.40625 37.203125 41.296875 42.84375 
Q 37.203125 48.484375 30.078125 48.484375 
Q 22.953125 48.484375 18.875 42.84375 
Q 14.796875 37.203125 14.796875 27.296875 
" id="BitstreamVeraSans-Roman-64"/>
       <path d="M 45.40625 27.984375 
Q 45.40625 37.75 41.375 43.109375 
Q 37.359375 48.484375 30.078125 48.484375 
Q 22.859375 48.484375 18.828125 43.109375 
Q 14.796875 37.75 14.796875 27.984375 
Q 14.796875 18.265625 18.828125 12.890625 
Q 22.859375 7.515625 30.078125 7.515625 
Q 37.359375 7.515625 41.375 12.890625 
Q 45.40625 18.265625 45.40625 27.984375 
M 54.390625 6.78125 
Q 54.390625 -7.171875 48.1875 -13.984375 
Q 42 -20.796875 29.203125 -20.796875 
Q 24.46875 -20.796875 20.265625 -20.09375 
Q 16.0625 -19.390625 12.109375 -17.921875 
L 12.109375 -9.1875 
Q 16.0625 -11.328125 19.921875 -12.34375 
Q 23.78125 -13.375 27.78125 -13.375 
Q 36.625 -13.375 41.015625 -8.765625 
Q 45.40625 -4.15625 45.40625 5.171875 
L 45.40625 9.625 
Q 42.625 4.78125 38.28125 2.390625 
Q 33.9375 0 27.875 0 
Q 17.828125 0 11.671875 7.65625 
Q 5.515625 15.328125 5.515625 27.984375 
Q 5.515625 40.671875 11.671875 48.328125 
Q 17.828125 56 27.875 56 
Q 33.9375 56 38.28125 53.609375 
Q 42.625 51.21875 45.40625 46.390625 
L 45.40625 54.6875 
L 54.390625 54.6875 
z
" id="BitstreamVeraSans-Roman-67"/>
       <path d="M 41.109375 46.296875 
Q 39.59375 47.171875 37.8125 47.578125 
Q 36.03125 48 33.890625 48 
Q 26.265625 48 22.1875 43.046875 
Q 18.109375 38.09375 18.109375 28.8125 
L 18.109375 0 
L 9.078125 0 
L 9.078125 54.6875 
L 18.109375 54.6875 
L 18.109375 46.1875 
Q 20.953125 51.171875 25.484375 53.578125 
Q 30.03125 56 36.53125 56 
Q 37.453125 56 38.578125 55.875 
Q 39.703125 55.765625 41.0625 55.515625 
z
" id="BitstreamVeraSans-Roman-72"/>
      </defs>
      <g transform="translate(160.693125 403.918125)scale(0.12 -0.12)">
       <use xlink:href="#BitstreamVeraSans-Roman-61"/>
       <use x="61.279296875" xlink:href="#BitstreamVeraSans-Roman-72"/>
       <use x="102.376953125" xlink:href="#BitstreamVeraSans-Roman-68"/>
       <use x="165.755859375" xlink:href="#BitstreamVeraSans-Roman-67"/>
       <use x="229.232421875" xlink:href="#BitstreamVeraSans-Roman-64"/>
       <use x="292.708984375" xlink:href="#BitstreamVeraSans-Roman-69"/>
       <use x="320.4921875" xlink:href="#BitstreamVeraSans-Roman-61"/>
      </g>
     </g>
    </g>
    <g id="xtick_2">
     <g id="line2d_38">
      <g>
       <use style="stroke:#000000;stroke-width:3.0;" x="406.8" xlink:href="#m1f2b47a6d1" y="388.8"/>
      </g>
     </g>
     <g id="text_2">
      <!-- arhgdia_nocodazole -->
      <defs>
       <path d="M 50.984375 -16.609375 
L 50.984375 -23.578125 
L -0.984375 -23.578125 
L -0.984375 -16.609375 
z
" id="BitstreamVeraSans-Roman-5f"/>
       <path d="M 54.890625 33.015625 
L 54.890625 0 
L 45.90625 0 
L 45.90625 32.71875 
Q 45.90625 40.484375 42.875 44.328125 
Q 39.84375 48.1875 33.796875 48.1875 
Q 26.515625 48.1875 22.3125 43.546875 
Q 18.109375 38.921875 18.109375 30.90625 
L 18.109375 0 
L 9.078125 0 
L 9.078125 54.6875 
L 18.109375 54.6875 
L 18.109375 46.1875 
Q 21.34375 51.125 25.703125 53.5625 
Q 30.078125 56 35.796875 56 
Q 45.21875 56 50.046875 50.171875 
Q 54.890625 44.34375 54.890625 33.015625 
" id="BitstreamVeraSans-Roman-6e"/>
       <path d="M 30.609375 48.390625 
Q 23.390625 48.390625 19.1875 42.75 
Q 14.984375 37.109375 14.984375 27.296875 
Q 14.984375 17.484375 19.15625 11.84375 
Q 23.34375 6.203125 30.609375 6.203125 
Q 37.796875 6.203125 41.984375 11.859375 
Q 46.1875 17.53125 46.1875 27.296875 
Q 46.1875 37.015625 41.984375 42.703125 
Q 37.796875 48.390625 30.609375 48.390625 
M 30.609375 56 
Q 42.328125 56 49.015625 48.375 
Q 55.71875 40.765625 55.71875 27.296875 
Q 55.71875 13.875 49.015625 6.21875 
Q 42.328125 -1.421875 30.609375 -1.421875 
Q 18.84375 -1.421875 12.171875 6.21875 
Q 5.515625 13.875 5.515625 27.296875 
Q 5.515625 40.765625 12.171875 48.375 
Q 18.84375 56 30.609375 56 
" id="BitstreamVeraSans-Roman-6f"/>
       <path d="M 9.421875 75.984375 
L 18.40625 75.984375 
L 18.40625 0 
L 9.421875 0 
z
" id="BitstreamVeraSans-Roman-6c"/>
       <path d="M 5.515625 54.6875 
L 48.1875 54.6875 
L 48.1875 46.484375 
L 14.40625 7.171875 
L 48.1875 7.171875 
L 48.1875 0 
L 4.296875 0 
L 4.296875 8.203125 
L 38.09375 47.515625 
L 5.515625 47.515625 
z
" id="BitstreamVeraSans-Roman-7a"/>
       <path d="M 56.203125 29.59375 
L 56.203125 25.203125 
L 14.890625 25.203125 
Q 15.484375 15.921875 20.484375 11.0625 
Q 25.484375 6.203125 34.421875 6.203125 
Q 39.59375 6.203125 44.453125 7.46875 
Q 49.3125 8.734375 54.109375 11.28125 
L 54.109375 2.78125 
Q 49.265625 0.734375 44.1875 -0.34375 
Q 39.109375 -1.421875 33.890625 -1.421875 
Q 20.796875 -1.421875 13.15625 6.1875 
Q 5.515625 13.8125 5.515625 26.8125 
Q 5.515625 40.234375 12.765625 48.109375 
Q 20.015625 56 32.328125 56 
Q 43.359375 56 49.78125 48.890625 
Q 56.203125 41.796875 56.203125 29.59375 
M 47.21875 32.234375 
Q 47.125 39.59375 43.09375 43.984375 
Q 39.0625 48.390625 32.421875 48.390625 
Q 24.90625 48.390625 20.390625 44.140625 
Q 15.875 39.890625 15.1875 32.171875 
z
" id="BitstreamVeraSans-Roman-65"/>
       <path d="M 48.78125 52.59375 
L 48.78125 44.1875 
Q 44.96875 46.296875 41.140625 47.34375 
Q 37.3125 48.390625 33.40625 48.390625 
Q 24.65625 48.390625 19.8125 42.84375 
Q 14.984375 37.3125 14.984375 27.296875 
Q 14.984375 17.28125 19.8125 11.734375 
Q 24.65625 6.203125 33.40625 6.203125 
Q 37.3125 6.203125 41.140625 7.25 
Q 44.96875 8.296875 48.78125 10.40625 
L 48.78125 2.09375 
Q 45.015625 0.34375 40.984375 -0.53125 
Q 36.96875 -1.421875 32.421875 -1.421875 
Q 20.0625 -1.421875 12.78125 6.34375 
Q 5.515625 14.109375 5.515625 27.296875 
Q 5.515625 40.671875 12.859375 48.328125 
Q 20.21875 56 33.015625 56 
Q 37.15625 56 41.109375 55.140625 
Q 45.0625 54.296875 48.78125 52.59375 
" id="BitstreamVeraSans-Roman-63"/>
      </defs>
      <g transform="translate(346.7840625 403.918125)scale(0.12 -0.12)">
       <use xlink:href="#BitstreamVeraSans-Roman-61"/>
       <use x="61.279296875" xlink:href="#BitstreamVeraSans-Roman-72"/>
       <use x="102.376953125" xlink:href="#BitstreamVeraSans-Roman-68"/>
       <use x="165.755859375" xlink:href="#BitstreamVeraSans-Roman-67"/>
       <use x="229.232421875" xlink:href="#BitstreamVeraSans-Roman-64"/>
       <use x="292.708984375" xlink:href="#BitstreamVeraSans-Roman-69"/>
       <use x="320.4921875" xlink:href="#BitstreamVeraSans-Roman-61"/>
       <use x="381.771484375" xlink:href="#BitstreamVeraSans-Roman-5f"/>
       <use x="431.771484375" xlink:href="#BitstreamVeraSans-Roman-6e"/>
       <use x="495.150390625" xlink:href="#BitstreamVeraSans-Roman-6f"/>
       <use x="556.33203125" xlink:href="#BitstreamVeraSans-Roman-63"/>
       <use x="611.3125" xlink:href="#BitstreamVeraSans-Roman-6f"/>
       <use x="672.494140625" xlink:href="#BitstreamVeraSans-Roman-64"/>
       <use x="735.970703125" xlink:href="#BitstreamVeraSans-Roman-61"/>
       <use x="797.25" xlink:href="#BitstreamVeraSans-Roman-7a"/>
       <use x="849.740234375" xlink:href="#BitstreamVeraSans-Roman-6f"/>
       <use x="910.921875" xlink:href="#BitstreamVeraSans-Roman-6c"/>
       <use x="938.705078125" xlink:href="#BitstreamVeraSans-Roman-65"/>
      </g>
     </g>
    </g>
   </g>
   <g id="matplotlib.axis_2">
    <g id="ytick_1">
     <g id="line2d_39">
      <path clip-path="url(#p47c4f8c192)" d="M 72 354.24 
L 518.4 354.24 
" style="fill:none;stroke:#000000;stroke-linecap:square;stroke-width:0.25;"/>
     </g>
     <g id="line2d_40">
      <defs>
       <path d="M 4 0 
L -4 -0 
" id="m85addca126" style="stroke:#000000;stroke-width:3.0;"/>
      </defs>
      <g>
       <use style="stroke:#000000;stroke-width:3.0;" x="72.0" xlink:href="#m85addca126" y="354.24"/>
      </g>
     </g>
     <g id="text_3">
      <!-- −8 -->
      <defs>
       <path d="M 10.59375 35.5 
L 73.1875 35.5 
L 73.1875 27.203125 
L 10.59375 27.203125 
z
" id="BitstreamVeraSans-Roman-2212"/>
       <path d="M 31.78125 34.625 
Q 24.75 34.625 20.71875 30.859375 
Q 16.703125 27.09375 16.703125 20.515625 
Q 16.703125 13.921875 20.71875 10.15625 
Q 24.75 6.390625 31.78125 6.390625 
Q 38.8125 6.390625 42.859375 10.171875 
Q 46.921875 13.96875 46.921875 20.515625 
Q 46.921875 27.09375 42.890625 30.859375 
Q 38.875 34.625 31.78125 34.625 
M 21.921875 38.8125 
Q 15.578125 40.375 12.03125 44.71875 
Q 8.5 49.078125 8.5 55.328125 
Q 8.5 64.0625 14.71875 69.140625 
Q 20.953125 74.21875 31.78125 74.21875 
Q 42.671875 74.21875 48.875 69.140625 
Q 55.078125 64.0625 55.078125 55.328125 
Q 55.078125 49.078125 51.53125 44.71875 
Q 48 40.375 41.703125 38.8125 
Q 48.828125 37.15625 52.796875 32.3125 
Q 56.78125 27.484375 56.78125 20.515625 
Q 56.78125 9.90625 50.3125 4.234375 
Q 43.84375 -1.421875 31.78125 -1.421875 
Q 19.734375 -1.421875 13.25 4.234375 
Q 6.78125 9.90625 6.78125 20.515625 
Q 6.78125 27.484375 10.78125 32.3125 
Q 14.796875 37.15625 21.921875 38.8125 
M 18.3125 54.390625 
Q 18.3125 48.734375 21.84375 45.5625 
Q 25.390625 42.390625 31.78125 42.390625 
Q 38.140625 42.390625 41.71875 45.5625 
Q 45.3125 48.734375 45.3125 54.390625 
Q 45.3125 60.0625 41.71875 63.234375 
Q 38.140625 66.40625 31.78125 66.40625 
Q 25.390625 66.40625 21.84375 63.234375 
Q 18.3125 60.0625 18.3125 54.390625 
" id="BitstreamVeraSans-Roman-38"/>
      </defs>
      <g transform="translate(29.14453125 361.1384375)scale(0.25 -0.25)">
       <use xlink:href="#BitstreamVeraSans-Roman-2212"/>
       <use x="83.7890625" xlink:href="#BitstreamVeraSans-Roman-38"/>
      </g>
     </g>
    </g>
    <g id="ytick_2">
     <g id="line2d_41">
      <path clip-path="url(#p47c4f8c192)" d="M 72 285.12 
L 518.4 285.12 
" style="fill:none;stroke:#000000;stroke-linecap:square;stroke-width:0.25;"/>
     </g>
     <g id="line2d_42">
      <g>
       <use style="stroke:#000000;stroke-width:3.0;" x="72.0" xlink:href="#m85addca126" y="285.12"/>
      </g>
     </g>
     <g id="text_4">
      <!-- −6 -->
      <defs>
       <path d="M 33.015625 40.375 
Q 26.375 40.375 22.484375 35.828125 
Q 18.609375 31.296875 18.609375 23.390625 
Q 18.609375 15.53125 22.484375 10.953125 
Q 26.375 6.390625 33.015625 6.390625 
Q 39.65625 6.390625 43.53125 10.953125 
Q 47.40625 15.53125 47.40625 23.390625 
Q 47.40625 31.296875 43.53125 35.828125 
Q 39.65625 40.375 33.015625 40.375 
M 52.59375 71.296875 
L 52.59375 62.3125 
Q 48.875 64.0625 45.09375 64.984375 
Q 41.3125 65.921875 37.59375 65.921875 
Q 27.828125 65.921875 22.671875 59.328125 
Q 17.53125 52.734375 16.796875 39.40625 
Q 19.671875 43.65625 24.015625 45.921875 
Q 28.375 48.1875 33.59375 48.1875 
Q 44.578125 48.1875 50.953125 41.515625 
Q 57.328125 34.859375 57.328125 23.390625 
Q 57.328125 12.15625 50.6875 5.359375 
Q 44.046875 -1.421875 33.015625 -1.421875 
Q 20.359375 -1.421875 13.671875 8.265625 
Q 6.984375 17.96875 6.984375 36.375 
Q 6.984375 53.65625 15.1875 63.9375 
Q 23.390625 74.21875 37.203125 74.21875 
Q 40.921875 74.21875 44.703125 73.484375 
Q 48.484375 72.75 52.59375 71.296875 
" id="BitstreamVeraSans-Roman-36"/>
      </defs>
      <g transform="translate(29.14453125 292.0184375)scale(0.25 -0.25)">
       <use xlink:href="#BitstreamVeraSans-Roman-2212"/>
       <use x="83.7890625" xlink:href="#BitstreamVeraSans-Roman-36"/>
      </g>
     </g>
    </g>
    <g id="ytick_3">
     <g id="line2d_43">
      <path clip-path="url(#p47c4f8c192)" d="M 72 216 
L 518.4 216 
" style="fill:none;stroke:#000000;stroke-linecap:square;stroke-width:0.25;"/>
     </g>
     <g id="line2d_44">
      <g>
       <use style="stroke:#000000;stroke-width:3.0;" x="72.0" xlink:href="#m85addca126" y="216.0"/>
      </g>
     </g>
     <g id="text_5">
      <!-- −4 -->
      <defs>
       <path d="M 37.796875 64.3125 
L 12.890625 25.390625 
L 37.796875 25.390625 
z
M 35.203125 72.90625 
L 47.609375 72.90625 
L 47.609375 25.390625 
L 58.015625 25.390625 
L 58.015625 17.1875 
L 47.609375 17.1875 
L 47.609375 0 
L 37.796875 0 
L 37.796875 17.1875 
L 4.890625 17.1875 
L 4.890625 26.703125 
z
" id="BitstreamVeraSans-Roman-34"/>
      </defs>
      <g transform="translate(29.14453125 222.8984375)scale(0.25 -0.25)">
       <use xlink:href="#BitstreamVeraSans-Roman-2212"/>
       <use x="83.7890625" xlink:href="#BitstreamVeraSans-Roman-34"/>
      </g>
     </g>
    </g>
    <g id="ytick_4">
     <g id="line2d_45">
      <path clip-path="url(#p47c4f8c192)" d="M 72 146.88 
L 518.4 146.88 
" style="fill:none;stroke:#000000;stroke-linecap:square;stroke-width:0.25;"/>
     </g>
     <g id="line2d_46">
      <g>
       <use style="stroke:#000000;stroke-width:3.0;" x="72.0" xlink:href="#m85addca126" y="146.88"/>
      </g>
     </g>
     <g id="text_6">
      <!-- −2 -->
      <defs>
       <path d="M 19.1875 8.296875 
L 53.609375 8.296875 
L 53.609375 0 
L 7.328125 0 
L 7.328125 8.296875 
Q 12.9375 14.109375 22.625 23.890625 
Q 32.328125 33.6875 34.8125 36.53125 
Q 39.546875 41.84375 41.421875 45.53125 
Q 43.3125 49.21875 43.3125 52.78125 
Q 43.3125 58.59375 39.234375 62.25 
Q 35.15625 65.921875 28.609375 65.921875 
Q 23.96875 65.921875 18.8125 64.3125 
Q 13.671875 62.703125 7.8125 59.421875 
L 7.8125 69.390625 
Q 13.765625 71.78125 18.9375 73 
Q 24.125 74.21875 28.421875 74.21875 
Q 39.75 74.21875 46.484375 68.546875 
Q 53.21875 62.890625 53.21875 53.421875 
Q 53.21875 48.921875 51.53125 44.890625 
Q 49.859375 40.875 45.40625 35.40625 
Q 44.1875 33.984375 37.640625 27.21875 
Q 31.109375 20.453125 19.1875 8.296875 
" id="BitstreamVeraSans-Roman-32"/>
      </defs>
      <g transform="translate(29.14453125 153.7784375)scale(0.25 -0.25)">
       <use xlink:href="#BitstreamVeraSans-Roman-2212"/>
       <use x="83.7890625" xlink:href="#BitstreamVeraSans-Roman-32"/>
      </g>
     </g>
    </g>
    <g id="ytick_5">
     <g id="line2d_47">
      <path clip-path="url(#p47c4f8c192)" d="M 72 77.76 
L 518.4 77.76 
" style="fill:none;stroke:#000000;stroke-linecap:square;stroke-width:0.25;"/>
     </g>
     <g id="line2d_48">
      <g>
       <use style="stroke:#000000;stroke-width:3.0;" x="72.0" xlink:href="#m85addca126" y="77.76"/>
      </g>
     </g>
     <g id="text_7">
      <!-- 0 -->
      <defs>
       <path d="M 31.78125 66.40625 
Q 24.171875 66.40625 20.328125 58.90625 
Q 16.5 51.421875 16.5 36.375 
Q 16.5 21.390625 20.328125 13.890625 
Q 24.171875 6.390625 31.78125 6.390625 
Q 39.453125 6.390625 43.28125 13.890625 
Q 47.125 21.390625 47.125 36.375 
Q 47.125 51.421875 43.28125 58.90625 
Q 39.453125 66.40625 31.78125 66.40625 
M 31.78125 74.21875 
Q 44.046875 74.21875 50.515625 64.515625 
Q 56.984375 54.828125 56.984375 36.375 
Q 56.984375 17.96875 50.515625 8.265625 
Q 44.046875 -1.421875 31.78125 -1.421875 
Q 19.53125 -1.421875 13.0625 8.265625 
Q 6.59375 17.96875 6.59375 36.375 
Q 6.59375 54.828125 13.0625 64.515625 
Q 19.53125 74.21875 31.78125 74.21875 
" id="BitstreamVeraSans-Roman-30"/>
      </defs>
      <g transform="translate(50.09375 84.6584375)scale(0.25 -0.25)">
       <use xlink:href="#BitstreamVeraSans-Roman-30"/>
      </g>
     </g>
    </g>
   </g>
  </g>
 </g>
 <defs>
  <clipPath id="p47c4f8c192">
   <rect height="345.6" width="446.4" x="72.0" y="43.2"/>
  </clipPath>
 </defs>
</svg>
