<?xml version="1.0" encoding="utf-8" standalone="no"?>
<!DOCTYPE svg PUBLIC "-//W3C//DTD SVG 1.1//EN"
  "http://www.w3.org/Graphics/SVG/1.1/DTD/svg11.dtd">
<!-- Created with matplotlib (http://matplotlib.org/) -->
<svg height="432pt" version="1.1" viewBox="0 0 576 432" width="576pt" xmlns="http://www.w3.org/2000/svg" xmlns:xlink="http://www.w3.org/1999/xlink">
 <defs>
  <style type="text/css">
*{stroke-linecap:butt;stroke-linejoin:round;stroke-miterlimit:100000;}
  </style>
 </defs>
 <g id="figure_1">
  <g id="patch_1">
   <path d="M 0 432 
L 576 432 
L 576 0 
L 0 0 
z
" style="fill:#ffffff;"/>
  </g>
  <g id="axes_1">
   <g id="patch_2">
    <path d="M 72 388.8 
L 518.4 388.8 
L 518.4 43.2 
L 72 43.2 
z
" style="fill:#ffffff;"/>
   </g>
   <g id="patch_3">
    <path clip-path="url(#p9511d80913)" d="M 94.9152 256.326711 
L 153.2448 256.326711 
L 153.2448 222.201335 
L 94.9152 222.201335 
L 94.9152 256.326711 
z
" style="fill:#2020df;stroke:#262626;stroke-linejoin:miter;"/>
   </g>
   <g id="patch_4">
    <path clip-path="url(#p9511d80913)" d="M 154.4352 266.208979 
L 212.7648 266.208979 
L 212.7648 182.412887 
L 154.4352 182.412887 
L 154.4352 266.208979 
z
" style="fill:#107010;stroke:#262626;stroke-linejoin:miter;"/>
   </g>
   <g id="patch_5">
    <path clip-path="url(#p9511d80913)" d="M 213.9552 264.07284 
L 272.2848 264.07284 
L 272.2848 227.615984 
L 213.9552 227.615984 
L 213.9552 264.07284 
z
" style="fill:#df2020;stroke:#262626;stroke-linejoin:miter;"/>
   </g>
   <g id="patch_6">
    <path clip-path="url(#p9511d80913)" d="M 318.1152 267.815356 
L 376.4448 267.815356 
L 376.4448 237.630283 
L 318.1152 237.630283 
L 318.1152 267.815356 
z
" style="fill:#2020df;stroke:#262626;stroke-linejoin:miter;"/>
   </g>
   <g id="patch_7">
    <path clip-path="url(#p9511d80913)" d="M 377.6352 279.893303 
L 435.9648 279.893303 
L 435.9648 246.986027 
L 377.6352 246.986027 
L 377.6352 279.893303 
z
" style="fill:#107010;stroke:#262626;stroke-linejoin:miter;"/>
   </g>
   <g id="patch_8">
    <path clip-path="url(#p9511d80913)" d="M 437.1552 258.903112 
L 495.4848 258.903112 
L 495.4848 234.755605 
L 437.1552 234.755605 
L 437.1552 258.903112 
z
" style="fill:#df2020;stroke:#262626;stroke-linejoin:miter;"/>
   </g>
   <g id="patch_9">
    <path clip-path="url(#p9511d80913)" d="M 183.6 216 
L 183.6 216 
L 183.6 216 
L 183.6 216 
z
" style="fill:#2020df;stroke:#262626;stroke-linejoin:miter;stroke-width:0.5;"/>
   </g>
   <g id="patch_10">
    <path clip-path="url(#p9511d80913)" d="M 183.6 216 
L 183.6 216 
L 183.6 216 
L 183.6 216 
z
" style="fill:#107010;stroke:#262626;stroke-linejoin:miter;stroke-width:0.5;"/>
   </g>
   <g id="patch_11">
    <path clip-path="url(#p9511d80913)" d="M 183.6 216 
L 183.6 216 
L 183.6 216 
L 183.6 216 
z
" style="fill:#df2020;stroke:#262626;stroke-linejoin:miter;stroke-width:0.5;"/>
   </g>
   <g id="line2d_1">
    <path clip-path="url(#p9511d80913)" d="M 124.08 256.326711 
L 124.08 304.021709 
" style="fill:none;stroke:#262626;stroke-linecap:square;"/>
   </g>
   <g id="line2d_2">
    <path clip-path="url(#p9511d80913)" d="M 124.08 222.201335 
L 124.08 172.925512 
" style="fill:none;stroke:#262626;stroke-linecap:square;"/>
   </g>
   <g id="line2d_3">
    <path clip-path="url(#p9511d80913)" d="M 109.4976 304.021709 
L 138.6624 304.021709 
" style="fill:none;stroke:#262626;stroke-linecap:square;"/>
   </g>
   <g id="line2d_4">
    <path clip-path="url(#p9511d80913)" d="M 109.4976 172.925512 
L 138.6624 172.925512 
" style="fill:none;stroke:#262626;stroke-linecap:square;"/>
   </g>
   <g id="line2d_5">
    <path clip-path="url(#p9511d80913)" d="M 94.9152 238.289648 
L 153.2448 238.289648 
" style="fill:none;stroke:#262626;stroke-linecap:square;"/>
   </g>
   <g id="line2d_6">
    <defs>
     <path d="M -0 3.535534 
L 2.12132 0 
L -0 -3.535534 
L -2.12132 -0 
z
" id="m31c27e1d1b" style="stroke:#262626;stroke-linejoin:miter;stroke-width:0.5;"/>
    </defs>
    <g clip-path="url(#p9511d80913)">
     <use style="fill:#262626;stroke:#262626;stroke-linejoin:miter;stroke-width:0.5;" x="124.08" xlink:href="#m31c27e1d1b" y="160.120135754"/>
     <use style="fill:#262626;stroke:#262626;stroke-linejoin:miter;stroke-width:0.5;" x="124.08" xlink:href="#m31c27e1d1b" y="146.607563545"/>
     <use style="fill:#262626;stroke:#262626;stroke-linejoin:miter;stroke-width:0.5;" x="124.08" xlink:href="#m31c27e1d1b" y="142.155941042"/>
     <use style="fill:#262626;stroke:#262626;stroke-linejoin:miter;stroke-width:0.5;" x="124.08" xlink:href="#m31c27e1d1b" y="142.231699276"/>
    </g>
   </g>
   <g id="line2d_7">
    <path clip-path="url(#p9511d80913)" d="M 183.6 266.208979 
L 183.6 353.898537 
" style="fill:none;stroke:#262626;stroke-linecap:square;"/>
   </g>
   <g id="line2d_8">
    <path clip-path="url(#p9511d80913)" d="M 183.6 182.412887 
L 183.6 68.865441 
" style="fill:none;stroke:#262626;stroke-linecap:square;"/>
   </g>
   <g id="line2d_9">
    <path clip-path="url(#p9511d80913)" d="M 169.0176 353.898537 
L 198.1824 353.898537 
" style="fill:none;stroke:#262626;stroke-linecap:square;"/>
   </g>
   <g id="line2d_10">
    <path clip-path="url(#p9511d80913)" d="M 169.0176 68.865441 
L 198.1824 68.865441 
" style="fill:none;stroke:#262626;stroke-linecap:square;"/>
   </g>
   <g id="line2d_11">
    <path clip-path="url(#p9511d80913)" d="M 154.4352 235.827006 
L 212.7648 235.827006 
" style="fill:none;stroke:#262626;stroke-linecap:square;"/>
   </g>
   <g id="line2d_12">
    <g clip-path="url(#p9511d80913)">
     <use style="fill:#262626;stroke:#262626;stroke-linejoin:miter;stroke-width:0.5;" x="6.95283795597e-310" xlink:href="#m31c27e1d1b" y="6.94540282777e-310"/>
    </g>
   </g>
   <g id="line2d_13">
    <path clip-path="url(#p9511d80913)" d="M 243.12 264.07284 
L 243.12 292.99585 
" style="fill:none;stroke:#262626;stroke-linecap:square;"/>
   </g>
   <g id="line2d_14">
    <path clip-path="url(#p9511d80913)" d="M 243.12 227.615984 
L 243.12 197.530687 
" style="fill:none;stroke:#262626;stroke-linecap:square;"/>
   </g>
   <g id="line2d_15">
    <path clip-path="url(#p9511d80913)" d="M 228.5376 292.99585 
L 257.7024 292.99585 
" style="fill:none;stroke:#262626;stroke-linecap:square;"/>
   </g>
   <g id="line2d_16">
    <path clip-path="url(#p9511d80913)" d="M 228.5376 197.530687 
L 257.7024 197.530687 
" style="fill:none;stroke:#262626;stroke-linecap:square;"/>
   </g>
   <g id="line2d_17">
    <path clip-path="url(#p9511d80913)" d="M 213.9552 238.622041 
L 272.2848 238.622041 
" style="fill:none;stroke:#262626;stroke-linecap:square;"/>
   </g>
   <g id="line2d_18">
    <g clip-path="url(#p9511d80913)">
     <use style="fill:#262626;stroke:#262626;stroke-linejoin:miter;stroke-width:0.5;" x="243.12" xlink:href="#m31c27e1d1b" y="160.120135754"/>
     <use style="fill:#262626;stroke:#262626;stroke-linejoin:miter;stroke-width:0.5;" x="243.12" xlink:href="#m31c27e1d1b" y="142.155941042"/>
    </g>
   </g>
   <g id="line2d_19">
    <path clip-path="url(#p9511d80913)" d="M 347.28 267.815356 
L 347.28 303.624864 
" style="fill:none;stroke:#262626;stroke-linecap:square;"/>
   </g>
   <g id="line2d_20">
    <path clip-path="url(#p9511d80913)" d="M 347.28 237.630283 
L 347.28 193.068938 
" style="fill:none;stroke:#262626;stroke-linecap:square;"/>
   </g>
   <g id="line2d_21">
    <path clip-path="url(#p9511d80913)" d="M 332.6976 303.624864 
L 361.8624 303.624864 
" style="fill:none;stroke:#262626;stroke-linecap:square;"/>
   </g>
   <g id="line2d_22">
    <path clip-path="url(#p9511d80913)" d="M 332.6976 193.068938 
L 361.8624 193.068938 
" style="fill:none;stroke:#262626;stroke-linecap:square;"/>
   </g>
   <g id="line2d_23">
    <path clip-path="url(#p9511d80913)" d="M 318.1152 248.977448 
L 376.4448 248.977448 
" style="fill:none;stroke:#262626;stroke-linecap:square;"/>
   </g>
   <g id="line2d_24">
    <g clip-path="url(#p9511d80913)">
     <use style="fill:#262626;stroke:#262626;stroke-linejoin:miter;stroke-width:0.5;" x="347.28" xlink:href="#m31c27e1d1b" y="323.700464953"/>
     <use style="fill:#262626;stroke:#262626;stroke-linejoin:miter;stroke-width:0.5;" x="347.28" xlink:href="#m31c27e1d1b" y="314.9443252"/>
     <use style="fill:#262626;stroke:#262626;stroke-linejoin:miter;stroke-width:0.5;" x="347.28" xlink:href="#m31c27e1d1b" y="141.152156717"/>
     <use style="fill:#262626;stroke:#262626;stroke-linejoin:miter;stroke-width:0.5;" x="347.28" xlink:href="#m31c27e1d1b" y="176.768323952"/>
    </g>
   </g>
   <g id="line2d_25">
    <path clip-path="url(#p9511d80913)" d="M 406.8 279.893303 
L 406.8 320.841687 
" style="fill:none;stroke:#262626;stroke-linecap:square;"/>
   </g>
   <g id="line2d_26">
    <path clip-path="url(#p9511d80913)" d="M 406.8 246.986027 
L 406.8 207.796141 
" style="fill:none;stroke:#262626;stroke-linecap:square;"/>
   </g>
   <g id="line2d_27">
    <path clip-path="url(#p9511d80913)" d="M 392.2176 320.841687 
L 421.3824 320.841687 
" style="fill:none;stroke:#262626;stroke-linecap:square;"/>
   </g>
   <g id="line2d_28">
    <path clip-path="url(#p9511d80913)" d="M 392.2176 207.796141 
L 421.3824 207.796141 
" style="fill:none;stroke:#262626;stroke-linecap:square;"/>
   </g>
   <g id="line2d_29">
    <path clip-path="url(#p9511d80913)" d="M 377.6352 264.479168 
L 435.9648 264.479168 
" style="fill:none;stroke:#262626;stroke-linecap:square;"/>
   </g>
   <g id="line2d_30">
    <g clip-path="url(#p9511d80913)">
     <use style="fill:#262626;stroke:#262626;stroke-linejoin:miter;stroke-width:0.5;" x="406.8" xlink:href="#m31c27e1d1b" y="345.975728924"/>
     <use style="fill:#262626;stroke:#262626;stroke-linejoin:miter;stroke-width:0.5;" x="406.8" xlink:href="#m31c27e1d1b" y="349.944600188"/>
     <use style="fill:#262626;stroke:#262626;stroke-linejoin:miter;stroke-width:0.5;" x="406.8" xlink:href="#m31c27e1d1b" y="196.2885398"/>
     <use style="fill:#262626;stroke:#262626;stroke-linejoin:miter;stroke-width:0.5;" x="406.8" xlink:href="#m31c27e1d1b" y="196.781379257"/>
    </g>
   </g>
   <g id="line2d_31">
    <path clip-path="url(#p9511d80913)" d="M 466.32 258.903112 
L 466.32 277.267424 
" style="fill:none;stroke:#262626;stroke-linecap:square;"/>
   </g>
   <g id="line2d_32">
    <path clip-path="url(#p9511d80913)" d="M 466.32 234.755605 
L 466.32 220.077645 
" style="fill:none;stroke:#262626;stroke-linecap:square;"/>
   </g>
   <g id="line2d_33">
    <path clip-path="url(#p9511d80913)" d="M 451.7376 277.267424 
L 480.9024 277.267424 
" style="fill:none;stroke:#262626;stroke-linecap:square;"/>
   </g>
   <g id="line2d_34">
    <path clip-path="url(#p9511d80913)" d="M 451.7376 220.077645 
L 480.9024 220.077645 
" style="fill:none;stroke:#262626;stroke-linecap:square;"/>
   </g>
   <g id="line2d_35">
    <path clip-path="url(#p9511d80913)" d="M 437.1552 245.261163 
L 495.4848 245.261163 
" style="fill:none;stroke:#262626;stroke-linecap:square;"/>
   </g>
   <g id="line2d_36">
    <g clip-path="url(#p9511d80913)">
     <use style="fill:#262626;stroke:#262626;stroke-linejoin:miter;stroke-width:0.5;" x="466.32" xlink:href="#m31c27e1d1b" y="301.190577663"/>
     <use style="fill:#262626;stroke:#262626;stroke-linejoin:miter;stroke-width:0.5;" x="466.32" xlink:href="#m31c27e1d1b" y="297.587615092"/>
    </g>
   </g>
   <g id="patch_12">
    <path d="M 72 43.2 
L 518.4 43.2 
" style="fill:none;stroke:#000000;stroke-linecap:square;stroke-linejoin:miter;"/>
   </g>
   <g id="patch_13">
    <path d="M 518.4 388.8 
L 518.4 43.2 
" style="fill:none;stroke:#000000;stroke-linecap:square;stroke-linejoin:miter;"/>
   </g>
   <g id="patch_14">
    <path d="M 72 388.8 
L 518.4 388.8 
" style="fill:none;stroke:#000000;stroke-linecap:square;stroke-linejoin:miter;"/>
   </g>
   <g id="patch_15">
    <path d="M 72 388.8 
L 72 43.2 
" style="fill:none;stroke:#000000;stroke-linecap:square;stroke-linejoin:miter;"/>
   </g>
   <g id="matplotlib.axis_1">
    <g id="xtick_1">
     <g id="line2d_37">
      <defs>
       <path d="M 0 0 
L 0 -4 
" id="m12b8dfc056" style="stroke:#000000;stroke-width:0.5;"/>
      </defs>
      <g>
       <use style="stroke:#000000;stroke-width:0.5;" x="183.6" xlink:href="#m12b8dfc056" y="388.8"/>
      </g>
     </g>
     <g id="line2d_38">
      <defs>
       <path d="M 0 0 
L 0 4 
" id="m8527e62b5a" style="stroke:#000000;stroke-width:0.5;"/>
      </defs>
      <g>
       <use style="stroke:#000000;stroke-width:0.5;" x="183.6" xlink:href="#m8527e62b5a" y="43.2"/>
      </g>
     </g>
     <g id="text_1">
      <!-- arhgdia_nocodazole -->
      <defs>
       <path d="M 50.984375 -16.609375 
L 50.984375 -23.578125 
L -0.984375 -23.578125 
L -0.984375 -16.609375 
z
" id="BitstreamVeraSans-Roman-5f"/>
       <path d="M 54.890625 33.015625 
L 54.890625 0 
L 45.90625 0 
L 45.90625 32.71875 
Q 45.90625 40.484375 42.875 44.328125 
Q 39.84375 48.1875 33.796875 48.1875 
Q 26.515625 48.1875 22.3125 43.546875 
Q 18.109375 38.921875 18.109375 30.90625 
L 18.109375 0 
L 9.078125 0 
L 9.078125 54.6875 
L 18.109375 54.6875 
L 18.109375 46.1875 
Q 21.34375 51.125 25.703125 53.5625 
Q 30.078125 56 35.796875 56 
Q 45.21875 56 50.046875 50.171875 
Q 54.890625 44.34375 54.890625 33.015625 
" id="BitstreamVeraSans-Roman-6e"/>
       <path d="M 34.28125 27.484375 
Q 23.390625 27.484375 19.1875 25 
Q 14.984375 22.515625 14.984375 16.5 
Q 14.984375 11.71875 18.140625 8.90625 
Q 21.296875 6.109375 26.703125 6.109375 
Q 34.1875 6.109375 38.703125 11.40625 
Q 43.21875 16.703125 43.21875 25.484375 
L 43.21875 27.484375 
z
M 52.203125 31.203125 
L 52.203125 0 
L 43.21875 0 
L 43.21875 8.296875 
Q 40.140625 3.328125 35.546875 0.953125 
Q 30.953125 -1.421875 24.3125 -1.421875 
Q 15.921875 -1.421875 10.953125 3.296875 
Q 6 8.015625 6 15.921875 
Q 6 25.140625 12.171875 29.828125 
Q 18.359375 34.515625 30.609375 34.515625 
L 43.21875 34.515625 
L 43.21875 35.40625 
Q 43.21875 41.609375 39.140625 45 
Q 35.0625 48.390625 27.6875 48.390625 
Q 23 48.390625 18.546875 47.265625 
Q 14.109375 46.140625 10.015625 43.890625 
L 10.015625 52.203125 
Q 14.9375 54.109375 19.578125 55.046875 
Q 24.21875 56 28.609375 56 
Q 40.484375 56 46.34375 49.84375 
Q 52.203125 43.703125 52.203125 31.203125 
" id="BitstreamVeraSans-Roman-61"/>
       <path d="M 30.609375 48.390625 
Q 23.390625 48.390625 19.1875 42.75 
Q 14.984375 37.109375 14.984375 27.296875 
Q 14.984375 17.484375 19.15625 11.84375 
Q 23.34375 6.203125 30.609375 6.203125 
Q 37.796875 6.203125 41.984375 11.859375 
Q 46.1875 17.53125 46.1875 27.296875 
Q 46.1875 37.015625 41.984375 42.703125 
Q 37.796875 48.390625 30.609375 48.390625 
M 30.609375 56 
Q 42.328125 56 49.015625 48.375 
Q 55.71875 40.765625 55.71875 27.296875 
Q 55.71875 13.875 49.015625 6.21875 
Q 42.328125 -1.421875 30.609375 -1.421875 
Q 18.84375 -1.421875 12.171875 6.21875 
Q 5.515625 13.875 5.515625 27.296875 
Q 5.515625 40.765625 12.171875 48.375 
Q 18.84375 56 30.609375 56 
" id="BitstreamVeraSans-Roman-6f"/>
       <path d="M 9.421875 75.984375 
L 18.40625 75.984375 
L 18.40625 0 
L 9.421875 0 
z
" id="BitstreamVeraSans-Roman-6c"/>
       <path d="M 5.515625 54.6875 
L 48.1875 54.6875 
L 48.1875 46.484375 
L 14.40625 7.171875 
L 48.1875 7.171875 
L 48.1875 0 
L 4.296875 0 
L 4.296875 8.203125 
L 38.09375 47.515625 
L 5.515625 47.515625 
z
" id="BitstreamVeraSans-Roman-7a"/>
       <path d="M 9.421875 54.6875 
L 18.40625 54.6875 
L 18.40625 0 
L 9.421875 0 
z
M 9.421875 75.984375 
L 18.40625 75.984375 
L 18.40625 64.59375 
L 9.421875 64.59375 
z
" id="BitstreamVeraSans-Roman-69"/>
       <path d="M 54.890625 33.015625 
L 54.890625 0 
L 45.90625 0 
L 45.90625 32.71875 
Q 45.90625 40.484375 42.875 44.328125 
Q 39.84375 48.1875 33.796875 48.1875 
Q 26.515625 48.1875 22.3125 43.546875 
Q 18.109375 38.921875 18.109375 30.90625 
L 18.109375 0 
L 9.078125 0 
L 9.078125 75.984375 
L 18.109375 75.984375 
L 18.109375 46.1875 
Q 21.34375 51.125 25.703125 53.5625 
Q 30.078125 56 35.796875 56 
Q 45.21875 56 50.046875 50.171875 
Q 54.890625 44.34375 54.890625 33.015625 
" id="BitstreamVeraSans-Roman-68"/>
       <path d="M 56.203125 29.59375 
L 56.203125 25.203125 
L 14.890625 25.203125 
Q 15.484375 15.921875 20.484375 11.0625 
Q 25.484375 6.203125 34.421875 6.203125 
Q 39.59375 6.203125 44.453125 7.46875 
Q 49.3125 8.734375 54.109375 11.28125 
L 54.109375 2.78125 
Q 49.265625 0.734375 44.1875 -0.34375 
Q 39.109375 -1.421875 33.890625 -1.421875 
Q 20.796875 -1.421875 13.15625 6.1875 
Q 5.515625 13.8125 5.515625 26.8125 
Q 5.515625 40.234375 12.765625 48.109375 
Q 20.015625 56 32.328125 56 
Q 43.359375 56 49.78125 48.890625 
Q 56.203125 41.796875 56.203125 29.59375 
M 47.21875 32.234375 
Q 47.125 39.59375 43.09375 43.984375 
Q 39.0625 48.390625 32.421875 48.390625 
Q 24.90625 48.390625 20.390625 44.140625 
Q 15.875 39.890625 15.1875 32.171875 
z
" id="BitstreamVeraSans-Roman-65"/>
       <path d="M 45.40625 46.390625 
L 45.40625 75.984375 
L 54.390625 75.984375 
L 54.390625 0 
L 45.40625 0 
L 45.40625 8.203125 
Q 42.578125 3.328125 38.25 0.953125 
Q 33.9375 -1.421875 27.875 -1.421875 
Q 17.96875 -1.421875 11.734375 6.484375 
Q 5.515625 14.40625 5.515625 27.296875 
Q 5.515625 40.1875 11.734375 48.09375 
Q 17.96875 56 27.875 56 
Q 33.9375 56 38.25 53.625 
Q 42.578125 51.265625 45.40625 46.390625 
M 14.796875 27.296875 
Q 14.796875 17.390625 18.875 11.75 
Q 22.953125 6.109375 30.078125 6.109375 
Q 37.203125 6.109375 41.296875 11.75 
Q 45.40625 17.390625 45.40625 27.296875 
Q 45.40625 37.203125 41.296875 42.84375 
Q 37.203125 48.484375 30.078125 48.484375 
Q 22.953125 48.484375 18.875 42.84375 
Q 14.796875 37.203125 14.796875 27.296875 
" id="BitstreamVeraSans-Roman-64"/>
       <path d="M 45.40625 27.984375 
Q 45.40625 37.75 41.375 43.109375 
Q 37.359375 48.484375 30.078125 48.484375 
Q 22.859375 48.484375 18.828125 43.109375 
Q 14.796875 37.75 14.796875 27.984375 
Q 14.796875 18.265625 18.828125 12.890625 
Q 22.859375 7.515625 30.078125 7.515625 
Q 37.359375 7.515625 41.375 12.890625 
Q 45.40625 18.265625 45.40625 27.984375 
M 54.390625 6.78125 
Q 54.390625 -7.171875 48.1875 -13.984375 
Q 42 -20.796875 29.203125 -20.796875 
Q 24.46875 -20.796875 20.265625 -20.09375 
Q 16.0625 -19.390625 12.109375 -17.921875 
L 12.109375 -9.1875 
Q 16.0625 -11.328125 19.921875 -12.34375 
Q 23.78125 -13.375 27.78125 -13.375 
Q 36.625 -13.375 41.015625 -8.765625 
Q 45.40625 -4.15625 45.40625 5.171875 
L 45.40625 9.625 
Q 42.625 4.78125 38.28125 2.390625 
Q 33.9375 0 27.875 0 
Q 17.828125 0 11.671875 7.65625 
Q 5.515625 15.328125 5.515625 27.984375 
Q 5.515625 40.671875 11.671875 48.328125 
Q 17.828125 56 27.875 56 
Q 33.9375 56 38.28125 53.609375 
Q 42.625 51.21875 45.40625 46.390625 
L 45.40625 54.6875 
L 54.390625 54.6875 
z
" id="BitstreamVeraSans-Roman-67"/>
       <path d="M 41.109375 46.296875 
Q 39.59375 47.171875 37.8125 47.578125 
Q 36.03125 48 33.890625 48 
Q 26.265625 48 22.1875 43.046875 
Q 18.109375 38.09375 18.109375 28.8125 
L 18.109375 0 
L 9.078125 0 
L 9.078125 54.6875 
L 18.109375 54.6875 
L 18.109375 46.1875 
Q 20.953125 51.171875 25.484375 53.578125 
Q 30.03125 56 36.53125 56 
Q 37.453125 56 38.578125 55.875 
Q 39.703125 55.765625 41.0625 55.515625 
z
" id="BitstreamVeraSans-Roman-72"/>
       <path d="M 48.78125 52.59375 
L 48.78125 44.1875 
Q 44.96875 46.296875 41.140625 47.34375 
Q 37.3125 48.390625 33.40625 48.390625 
Q 24.65625 48.390625 19.8125 42.84375 
Q 14.984375 37.3125 14.984375 27.296875 
Q 14.984375 17.28125 19.8125 11.734375 
Q 24.65625 6.203125 33.40625 6.203125 
Q 37.3125 6.203125 41.140625 7.25 
Q 44.96875 8.296875 48.78125 10.40625 
L 48.78125 2.09375 
Q 45.015625 0.34375 40.984375 -0.53125 
Q 36.96875 -1.421875 32.421875 -1.421875 
Q 20.0625 -1.421875 12.78125 6.34375 
Q 5.515625 14.109375 5.515625 27.296875 
Q 5.515625 40.671875 12.859375 48.328125 
Q 20.21875 56 33.015625 56 
Q 37.15625 56 41.109375 55.140625 
Q 45.0625 54.296875 48.78125 52.59375 
" id="BitstreamVeraSans-Roman-63"/>
      </defs>
      <g transform="translate(123.5840625 401.918125)scale(0.12 -0.12)">
       <use xlink:href="#BitstreamVeraSans-Roman-61"/>
       <use x="61.279296875" xlink:href="#BitstreamVeraSans-Roman-72"/>
       <use x="102.376953125" xlink:href="#BitstreamVeraSans-Roman-68"/>
       <use x="165.755859375" xlink:href="#BitstreamVeraSans-Roman-67"/>
       <use x="229.232421875" xlink:href="#BitstreamVeraSans-Roman-64"/>
       <use x="292.708984375" xlink:href="#BitstreamVeraSans-Roman-69"/>
       <use x="320.4921875" xlink:href="#BitstreamVeraSans-Roman-61"/>
       <use x="381.771484375" xlink:href="#BitstreamVeraSans-Roman-5f"/>
       <use x="431.771484375" xlink:href="#BitstreamVeraSans-Roman-6e"/>
       <use x="495.150390625" xlink:href="#BitstreamVeraSans-Roman-6f"/>
       <use x="556.33203125" xlink:href="#BitstreamVeraSans-Roman-63"/>
       <use x="611.3125" xlink:href="#BitstreamVeraSans-Roman-6f"/>
       <use x="672.494140625" xlink:href="#BitstreamVeraSans-Roman-64"/>
       <use x="735.970703125" xlink:href="#BitstreamVeraSans-Roman-61"/>
       <use x="797.25" xlink:href="#BitstreamVeraSans-Roman-7a"/>
       <use x="849.740234375" xlink:href="#BitstreamVeraSans-Roman-6f"/>
       <use x="910.921875" xlink:href="#BitstreamVeraSans-Roman-6c"/>
       <use x="938.705078125" xlink:href="#BitstreamVeraSans-Roman-65"/>
      </g>
     </g>
    </g>
    <g id="xtick_2">
     <g id="line2d_39">
      <g>
       <use style="stroke:#000000;stroke-width:0.5;" x="406.8" xlink:href="#m12b8dfc056" y="388.8"/>
      </g>
     </g>
     <g id="line2d_40">
      <g>
       <use style="stroke:#000000;stroke-width:0.5;" x="406.8" xlink:href="#m8527e62b5a" y="43.2"/>
      </g>
     </g>
     <g id="text_2">
      <!-- pard3_nocodazole -->
      <defs>
       <path d="M 40.578125 39.3125 
Q 47.65625 37.796875 51.625 33 
Q 55.609375 28.21875 55.609375 21.1875 
Q 55.609375 10.40625 48.1875 4.484375 
Q 40.765625 -1.421875 27.09375 -1.421875 
Q 22.515625 -1.421875 17.65625 -0.515625 
Q 12.796875 0.390625 7.625 2.203125 
L 7.625 11.71875 
Q 11.71875 9.328125 16.59375 8.109375 
Q 21.484375 6.890625 26.8125 6.890625 
Q 36.078125 6.890625 40.9375 10.546875 
Q 45.796875 14.203125 45.796875 21.1875 
Q 45.796875 27.640625 41.28125 31.265625 
Q 36.765625 34.90625 28.71875 34.90625 
L 20.21875 34.90625 
L 20.21875 43.015625 
L 29.109375 43.015625 
Q 36.375 43.015625 40.234375 45.921875 
Q 44.09375 48.828125 44.09375 54.296875 
Q 44.09375 59.90625 40.109375 62.90625 
Q 36.140625 65.921875 28.71875 65.921875 
Q 24.65625 65.921875 20.015625 65.03125 
Q 15.375 64.15625 9.8125 62.3125 
L 9.8125 71.09375 
Q 15.4375 72.65625 20.34375 73.4375 
Q 25.25 74.21875 29.59375 74.21875 
Q 40.828125 74.21875 47.359375 69.109375 
Q 53.90625 64.015625 53.90625 55.328125 
Q 53.90625 49.265625 50.4375 45.09375 
Q 46.96875 40.921875 40.578125 39.3125 
" id="BitstreamVeraSans-Roman-33"/>
       <path d="M 18.109375 8.203125 
L 18.109375 -20.796875 
L 9.078125 -20.796875 
L 9.078125 54.6875 
L 18.109375 54.6875 
L 18.109375 46.390625 
Q 20.953125 51.265625 25.265625 53.625 
Q 29.59375 56 35.59375 56 
Q 45.5625 56 51.78125 48.09375 
Q 58.015625 40.1875 58.015625 27.296875 
Q 58.015625 14.40625 51.78125 6.484375 
Q 45.5625 -1.421875 35.59375 -1.421875 
Q 29.59375 -1.421875 25.265625 0.953125 
Q 20.953125 3.328125 18.109375 8.203125 
M 48.6875 27.296875 
Q 48.6875 37.203125 44.609375 42.84375 
Q 40.53125 48.484375 33.40625 48.484375 
Q 26.265625 48.484375 22.1875 42.84375 
Q 18.109375 37.203125 18.109375 27.296875 
Q 18.109375 17.390625 22.1875 11.75 
Q 26.265625 6.109375 33.40625 6.109375 
Q 40.53125 6.109375 44.609375 11.75 
Q 48.6875 17.390625 48.6875 27.296875 
" id="BitstreamVeraSans-Roman-70"/>
      </defs>
      <g transform="translate(352.1128125 401.918125)scale(0.12 -0.12)">
       <use xlink:href="#BitstreamVeraSans-Roman-70"/>
       <use x="63.4765625" xlink:href="#BitstreamVeraSans-Roman-61"/>
       <use x="124.755859375" xlink:href="#BitstreamVeraSans-Roman-72"/>
       <use x="165.853515625" xlink:href="#BitstreamVeraSans-Roman-64"/>
       <use x="229.330078125" xlink:href="#BitstreamVeraSans-Roman-33"/>
       <use x="292.953125" xlink:href="#BitstreamVeraSans-Roman-5f"/>
       <use x="342.953125" xlink:href="#BitstreamVeraSans-Roman-6e"/>
       <use x="406.33203125" xlink:href="#BitstreamVeraSans-Roman-6f"/>
       <use x="467.513671875" xlink:href="#BitstreamVeraSans-Roman-63"/>
       <use x="522.494140625" xlink:href="#BitstreamVeraSans-Roman-6f"/>
       <use x="583.67578125" xlink:href="#BitstreamVeraSans-Roman-64"/>
       <use x="647.15234375" xlink:href="#BitstreamVeraSans-Roman-61"/>
       <use x="708.431640625" xlink:href="#BitstreamVeraSans-Roman-7a"/>
       <use x="760.921875" xlink:href="#BitstreamVeraSans-Roman-6f"/>
       <use x="822.103515625" xlink:href="#BitstreamVeraSans-Roman-6c"/>
       <use x="849.88671875" xlink:href="#BitstreamVeraSans-Roman-65"/>
      </g>
     </g>
    </g>
    <g id="text_3">
     <!-- Gene -->
     <defs>
      <path d="M 59.515625 10.40625 
L 59.515625 29.984375 
L 43.40625 29.984375 
L 43.40625 38.09375 
L 69.28125 38.09375 
L 69.28125 6.78125 
Q 63.578125 2.734375 56.6875 0.65625 
Q 49.8125 -1.421875 42 -1.421875 
Q 24.90625 -1.421875 15.25 8.5625 
Q 5.609375 18.5625 5.609375 36.375 
Q 5.609375 54.25 15.25 64.234375 
Q 24.90625 74.21875 42 74.21875 
Q 49.125 74.21875 55.546875 72.453125 
Q 61.96875 70.703125 67.390625 67.28125 
L 67.390625 56.78125 
Q 61.921875 61.421875 55.765625 63.765625 
Q 49.609375 66.109375 42.828125 66.109375 
Q 29.4375 66.109375 22.71875 58.640625 
Q 16.015625 51.171875 16.015625 36.375 
Q 16.015625 21.625 22.71875 14.15625 
Q 29.4375 6.6875 42.828125 6.6875 
Q 48.046875 6.6875 52.140625 7.59375 
Q 56.25 8.5 59.515625 10.40625 
" id="BitstreamVeraSans-Roman-47"/>
     </defs>
     <g transform="translate(279.3646875 418.865625)scale(0.12 -0.12)">
      <use xlink:href="#BitstreamVeraSans-Roman-47"/>
      <use x="77.490234375" xlink:href="#BitstreamVeraSans-Roman-65"/>
      <use x="139.013671875" xlink:href="#BitstreamVeraSans-Roman-6e"/>
      <use x="202.392578125" xlink:href="#BitstreamVeraSans-Roman-65"/>
     </g>
    </g>
   </g>
   <g id="matplotlib.axis_2">
    <g id="ytick_1">
     <g id="line2d_41">
      <defs>
       <path d="M 0 0 
L 4 0 
" id="m60155c059c" style="stroke:#000000;stroke-width:0.5;"/>
      </defs>
      <g>
       <use style="stroke:#000000;stroke-width:0.5;" x="72.0" xlink:href="#m60155c059c" y="388.8"/>
      </g>
     </g>
     <g id="line2d_42">
      <defs>
       <path d="M 0 0 
L -4 0 
" id="m042ac06592" style="stroke:#000000;stroke-width:0.5;"/>
      </defs>
      <g>
       <use style="stroke:#000000;stroke-width:0.5;" x="518.4" xlink:href="#m042ac06592" y="388.8"/>
      </g>
     </g>
     <g id="text_4">
      <!-- −8 -->
      <defs>
       <path d="M 10.59375 35.5 
L 73.1875 35.5 
L 73.1875 27.203125 
L 10.59375 27.203125 
z
" id="BitstreamVeraSans-Roman-2212"/>
       <path d="M 31.78125 34.625 
Q 24.75 34.625 20.71875 30.859375 
Q 16.703125 27.09375 16.703125 20.515625 
Q 16.703125 13.921875 20.71875 10.15625 
Q 24.75 6.390625 31.78125 6.390625 
Q 38.8125 6.390625 42.859375 10.171875 
Q 46.921875 13.96875 46.921875 20.515625 
Q 46.921875 27.09375 42.890625 30.859375 
Q 38.875 34.625 31.78125 34.625 
M 21.921875 38.8125 
Q 15.578125 40.375 12.03125 44.71875 
Q 8.5 49.078125 8.5 55.328125 
Q 8.5 64.0625 14.71875 69.140625 
Q 20.953125 74.21875 31.78125 74.21875 
Q 42.671875 74.21875 48.875 69.140625 
Q 55.078125 64.0625 55.078125 55.328125 
Q 55.078125 49.078125 51.53125 44.71875 
Q 48 40.375 41.703125 38.8125 
Q 48.828125 37.15625 52.796875 32.3125 
Q 56.78125 27.484375 56.78125 20.515625 
Q 56.78125 9.90625 50.3125 4.234375 
Q 43.84375 -1.421875 31.78125 -1.421875 
Q 19.734375 -1.421875 13.25 4.234375 
Q 6.78125 9.90625 6.78125 20.515625 
Q 6.78125 27.484375 10.78125 32.3125 
Q 14.796875 37.15625 21.921875 38.8125 
M 18.3125 54.390625 
Q 18.3125 48.734375 21.84375 45.5625 
Q 25.390625 42.390625 31.78125 42.390625 
Q 38.140625 42.390625 41.71875 45.5625 
Q 45.3125 48.734375 45.3125 54.390625 
Q 45.3125 60.0625 41.71875 63.234375 
Q 38.140625 66.40625 31.78125 66.40625 
Q 25.390625 66.40625 21.84375 63.234375 
Q 18.3125 60.0625 18.3125 54.390625 
" id="BitstreamVeraSans-Roman-38"/>
      </defs>
      <g transform="translate(50.309375 392.11125)scale(0.12 -0.12)">
       <use xlink:href="#BitstreamVeraSans-Roman-2212"/>
       <use x="83.7890625" xlink:href="#BitstreamVeraSans-Roman-38"/>
      </g>
     </g>
    </g>
    <g id="ytick_2">
     <g id="line2d_43">
      <g>
       <use style="stroke:#000000;stroke-width:0.5;" x="72.0" xlink:href="#m60155c059c" y="345.6"/>
      </g>
     </g>
     <g id="line2d_44">
      <g>
       <use style="stroke:#000000;stroke-width:0.5;" x="518.4" xlink:href="#m042ac06592" y="345.6"/>
      </g>
     </g>
     <g id="text_5">
      <!-- −6 -->
      <defs>
       <path d="M 33.015625 40.375 
Q 26.375 40.375 22.484375 35.828125 
Q 18.609375 31.296875 18.609375 23.390625 
Q 18.609375 15.53125 22.484375 10.953125 
Q 26.375 6.390625 33.015625 6.390625 
Q 39.65625 6.390625 43.53125 10.953125 
Q 47.40625 15.53125 47.40625 23.390625 
Q 47.40625 31.296875 43.53125 35.828125 
Q 39.65625 40.375 33.015625 40.375 
M 52.59375 71.296875 
L 52.59375 62.3125 
Q 48.875 64.0625 45.09375 64.984375 
Q 41.3125 65.921875 37.59375 65.921875 
Q 27.828125 65.921875 22.671875 59.328125 
Q 17.53125 52.734375 16.796875 39.40625 
Q 19.671875 43.65625 24.015625 45.921875 
Q 28.375 48.1875 33.59375 48.1875 
Q 44.578125 48.1875 50.953125 41.515625 
Q 57.328125 34.859375 57.328125 23.390625 
Q 57.328125 12.15625 50.6875 5.359375 
Q 44.046875 -1.421875 33.015625 -1.421875 
Q 20.359375 -1.421875 13.671875 8.265625 
Q 6.984375 17.96875 6.984375 36.375 
Q 6.984375 53.65625 15.1875 63.9375 
Q 23.390625 74.21875 37.203125 74.21875 
Q 40.921875 74.21875 44.703125 73.484375 
Q 48.484375 72.75 52.59375 71.296875 
" id="BitstreamVeraSans-Roman-36"/>
      </defs>
      <g transform="translate(50.309375 348.91125)scale(0.12 -0.12)">
       <use xlink:href="#BitstreamVeraSans-Roman-2212"/>
       <use x="83.7890625" xlink:href="#BitstreamVeraSans-Roman-36"/>
      </g>
     </g>
    </g>
    <g id="ytick_3">
     <g id="line2d_45">
      <g>
       <use style="stroke:#000000;stroke-width:0.5;" x="72.0" xlink:href="#m60155c059c" y="302.4"/>
      </g>
     </g>
     <g id="line2d_46">
      <g>
       <use style="stroke:#000000;stroke-width:0.5;" x="518.4" xlink:href="#m042ac06592" y="302.4"/>
      </g>
     </g>
     <g id="text_6">
      <!-- −4 -->
      <defs>
       <path d="M 37.796875 64.3125 
L 12.890625 25.390625 
L 37.796875 25.390625 
z
M 35.203125 72.90625 
L 47.609375 72.90625 
L 47.609375 25.390625 
L 58.015625 25.390625 
L 58.015625 17.1875 
L 47.609375 17.1875 
L 47.609375 0 
L 37.796875 0 
L 37.796875 17.1875 
L 4.890625 17.1875 
L 4.890625 26.703125 
z
" id="BitstreamVeraSans-Roman-34"/>
      </defs>
      <g transform="translate(50.309375 305.71125)scale(0.12 -0.12)">
       <use xlink:href="#BitstreamVeraSans-Roman-2212"/>
       <use x="83.7890625" xlink:href="#BitstreamVeraSans-Roman-34"/>
      </g>
     </g>
    </g>
    <g id="ytick_4">
     <g id="line2d_47">
      <g>
       <use style="stroke:#000000;stroke-width:0.5;" x="72.0" xlink:href="#m60155c059c" y="259.2"/>
      </g>
     </g>
     <g id="line2d_48">
      <g>
       <use style="stroke:#000000;stroke-width:0.5;" x="518.4" xlink:href="#m042ac06592" y="259.2"/>
      </g>
     </g>
     <g id="text_7">
      <!-- −2 -->
      <defs>
       <path d="M 19.1875 8.296875 
L 53.609375 8.296875 
L 53.609375 0 
L 7.328125 0 
L 7.328125 8.296875 
Q 12.9375 14.109375 22.625 23.890625 
Q 32.328125 33.6875 34.8125 36.53125 
Q 39.546875 41.84375 41.421875 45.53125 
Q 43.3125 49.21875 43.3125 52.78125 
Q 43.3125 58.59375 39.234375 62.25 
Q 35.15625 65.921875 28.609375 65.921875 
Q 23.96875 65.921875 18.8125 64.3125 
Q 13.671875 62.703125 7.8125 59.421875 
L 7.8125 69.390625 
Q 13.765625 71.78125 18.9375 73 
Q 24.125 74.21875 28.421875 74.21875 
Q 39.75 74.21875 46.484375 68.546875 
Q 53.21875 62.890625 53.21875 53.421875 
Q 53.21875 48.921875 51.53125 44.890625 
Q 49.859375 40.875 45.40625 35.40625 
Q 44.1875 33.984375 37.640625 27.21875 
Q 31.109375 20.453125 19.1875 8.296875 
" id="BitstreamVeraSans-Roman-32"/>
      </defs>
      <g transform="translate(50.309375 262.51125)scale(0.12 -0.12)">
       <use xlink:href="#BitstreamVeraSans-Roman-2212"/>
       <use x="83.7890625" xlink:href="#BitstreamVeraSans-Roman-32"/>
      </g>
     </g>
    </g>
    <g id="ytick_5">
     <g id="line2d_49">
      <g>
       <use style="stroke:#000000;stroke-width:0.5;" x="72.0" xlink:href="#m60155c059c" y="216.0"/>
      </g>
     </g>
     <g id="line2d_50">
      <g>
       <use style="stroke:#000000;stroke-width:0.5;" x="518.4" xlink:href="#m042ac06592" y="216.0"/>
      </g>
     </g>
     <g id="text_8">
      <!-- 0 -->
      <defs>
       <path d="M 31.78125 66.40625 
Q 24.171875 66.40625 20.328125 58.90625 
Q 16.5 51.421875 16.5 36.375 
Q 16.5 21.390625 20.328125 13.890625 
Q 24.171875 6.390625 31.78125 6.390625 
Q 39.453125 6.390625 43.28125 13.890625 
Q 47.125 21.390625 47.125 36.375 
Q 47.125 51.421875 43.28125 58.90625 
Q 39.453125 66.40625 31.78125 66.40625 
M 31.78125 74.21875 
Q 44.046875 74.21875 50.515625 64.515625 
Q 56.984375 54.828125 56.984375 36.375 
Q 56.984375 17.96875 50.515625 8.265625 
Q 44.046875 -1.421875 31.78125 -1.421875 
Q 19.53125 -1.421875 13.0625 8.265625 
Q 6.59375 17.96875 6.59375 36.375 
Q 6.59375 54.828125 13.0625 64.515625 
Q 19.53125 74.21875 31.78125 74.21875 
" id="BitstreamVeraSans-Roman-30"/>
      </defs>
      <g transform="translate(60.365 219.31125)scale(0.12 -0.12)">
       <use xlink:href="#BitstreamVeraSans-Roman-30"/>
      </g>
     </g>
    </g>
    <g id="ytick_6">
     <g id="line2d_51">
      <g>
       <use style="stroke:#000000;stroke-width:0.5;" x="72.0" xlink:href="#m60155c059c" y="172.8"/>
      </g>
     </g>
     <g id="line2d_52">
      <g>
       <use style="stroke:#000000;stroke-width:0.5;" x="518.4" xlink:href="#m042ac06592" y="172.8"/>
      </g>
     </g>
     <g id="text_9">
      <!-- 2 -->
      <g transform="translate(60.365 176.11125)scale(0.12 -0.12)">
       <use xlink:href="#BitstreamVeraSans-Roman-32"/>
      </g>
     </g>
    </g>
    <g id="ytick_7">
     <g id="line2d_53">
      <g>
       <use style="stroke:#000000;stroke-width:0.5;" x="72.0" xlink:href="#m60155c059c" y="129.6"/>
      </g>
     </g>
     <g id="line2d_54">
      <g>
       <use style="stroke:#000000;stroke-width:0.5;" x="518.4" xlink:href="#m042ac06592" y="129.6"/>
      </g>
     </g>
     <g id="text_10">
      <!-- 4 -->
      <g transform="translate(60.365 132.91125)scale(0.12 -0.12)">
       <use xlink:href="#BitstreamVeraSans-Roman-34"/>
      </g>
     </g>
    </g>
    <g id="ytick_8">
     <g id="line2d_55">
      <g>
       <use style="stroke:#000000;stroke-width:0.5;" x="72.0" xlink:href="#m60155c059c" y="86.4"/>
      </g>
     </g>
     <g id="line2d_56">
      <g>
       <use style="stroke:#000000;stroke-width:0.5;" x="518.4" xlink:href="#m042ac06592" y="86.4"/>
      </g>
     </g>
     <g id="text_11">
      <!-- 6 -->
      <g transform="translate(60.365 89.71125)scale(0.12 -0.12)">
       <use xlink:href="#BitstreamVeraSans-Roman-36"/>
      </g>
     </g>
    </g>
    <g id="ytick_9">
     <g id="line2d_57">
      <g>
       <use style="stroke:#000000;stroke-width:0.5;" x="72.0" xlink:href="#m60155c059c" y="43.2"/>
      </g>
     </g>
     <g id="line2d_58">
      <g>
       <use style="stroke:#000000;stroke-width:0.5;" x="518.4" xlink:href="#m042ac06592" y="43.2"/>
      </g>
     </g>
     <g id="text_12">
      <!-- 8 -->
      <g transform="translate(60.365 46.51125)scale(0.12 -0.12)">
       <use xlink:href="#BitstreamVeraSans-Roman-38"/>
      </g>
     </g>
    </g>
    <g id="text_13">
     <!-- value -->
     <defs>
      <path d="M 2.984375 54.6875 
L 12.5 54.6875 
L 29.59375 8.796875 
L 46.6875 54.6875 
L 56.203125 54.6875 
L 35.6875 0 
L 23.484375 0 
z
" id="BitstreamVeraSans-Roman-76"/>
      <path d="M 8.5 21.578125 
L 8.5 54.6875 
L 17.484375 54.6875 
L 17.484375 21.921875 
Q 17.484375 14.15625 20.5 10.265625 
Q 23.53125 6.390625 29.59375 6.390625 
Q 36.859375 6.390625 41.078125 11.03125 
Q 45.3125 15.671875 45.3125 23.6875 
L 45.3125 54.6875 
L 54.296875 54.6875 
L 54.296875 0 
L 45.3125 0 
L 45.3125 8.40625 
Q 42.046875 3.421875 37.71875 1 
Q 33.40625 -1.421875 27.6875 -1.421875 
Q 18.265625 -1.421875 13.375 4.4375 
Q 8.5 10.296875 8.5 21.578125 
" id="BitstreamVeraSans-Roman-75"/>
     </defs>
     <g transform="translate(42.81375 232.389375)rotate(-90.0)scale(0.12 -0.12)">
      <use xlink:href="#BitstreamVeraSans-Roman-76"/>
      <use x="59.1796875" xlink:href="#BitstreamVeraSans-Roman-61"/>
      <use x="120.458984375" xlink:href="#BitstreamVeraSans-Roman-6c"/>
      <use x="148.2421875" xlink:href="#BitstreamVeraSans-Roman-75"/>
      <use x="211.62109375" xlink:href="#BitstreamVeraSans-Roman-65"/>
     </g>
    </g>
   </g>
   <g id="legend_1">
    <g id="patch_16">
     <path d="M 318.4965 136.94325 
L 511.2 136.94325 
L 511.2 50.4 
L 318.4965 50.4 
z
" style="fill:#ffffff;stroke:#000000;stroke-linejoin:miter;"/>
    </g>
    <g id="text_14">
     <!-- Quadrants -->
     <defs>
      <path d="M 39.40625 66.21875 
Q 28.65625 66.21875 22.328125 58.203125 
Q 16.015625 50.203125 16.015625 36.375 
Q 16.015625 22.609375 22.328125 14.59375 
Q 28.65625 6.59375 39.40625 6.59375 
Q 50.140625 6.59375 56.421875 14.59375 
Q 62.703125 22.609375 62.703125 36.375 
Q 62.703125 50.203125 56.421875 58.203125 
Q 50.140625 66.21875 39.40625 66.21875 
M 53.21875 1.3125 
L 66.21875 -12.890625 
L 54.296875 -12.890625 
L 43.5 -1.21875 
Q 41.890625 -1.3125 41.03125 -1.359375 
Q 40.1875 -1.421875 39.40625 -1.421875 
Q 24.03125 -1.421875 14.8125 8.859375 
Q 5.609375 19.140625 5.609375 36.375 
Q 5.609375 53.65625 14.8125 63.9375 
Q 24.03125 74.21875 39.40625 74.21875 
Q 54.734375 74.21875 63.90625 63.9375 
Q 73.09375 53.65625 73.09375 36.375 
Q 73.09375 23.6875 67.984375 14.640625 
Q 62.890625 5.609375 53.21875 1.3125 
" id="BitstreamVeraSans-Roman-51"/>
      <path d="M 18.3125 70.21875 
L 18.3125 54.6875 
L 36.8125 54.6875 
L 36.8125 47.703125 
L 18.3125 47.703125 
L 18.3125 18.015625 
Q 18.3125 11.328125 20.140625 9.421875 
Q 21.96875 7.515625 27.59375 7.515625 
L 36.8125 7.515625 
L 36.8125 0 
L 27.59375 0 
Q 17.1875 0 13.234375 3.875 
Q 9.28125 7.765625 9.28125 18.015625 
L 9.28125 47.703125 
L 2.6875 47.703125 
L 2.6875 54.6875 
L 9.28125 54.6875 
L 9.28125 70.21875 
z
" id="BitstreamVeraSans-Roman-74"/>
      <path d="M 44.28125 53.078125 
L 44.28125 44.578125 
Q 40.484375 46.53125 36.375 47.5 
Q 32.28125 48.484375 27.875 48.484375 
Q 21.1875 48.484375 17.84375 46.4375 
Q 14.5 44.390625 14.5 40.28125 
Q 14.5 37.15625 16.890625 35.375 
Q 19.28125 33.59375 26.515625 31.984375 
L 29.59375 31.296875 
Q 39.15625 29.25 43.1875 25.515625 
Q 47.21875 21.78125 47.21875 15.09375 
Q 47.21875 7.46875 41.1875 3.015625 
Q 35.15625 -1.421875 24.609375 -1.421875 
Q 20.21875 -1.421875 15.453125 -0.5625 
Q 10.6875 0.296875 5.421875 2 
L 5.421875 11.28125 
Q 10.40625 8.6875 15.234375 7.390625 
Q 20.0625 6.109375 24.8125 6.109375 
Q 31.15625 6.109375 34.5625 8.28125 
Q 37.984375 10.453125 37.984375 14.40625 
Q 37.984375 18.0625 35.515625 20.015625 
Q 33.0625 21.96875 24.703125 23.78125 
L 21.578125 24.515625 
Q 13.234375 26.265625 9.515625 29.90625 
Q 5.8125 33.546875 5.8125 39.890625 
Q 5.8125 47.609375 11.28125 51.796875 
Q 16.75 56 26.8125 56 
Q 31.78125 56 36.171875 55.265625 
Q 40.578125 54.546875 44.28125 53.078125 
" id="BitstreamVeraSans-Roman-73"/>
     </defs>
     <g transform="translate(383.4129375 65.278125)scale(0.12 -0.12)">
      <use xlink:href="#BitstreamVeraSans-Roman-51"/>
      <use x="78.7109375" xlink:href="#BitstreamVeraSans-Roman-75"/>
      <use x="142.08984375" xlink:href="#BitstreamVeraSans-Roman-61"/>
      <use x="203.369140625" xlink:href="#BitstreamVeraSans-Roman-64"/>
      <use x="266.845703125" xlink:href="#BitstreamVeraSans-Roman-72"/>
      <use x="307.958984375" xlink:href="#BitstreamVeraSans-Roman-61"/>
      <use x="369.23828125" xlink:href="#BitstreamVeraSans-Roman-6e"/>
      <use x="432.6171875" xlink:href="#BitstreamVeraSans-Roman-74"/>
      <use x="471.826171875" xlink:href="#BitstreamVeraSans-Roman-73"/>
     </g>
    </g>
    <g id="patch_17">
     <path d="M 324.2565 85.9155 
L 353.0565 85.9155 
L 353.0565 75.8355 
L 324.2565 75.8355 
z
" style="fill:#2020df;stroke:#262626;stroke-linejoin:miter;stroke-width:0.5;"/>
    </g>
    <g id="text_15">
     <!-- MTOC -->
     <defs>
      <path d="M 39.40625 66.21875 
Q 28.65625 66.21875 22.328125 58.203125 
Q 16.015625 50.203125 16.015625 36.375 
Q 16.015625 22.609375 22.328125 14.59375 
Q 28.65625 6.59375 39.40625 6.59375 
Q 50.140625 6.59375 56.421875 14.59375 
Q 62.703125 22.609375 62.703125 36.375 
Q 62.703125 50.203125 56.421875 58.203125 
Q 50.140625 66.21875 39.40625 66.21875 
M 39.40625 74.21875 
Q 54.734375 74.21875 63.90625 63.9375 
Q 73.09375 53.65625 73.09375 36.375 
Q 73.09375 19.140625 63.90625 8.859375 
Q 54.734375 -1.421875 39.40625 -1.421875 
Q 24.03125 -1.421875 14.8125 8.828125 
Q 5.609375 19.09375 5.609375 36.375 
Q 5.609375 53.65625 14.8125 63.9375 
Q 24.03125 74.21875 39.40625 74.21875 
" id="BitstreamVeraSans-Roman-4f"/>
      <path d="M 9.8125 72.90625 
L 24.515625 72.90625 
L 43.109375 23.296875 
L 61.8125 72.90625 
L 76.515625 72.90625 
L 76.515625 0 
L 66.890625 0 
L 66.890625 64.015625 
L 48.09375 14.015625 
L 38.1875 14.015625 
L 19.390625 64.015625 
L 19.390625 0 
L 9.8125 0 
z
" id="BitstreamVeraSans-Roman-4d"/>
      <path d="M -0.296875 72.90625 
L 61.375 72.90625 
L 61.375 64.59375 
L 35.5 64.59375 
L 35.5 0 
L 25.59375 0 
L 25.59375 64.59375 
L -0.296875 64.59375 
z
" id="BitstreamVeraSans-Roman-54"/>
      <path d="M 64.40625 67.28125 
L 64.40625 56.890625 
Q 59.421875 61.53125 53.78125 63.8125 
Q 48.140625 66.109375 41.796875 66.109375 
Q 29.296875 66.109375 22.65625 58.46875 
Q 16.015625 50.828125 16.015625 36.375 
Q 16.015625 21.96875 22.65625 14.328125 
Q 29.296875 6.6875 41.796875 6.6875 
Q 48.140625 6.6875 53.78125 8.984375 
Q 59.421875 11.28125 64.40625 15.921875 
L 64.40625 5.609375 
Q 59.234375 2.09375 53.4375 0.328125 
Q 47.65625 -1.421875 41.21875 -1.421875 
Q 24.65625 -1.421875 15.125 8.703125 
Q 5.609375 18.84375 5.609375 36.375 
Q 5.609375 53.953125 15.125 64.078125 
Q 24.65625 74.21875 41.21875 74.21875 
Q 47.75 74.21875 53.53125 72.484375 
Q 59.328125 70.75 64.40625 67.28125 
" id="BitstreamVeraSans-Roman-43"/>
     </defs>
     <g transform="translate(364.5765 85.9155)scale(0.144 -0.144)">
      <use xlink:href="#BitstreamVeraSans-Roman-4d"/>
      <use x="86.279296875" xlink:href="#BitstreamVeraSans-Roman-54"/>
      <use x="147.36328125" xlink:href="#BitstreamVeraSans-Roman-4f"/>
      <use x="226.07421875" xlink:href="#BitstreamVeraSans-Roman-43"/>
     </g>
    </g>
    <g id="patch_18">
     <path d="M 324.2565 107.052 
L 353.0565 107.052 
L 353.0565 96.972 
L 324.2565 96.972 
z
" style="fill:#107010;stroke:#262626;stroke-linejoin:miter;stroke-width:0.5;"/>
    </g>
    <g id="text_16">
     <!-- Non MTOC -->
     <defs>
      <path id="BitstreamVeraSans-Roman-20"/>
      <path d="M 9.8125 72.90625 
L 23.09375 72.90625 
L 55.421875 11.921875 
L 55.421875 72.90625 
L 64.984375 72.90625 
L 64.984375 0 
L 51.703125 0 
L 19.390625 60.984375 
L 19.390625 0 
L 9.8125 0 
z
" id="BitstreamVeraSans-Roman-4e"/>
     </defs>
     <g transform="translate(364.5765 107.052)scale(0.144 -0.144)">
      <use xlink:href="#BitstreamVeraSans-Roman-4e"/>
      <use x="74.8046875" xlink:href="#BitstreamVeraSans-Roman-6f"/>
      <use x="135.986328125" xlink:href="#BitstreamVeraSans-Roman-6e"/>
      <use x="199.365234375" xlink:href="#BitstreamVeraSans-Roman-20"/>
      <use x="231.15234375" xlink:href="#BitstreamVeraSans-Roman-4d"/>
      <use x="317.431640625" xlink:href="#BitstreamVeraSans-Roman-54"/>
      <use x="378.515625" xlink:href="#BitstreamVeraSans-Roman-4f"/>
      <use x="457.2265625" xlink:href="#BitstreamVeraSans-Roman-43"/>
     </g>
    </g>
    <g id="patch_19">
     <path d="M 324.2565 128.1885 
L 353.0565 128.1885 
L 353.0565 118.1085 
L 324.2565 118.1085 
z
" style="fill:#df2020;stroke:#262626;stroke-linejoin:miter;stroke-width:0.5;"/>
    </g>
    <g id="text_17">
     <!-- MTOC leading edge -->
     <g transform="translate(364.5765 128.1885)scale(0.144 -0.144)">
      <use xlink:href="#BitstreamVeraSans-Roman-4d"/>
      <use x="86.279296875" xlink:href="#BitstreamVeraSans-Roman-54"/>
      <use x="147.36328125" xlink:href="#BitstreamVeraSans-Roman-4f"/>
      <use x="226.07421875" xlink:href="#BitstreamVeraSans-Roman-43"/>
      <use x="295.8984375" xlink:href="#BitstreamVeraSans-Roman-20"/>
      <use x="327.685546875" xlink:href="#BitstreamVeraSans-Roman-6c"/>
      <use x="355.46875" xlink:href="#BitstreamVeraSans-Roman-65"/>
      <use x="416.9921875" xlink:href="#BitstreamVeraSans-Roman-61"/>
      <use x="478.271484375" xlink:href="#BitstreamVeraSans-Roman-64"/>
      <use x="541.748046875" xlink:href="#BitstreamVeraSans-Roman-69"/>
      <use x="569.53125" xlink:href="#BitstreamVeraSans-Roman-6e"/>
      <use x="632.91015625" xlink:href="#BitstreamVeraSans-Roman-67"/>
      <use x="696.38671875" xlink:href="#BitstreamVeraSans-Roman-20"/>
      <use x="728.173828125" xlink:href="#BitstreamVeraSans-Roman-65"/>
      <use x="789.697265625" xlink:href="#BitstreamVeraSans-Roman-64"/>
      <use x="853.173828125" xlink:href="#BitstreamVeraSans-Roman-67"/>
      <use x="916.650390625" xlink:href="#BitstreamVeraSans-Roman-65"/>
     </g>
    </g>
   </g>
  </g>
 </g>
 <defs>
  <clipPath id="p9511d80913">
   <rect height="345.6" width="446.4" x="72.0" y="43.2"/>
  </clipPath>
 </defs>
</svg>
