<?xml version="1.0" encoding="utf-8" standalone="no"?>
<!DOCTYPE svg PUBLIC "-//W3C//DTD SVG 1.1//EN"
  "http://www.w3.org/Graphics/SVG/1.1/DTD/svg11.dtd">
<!-- Created with matplotlib (http://matplotlib.org/) -->
<svg height="1080pt" version="1.1" viewBox="0 0 1080 1080" width="1080pt" xmlns="http://www.w3.org/2000/svg" xmlns:xlink="http://www.w3.org/1999/xlink">
 <defs>
  <style type="text/css">
*{stroke-linecap:butt;stroke-linejoin:round;stroke-miterlimit:100000;}
  </style>
 </defs>
 <g id="figure_1">
  <g id="patch_1">
   <path d="M 0 1080 
L 1080 1080 
L 1080 0 
L 0 0 
z
" style="fill:#ffffff;"/>
  </g>
  <g id="axes_1">
   <g id="patch_2">
    <path d="M 135 972 
L 972 972 
L 972 108 
L 135 108 
z
" style="fill:#ffffff;"/>
   </g>
   <g id="line2d_1">
    <path clip-path="url(#p832a6a253c)" d="M 135 878.042987 
L 143.454545 883.09949 
L 151.909091 881.971979 
L 160.363636 877.69419 
L 168.818182 867.598446 
L 177.272727 870.49031 
L 185.727273 877.400422 
L 194.181818 873.942174 
L 202.636364 878.924355 
L 211.090909 877.474859 
L 219.545455 877.764575 
L 228 873.225114 
L 236.454545 870.857684 
L 244.909091 866.7249 
L 253.363636 862.943574 
L 261.818182 861.855779 
L 270.272727 857.386596 
L 278.727273 859.430679 
L 287.181818 859.567336 
L 295.636364 862.856406 
L 304.090909 860.510693 
L 312.545455 860.77018 
L 321 859.267044 
L 329.454545 859.243541 
L 337.909091 864.529204 
L 346.363636 861.325024 
L 354.818182 858.822575 
L 363.272727 860.934274 
L 371.727273 861.929833 
L 380.181818 856.671214 
L 388.636364 856.881525 
L 397.090909 854.2543 
L 405.545455 853.891933 
L 414 859.87107 
L 422.454545 861.210823 
L 430.909091 862.028184 
L 439.363636 860.60501 
L 447.818182 860.827296 
L 456.272727 859.269887 
L 464.727273 857.162767 
L 473.181818 854.059667 
L 481.636364 854.147159 
L 490.090909 851.730178 
L 498.545455 853.993139 
L 507 851.691698 
L 515.454545 854.888877 
L 523.909091 851.727856 
L 532.363636 848.99775 
L 540.818182 847.265402 
L 549.272727 845.346646 
L 557.727273 846.356241 
L 566.181818 845.36218 
L 574.636364 850.319497 
L 583.090909 848.036291 
L 591.545455 847.858055 
L 600 846.64996 
L 608.454545 847.672283 
L 616.909091 851.254299 
L 625.363636 849.145717 
L 633.818182 850.61089 
L 642.272727 849.738213 
L 650.727273 848.050061 
L 659.181818 844.774591 
L 667.636364 844.835189 
L 676.090909 844.412178 
L 684.545455 846.02837 
L 693 845.56118 
L 701.454545 843.344118 
L 709.909091 843.822775 
L 718.363636 845.957915 
L 726.818182 847.307284 
L 735.272727 847.24042 
L 743.727273 847.27828 
L 752.181818 847.761376 
L 760.636364 849.519044 
L 769.090909 847.580351 
L 777.545455 848.583458 
L 786 849.032655 
L 794.454545 853.438554 
L 802.909091 854.3083 
L 811.363636 853.452936 
L 819.818182 858.025522 
L 828.272727 857.525184 
L 836.727273 857.527845 
L 845.181818 857.437903 
L 853.636364 857.19312 
L 862.090909 858.698785 
L 870.545455 859.945104 
L 879 860.465921 
L 887.454545 862.564717 
L 895.909091 864.499696 
L 904.363636 866.095492 
L 912.818182 868.541259 
L 921.272727 869.078367 
L 929.727273 871.621059 
L 938.181818 873.795406 
L 946.636364 874.037997 
L 955.090909 874.01468 
L 963.545455 875.549242 
L 972 876 
" style="fill:none;stroke:#1e95bb;stroke-linecap:square;stroke-width:3.0;"/>
   </g>
   <g id="line2d_2">
    <path clip-path="url(#p832a6a253c)" d="M 135 143.436316 
L 143.454545 198.443971 
L 151.909091 216.942431 
L 160.363636 223.716035 
L 168.818182 227.655358 
L 177.272727 253.014402 
L 185.727273 307.075596 
L 194.181818 310.105338 
L 202.636364 354.874907 
L 211.090909 382.09502 
L 219.545455 400.068822 
L 228 406.596238 
L 236.454545 419.438941 
L 244.909091 417.253991 
L 253.363636 422.888941 
L 261.818182 438.753037 
L 270.272727 448.122744 
L 278.727273 471.958825 
L 287.181818 485.056494 
L 295.636364 506.495131 
L 304.090909 510.797931 
L 312.545455 527.832414 
L 321 535.446743 
L 329.454545 554.957537 
L 337.909091 580.75743 
L 346.363636 589.560383 
L 354.818182 600.306248 
L 363.272727 610.806639 
L 371.727273 619.317728 
L 380.181818 620.257017 
L 388.636364 637.642542 
L 397.090909 642.484091 
L 405.545455 652.0092 
L 414 670.082912 
L 422.454545 683.845737 
L 430.909091 694.649971 
L 439.363636 698.818514 
L 447.818182 705.389752 
L 456.272727 710.392436 
L 464.727273 713.601051 
L 473.181818 716.446032 
L 481.636364 722.892267 
L 490.090909 722.854379 
L 498.545455 733.768486 
L 507 733.707408 
L 515.454545 742.906598 
L 523.909091 743.657748 
L 532.363636 750.115813 
L 540.818182 755.226857 
L 549.272727 755.2097 
L 557.727273 762.161067 
L 566.181818 763.878548 
L 574.636364 774.070487 
L 583.090909 774.519155 
L 591.545455 776.759624 
L 600 778.513387 
L 608.454545 784.264607 
L 616.909091 790.657817 
L 625.363636 791.773684 
L 633.818182 795.605543 
L 642.272727 797.123526 
L 650.727273 797.450644 
L 659.181818 795.917745 
L 667.636364 798.512319 
L 676.090909 800.665883 
L 684.545455 805.640203 
L 693 807.317217 
L 701.454545 808.664178 
L 709.909091 812.59209 
L 718.363636 816.037819 
L 726.818182 820.471778 
L 735.272727 821.145233 
L 743.727273 821.849857 
L 752.181818 823.266773 
L 760.636364 826.198224 
L 769.090909 827.26678 
L 777.545455 828.134967 
L 786 831.532736 
L 794.454545 837.827519 
L 802.909091 840.427008 
L 811.363636 841.511552 
L 819.818182 846.242715 
L 828.272727 847.105874 
L 836.727273 848.709784 
L 845.181818 850.02048 
L 853.636364 851.276668 
L 862.090909 853.553428 
L 870.545455 856.91875 
L 879 858.154006 
L 887.454545 860.81014 
L 895.909091 864.049174 
L 904.363636 866.619778 
L 912.818182 870.142957 
L 921.272727 871.70766 
L 929.727273 875.311244 
L 938.181818 877.237277 
L 946.636364 877.44194 
L 955.090909 878.415892 
L 963.545455 879.77211 
L 972 876 
" style="fill:none;stroke:#3ab6df;stroke-linecap:square;stroke-width:3.0;"/>
   </g>
   <g id="line2d_3">
    <path clip-path="url(#p832a6a253c)" d="M 135 876 
L 143.454545 876 
L 151.909091 876 
L 160.363636 876 
L 168.818182 876 
L 177.272727 876 
L 185.727273 876 
L 194.181818 876 
L 202.636364 876 
L 211.090909 876 
L 219.545455 876 
L 228 876 
L 236.454545 876 
L 244.909091 876 
L 253.363636 876 
L 261.818182 876 
L 270.272727 876 
L 278.727273 876 
L 287.181818 876 
L 295.636364 876 
L 304.090909 876 
L 312.545455 876 
L 321 876 
L 329.454545 876 
L 337.909091 876 
L 346.363636 876 
L 354.818182 876 
L 363.272727 876 
L 371.727273 876 
L 380.181818 876 
L 388.636364 876 
L 397.090909 876 
L 405.545455 876 
L 414 876 
L 422.454545 876 
L 430.909091 876 
L 439.363636 876 
L 447.818182 876 
L 456.272727 876 
L 464.727273 876 
L 473.181818 876 
L 481.636364 876 
L 490.090909 876 
L 498.545455 876 
L 507 876 
L 515.454545 876 
L 523.909091 876 
L 532.363636 876 
L 540.818182 876 
L 549.272727 876 
L 557.727273 876 
L 566.181818 876 
L 574.636364 876 
L 583.090909 876 
L 591.545455 876 
L 600 876 
L 608.454545 876 
L 616.909091 876 
L 625.363636 876 
L 633.818182 876 
L 642.272727 876 
L 650.727273 876 
L 659.181818 876 
L 667.636364 876 
L 676.090909 876 
L 684.545455 876 
L 693 876 
L 701.454545 876 
L 709.909091 876 
L 718.363636 876 
L 726.818182 876 
L 735.272727 876 
L 743.727273 876 
L 752.181818 876 
L 760.636364 876 
L 769.090909 876 
L 777.545455 876 
L 786 876 
L 794.454545 876 
L 802.909091 876 
L 811.363636 876 
L 819.818182 876 
L 828.272727 876 
L 836.727273 876 
L 845.181818 876 
L 853.636364 876 
L 862.090909 876 
L 870.545455 876 
L 879 876 
L 887.454545 876 
L 895.909091 876 
L 904.363636 876 
L 912.818182 876 
L 921.272727 876 
L 929.727273 876 
L 938.181818 876 
L 946.636364 876 
L 955.090909 876 
L 963.545455 876 
L 972 876 
" style="fill:none;stroke:#bde7f4;stroke-linecap:square;stroke-width:3.0;"/>
   </g>
   <g id="line2d_4">
    <path clip-path="url(#p832a6a253c)" d="M 135 428.040151 
L 143.454545 457.367072 
L 151.909091 464.965267 
L 160.363636 454.197958 
L 168.818182 459.771855 
L 177.272727 455.571384 
L 185.727273 492.90284 
L 194.181818 492.881763 
L 202.636364 520.422519 
L 211.090909 540.882513 
L 219.545455 555.4136 
L 228 559.01565 
L 236.454545 565.848479 
L 244.909091 561.384068 
L 253.363636 561.636234 
L 261.818182 570.504502 
L 270.272727 574.816769 
L 278.727273 588.151771 
L 287.181818 596.981019 
L 295.636364 611.199595 
L 304.090909 612.350727 
L 312.545455 622.05266 
L 321 627.334276 
L 329.454545 643.147921 
L 337.909091 658.249886 
L 346.363636 661.741523 
L 354.818182 668.207975 
L 363.272727 673.342784 
L 371.727273 679.352306 
L 380.181818 678.49182 
L 388.636364 686.340502 
L 397.090909 690.002966 
L 405.545455 693.452894 
L 414 708.330385 
L 422.454545 719.700595 
L 430.909091 726.38249 
L 439.363636 729.445269 
L 447.818182 735.887637 
L 456.272727 740.170576 
L 464.727273 742.487987 
L 473.181818 745.190965 
L 481.636364 748.928965 
L 490.090909 748.048371 
L 498.545455 757.273877 
L 507 758.69235 
L 515.454545 766.05409 
L 523.909091 767.423832 
L 532.363636 773.181706 
L 540.818182 777.852468 
L 549.272727 777.723128 
L 557.727273 783.859363 
L 566.181818 785.660534 
L 574.636364 794.273987 
L 583.090909 793.355001 
L 591.545455 795.918525 
L 600 793.076582 
L 608.454545 798.330727 
L 616.909091 804.249463 
L 625.363636 805.136164 
L 633.818182 806.662577 
L 642.272727 809.172485 
L 650.727273 810.055368 
L 659.181818 807.624437 
L 667.636364 810.49069 
L 676.090909 812.80444 
L 684.545455 817.516265 
L 693 817.178146 
L 701.454545 817.16745 
L 709.909091 820.357423 
L 718.363636 824.423937 
L 726.818182 825.215327 
L 735.272727 826.677127 
L 743.727273 826.611478 
L 752.181818 826.40658 
L 760.636364 829.579633 
L 769.090909 830.506298 
L 777.545455 831.682083 
L 786 834.044982 
L 794.454545 840.834133 
L 802.909091 843.932753 
L 811.363636 844.339355 
L 819.818182 849.107464 
L 828.272727 848.794459 
L 836.727273 850.658359 
L 845.181818 851.181534 
L 853.636364 852.142453 
L 862.090909 854.663796 
L 870.545455 858.375563 
L 879 859.507932 
L 887.454545 861.943387 
L 895.909091 865.297965 
L 904.363636 867.897854 
L 912.818182 871.752634 
L 921.272727 873.629441 
L 929.727273 877.728272 
L 938.181818 879.591338 
L 946.636364 879.573942 
L 955.090909 879.233379 
L 963.545455 880.622049 
L 972 876 
" style="fill:none;stroke:#efcb1b;stroke-linecap:square;stroke-width:3.0;"/>
   </g>
   <g id="patch_3">
    <path d="M 135 108 
L 972 108 
" style="fill:none;stroke:#000000;stroke-linecap:square;stroke-linejoin:miter;"/>
   </g>
   <g id="patch_4">
    <path d="M 972 972 
L 972 108 
" style="fill:none;stroke:#000000;stroke-linecap:square;stroke-linejoin:miter;"/>
   </g>
   <g id="patch_5">
    <path d="M 135 972 
L 972 972 
" style="fill:none;stroke:#000000;stroke-linecap:square;stroke-linejoin:miter;stroke-width:3.0;"/>
   </g>
   <g id="patch_6">
    <path d="M 135 972 
L 135 108 
" style="fill:none;stroke:#000000;stroke-linecap:square;stroke-linejoin:miter;stroke-width:3.0;"/>
   </g>
   <g id="matplotlib.axis_1">
    <g id="xtick_1">
     <g id="line2d_5">
      <defs>
       <path d="M 0 4 
L 0 -4 
" id="m6bf2cfed1c" style="stroke:#000000;stroke-width:3.0;"/>
      </defs>
      <g>
       <use style="stroke:#000000;stroke-width:3.0;" x="135.0" xlink:href="#m6bf2cfed1c" y="972.0"/>
      </g>
     </g>
     <g id="text_1">
      <!-- 0 -->
      <defs>
       <path d="M 31.78125 66.40625 
Q 24.171875 66.40625 20.328125 58.90625 
Q 16.5 51.421875 16.5 36.375 
Q 16.5 21.390625 20.328125 13.890625 
Q 24.171875 6.390625 31.78125 6.390625 
Q 39.453125 6.390625 43.28125 13.890625 
Q 47.125 21.390625 47.125 36.375 
Q 47.125 51.421875 43.28125 58.90625 
Q 39.453125 66.40625 31.78125 66.40625 
M 31.78125 74.21875 
Q 44.046875 74.21875 50.515625 64.515625 
Q 56.984375 54.828125 56.984375 36.375 
Q 56.984375 17.96875 50.515625 8.265625 
Q 44.046875 -1.421875 31.78125 -1.421875 
Q 19.53125 -1.421875 13.0625 8.265625 
Q 6.59375 17.96875 6.59375 36.375 
Q 6.59375 54.828125 13.0625 64.515625 
Q 19.53125 74.21875 31.78125 74.21875 
" id="BitstreamVeraSans-Roman-30"/>
      </defs>
      <g transform="translate(122.275 1008.39375)scale(0.4 -0.4)">
       <use xlink:href="#BitstreamVeraSans-Roman-30"/>
      </g>
     </g>
    </g>
    <g id="xtick_2">
     <g id="line2d_6">
      <g>
       <use style="stroke:#000000;stroke-width:3.0;" x="219.545454545" xlink:href="#m6bf2cfed1c" y="972.0"/>
      </g>
     </g>
     <g id="text_2">
      <!-- 10 -->
      <defs>
       <path d="M 12.40625 8.296875 
L 28.515625 8.296875 
L 28.515625 63.921875 
L 10.984375 60.40625 
L 10.984375 69.390625 
L 28.421875 72.90625 
L 38.28125 72.90625 
L 38.28125 8.296875 
L 54.390625 8.296875 
L 54.390625 0 
L 12.40625 0 
z
" id="BitstreamVeraSans-Roman-31"/>
      </defs>
      <g transform="translate(194.095454545 1008.39375)scale(0.4 -0.4)">
       <use xlink:href="#BitstreamVeraSans-Roman-31"/>
       <use x="63.623046875" xlink:href="#BitstreamVeraSans-Roman-30"/>
      </g>
     </g>
    </g>
    <g id="xtick_3">
     <g id="line2d_7">
      <g>
       <use style="stroke:#000000;stroke-width:3.0;" x="304.090909091" xlink:href="#m6bf2cfed1c" y="972.0"/>
      </g>
     </g>
     <g id="text_3">
      <!-- 20 -->
      <defs>
       <path d="M 19.1875 8.296875 
L 53.609375 8.296875 
L 53.609375 0 
L 7.328125 0 
L 7.328125 8.296875 
Q 12.9375 14.109375 22.625 23.890625 
Q 32.328125 33.6875 34.8125 36.53125 
Q 39.546875 41.84375 41.421875 45.53125 
Q 43.3125 49.21875 43.3125 52.78125 
Q 43.3125 58.59375 39.234375 62.25 
Q 35.15625 65.921875 28.609375 65.921875 
Q 23.96875 65.921875 18.8125 64.3125 
Q 13.671875 62.703125 7.8125 59.421875 
L 7.8125 69.390625 
Q 13.765625 71.78125 18.9375 73 
Q 24.125 74.21875 28.421875 74.21875 
Q 39.75 74.21875 46.484375 68.546875 
Q 53.21875 62.890625 53.21875 53.421875 
Q 53.21875 48.921875 51.53125 44.890625 
Q 49.859375 40.875 45.40625 35.40625 
Q 44.1875 33.984375 37.640625 27.21875 
Q 31.109375 20.453125 19.1875 8.296875 
" id="BitstreamVeraSans-Roman-32"/>
      </defs>
      <g transform="translate(278.640909091 1008.39375)scale(0.4 -0.4)">
       <use xlink:href="#BitstreamVeraSans-Roman-32"/>
       <use x="63.623046875" xlink:href="#BitstreamVeraSans-Roman-30"/>
      </g>
     </g>
    </g>
    <g id="xtick_4">
     <g id="line2d_8">
      <g>
       <use style="stroke:#000000;stroke-width:3.0;" x="388.636363636" xlink:href="#m6bf2cfed1c" y="972.0"/>
      </g>
     </g>
     <g id="text_4">
      <!-- 30 -->
      <defs>
       <path d="M 40.578125 39.3125 
Q 47.65625 37.796875 51.625 33 
Q 55.609375 28.21875 55.609375 21.1875 
Q 55.609375 10.40625 48.1875 4.484375 
Q 40.765625 -1.421875 27.09375 -1.421875 
Q 22.515625 -1.421875 17.65625 -0.515625 
Q 12.796875 0.390625 7.625 2.203125 
L 7.625 11.71875 
Q 11.71875 9.328125 16.59375 8.109375 
Q 21.484375 6.890625 26.8125 6.890625 
Q 36.078125 6.890625 40.9375 10.546875 
Q 45.796875 14.203125 45.796875 21.1875 
Q 45.796875 27.640625 41.28125 31.265625 
Q 36.765625 34.90625 28.71875 34.90625 
L 20.21875 34.90625 
L 20.21875 43.015625 
L 29.109375 43.015625 
Q 36.375 43.015625 40.234375 45.921875 
Q 44.09375 48.828125 44.09375 54.296875 
Q 44.09375 59.90625 40.109375 62.90625 
Q 36.140625 65.921875 28.71875 65.921875 
Q 24.65625 65.921875 20.015625 65.03125 
Q 15.375 64.15625 9.8125 62.3125 
L 9.8125 71.09375 
Q 15.4375 72.65625 20.34375 73.4375 
Q 25.25 74.21875 29.59375 74.21875 
Q 40.828125 74.21875 47.359375 69.109375 
Q 53.90625 64.015625 53.90625 55.328125 
Q 53.90625 49.265625 50.4375 45.09375 
Q 46.96875 40.921875 40.578125 39.3125 
" id="BitstreamVeraSans-Roman-33"/>
      </defs>
      <g transform="translate(363.186363636 1008.39375)scale(0.4 -0.4)">
       <use xlink:href="#BitstreamVeraSans-Roman-33"/>
       <use x="63.623046875" xlink:href="#BitstreamVeraSans-Roman-30"/>
      </g>
     </g>
    </g>
    <g id="xtick_5">
     <g id="line2d_9">
      <g>
       <use style="stroke:#000000;stroke-width:3.0;" x="473.181818182" xlink:href="#m6bf2cfed1c" y="972.0"/>
      </g>
     </g>
     <g id="text_5">
      <!-- 40 -->
      <defs>
       <path d="M 37.796875 64.3125 
L 12.890625 25.390625 
L 37.796875 25.390625 
z
M 35.203125 72.90625 
L 47.609375 72.90625 
L 47.609375 25.390625 
L 58.015625 25.390625 
L 58.015625 17.1875 
L 47.609375 17.1875 
L 47.609375 0 
L 37.796875 0 
L 37.796875 17.1875 
L 4.890625 17.1875 
L 4.890625 26.703125 
z
" id="BitstreamVeraSans-Roman-34"/>
      </defs>
      <g transform="translate(447.731818182 1008.39375)scale(0.4 -0.4)">
       <use xlink:href="#BitstreamVeraSans-Roman-34"/>
       <use x="63.623046875" xlink:href="#BitstreamVeraSans-Roman-30"/>
      </g>
     </g>
    </g>
    <g id="xtick_6">
     <g id="line2d_10">
      <g>
       <use style="stroke:#000000;stroke-width:3.0;" x="557.727272727" xlink:href="#m6bf2cfed1c" y="972.0"/>
      </g>
     </g>
     <g id="text_6">
      <!-- 50 -->
      <defs>
       <path d="M 10.796875 72.90625 
L 49.515625 72.90625 
L 49.515625 64.59375 
L 19.828125 64.59375 
L 19.828125 46.734375 
Q 21.96875 47.46875 24.109375 47.828125 
Q 26.265625 48.1875 28.421875 48.1875 
Q 40.625 48.1875 47.75 41.5 
Q 54.890625 34.8125 54.890625 23.390625 
Q 54.890625 11.625 47.5625 5.09375 
Q 40.234375 -1.421875 26.90625 -1.421875 
Q 22.3125 -1.421875 17.546875 -0.640625 
Q 12.796875 0.140625 7.71875 1.703125 
L 7.71875 11.625 
Q 12.109375 9.234375 16.796875 8.0625 
Q 21.484375 6.890625 26.703125 6.890625 
Q 35.15625 6.890625 40.078125 11.328125 
Q 45.015625 15.765625 45.015625 23.390625 
Q 45.015625 31 40.078125 35.4375 
Q 35.15625 39.890625 26.703125 39.890625 
Q 22.75 39.890625 18.8125 39.015625 
Q 14.890625 38.140625 10.796875 36.28125 
z
" id="BitstreamVeraSans-Roman-35"/>
      </defs>
      <g transform="translate(532.277272727 1008.39375)scale(0.4 -0.4)">
       <use xlink:href="#BitstreamVeraSans-Roman-35"/>
       <use x="63.623046875" xlink:href="#BitstreamVeraSans-Roman-30"/>
      </g>
     </g>
    </g>
    <g id="xtick_7">
     <g id="line2d_11">
      <g>
       <use style="stroke:#000000;stroke-width:3.0;" x="642.272727273" xlink:href="#m6bf2cfed1c" y="972.0"/>
      </g>
     </g>
     <g id="text_7">
      <!-- 60 -->
      <defs>
       <path d="M 33.015625 40.375 
Q 26.375 40.375 22.484375 35.828125 
Q 18.609375 31.296875 18.609375 23.390625 
Q 18.609375 15.53125 22.484375 10.953125 
Q 26.375 6.390625 33.015625 6.390625 
Q 39.65625 6.390625 43.53125 10.953125 
Q 47.40625 15.53125 47.40625 23.390625 
Q 47.40625 31.296875 43.53125 35.828125 
Q 39.65625 40.375 33.015625 40.375 
M 52.59375 71.296875 
L 52.59375 62.3125 
Q 48.875 64.0625 45.09375 64.984375 
Q 41.3125 65.921875 37.59375 65.921875 
Q 27.828125 65.921875 22.671875 59.328125 
Q 17.53125 52.734375 16.796875 39.40625 
Q 19.671875 43.65625 24.015625 45.921875 
Q 28.375 48.1875 33.59375 48.1875 
Q 44.578125 48.1875 50.953125 41.515625 
Q 57.328125 34.859375 57.328125 23.390625 
Q 57.328125 12.15625 50.6875 5.359375 
Q 44.046875 -1.421875 33.015625 -1.421875 
Q 20.359375 -1.421875 13.671875 8.265625 
Q 6.984375 17.96875 6.984375 36.375 
Q 6.984375 53.65625 15.1875 63.9375 
Q 23.390625 74.21875 37.203125 74.21875 
Q 40.921875 74.21875 44.703125 73.484375 
Q 48.484375 72.75 52.59375 71.296875 
" id="BitstreamVeraSans-Roman-36"/>
      </defs>
      <g transform="translate(616.822727273 1008.39375)scale(0.4 -0.4)">
       <use xlink:href="#BitstreamVeraSans-Roman-36"/>
       <use x="63.623046875" xlink:href="#BitstreamVeraSans-Roman-30"/>
      </g>
     </g>
    </g>
    <g id="xtick_8">
     <g id="line2d_12">
      <g>
       <use style="stroke:#000000;stroke-width:3.0;" x="726.818181818" xlink:href="#m6bf2cfed1c" y="972.0"/>
      </g>
     </g>
     <g id="text_8">
      <!-- 70 -->
      <defs>
       <path d="M 8.203125 72.90625 
L 55.078125 72.90625 
L 55.078125 68.703125 
L 28.609375 0 
L 18.3125 0 
L 43.21875 64.59375 
L 8.203125 64.59375 
z
" id="BitstreamVeraSans-Roman-37"/>
      </defs>
      <g transform="translate(701.368181818 1008.39375)scale(0.4 -0.4)">
       <use xlink:href="#BitstreamVeraSans-Roman-37"/>
       <use x="63.623046875" xlink:href="#BitstreamVeraSans-Roman-30"/>
      </g>
     </g>
    </g>
    <g id="xtick_9">
     <g id="line2d_13">
      <g>
       <use style="stroke:#000000;stroke-width:3.0;" x="811.363636364" xlink:href="#m6bf2cfed1c" y="972.0"/>
      </g>
     </g>
     <g id="text_9">
      <!-- 80 -->
      <defs>
       <path d="M 31.78125 34.625 
Q 24.75 34.625 20.71875 30.859375 
Q 16.703125 27.09375 16.703125 20.515625 
Q 16.703125 13.921875 20.71875 10.15625 
Q 24.75 6.390625 31.78125 6.390625 
Q 38.8125 6.390625 42.859375 10.171875 
Q 46.921875 13.96875 46.921875 20.515625 
Q 46.921875 27.09375 42.890625 30.859375 
Q 38.875 34.625 31.78125 34.625 
M 21.921875 38.8125 
Q 15.578125 40.375 12.03125 44.71875 
Q 8.5 49.078125 8.5 55.328125 
Q 8.5 64.0625 14.71875 69.140625 
Q 20.953125 74.21875 31.78125 74.21875 
Q 42.671875 74.21875 48.875 69.140625 
Q 55.078125 64.0625 55.078125 55.328125 
Q 55.078125 49.078125 51.53125 44.71875 
Q 48 40.375 41.703125 38.8125 
Q 48.828125 37.15625 52.796875 32.3125 
Q 56.78125 27.484375 56.78125 20.515625 
Q 56.78125 9.90625 50.3125 4.234375 
Q 43.84375 -1.421875 31.78125 -1.421875 
Q 19.734375 -1.421875 13.25 4.234375 
Q 6.78125 9.90625 6.78125 20.515625 
Q 6.78125 27.484375 10.78125 32.3125 
Q 14.796875 37.15625 21.921875 38.8125 
M 18.3125 54.390625 
Q 18.3125 48.734375 21.84375 45.5625 
Q 25.390625 42.390625 31.78125 42.390625 
Q 38.140625 42.390625 41.71875 45.5625 
Q 45.3125 48.734375 45.3125 54.390625 
Q 45.3125 60.0625 41.71875 63.234375 
Q 38.140625 66.40625 31.78125 66.40625 
Q 25.390625 66.40625 21.84375 63.234375 
Q 18.3125 60.0625 18.3125 54.390625 
" id="BitstreamVeraSans-Roman-38"/>
      </defs>
      <g transform="translate(785.913636364 1008.39375)scale(0.4 -0.4)">
       <use xlink:href="#BitstreamVeraSans-Roman-38"/>
       <use x="63.623046875" xlink:href="#BitstreamVeraSans-Roman-30"/>
      </g>
     </g>
    </g>
    <g id="xtick_10">
     <g id="line2d_14">
      <g>
       <use style="stroke:#000000;stroke-width:3.0;" x="895.909090909" xlink:href="#m6bf2cfed1c" y="972.0"/>
      </g>
     </g>
     <g id="text_10">
      <!-- 90 -->
      <defs>
       <path d="M 10.984375 1.515625 
L 10.984375 10.5 
Q 14.703125 8.734375 18.5 7.8125 
Q 22.3125 6.890625 25.984375 6.890625 
Q 35.75 6.890625 40.890625 13.453125 
Q 46.046875 20.015625 46.78125 33.40625 
Q 43.953125 29.203125 39.59375 26.953125 
Q 35.25 24.703125 29.984375 24.703125 
Q 19.046875 24.703125 12.671875 31.3125 
Q 6.296875 37.9375 6.296875 49.421875 
Q 6.296875 60.640625 12.9375 67.421875 
Q 19.578125 74.21875 30.609375 74.21875 
Q 43.265625 74.21875 49.921875 64.515625 
Q 56.59375 54.828125 56.59375 36.375 
Q 56.59375 19.140625 48.40625 8.859375 
Q 40.234375 -1.421875 26.421875 -1.421875 
Q 22.703125 -1.421875 18.890625 -0.6875 
Q 15.09375 0.046875 10.984375 1.515625 
M 30.609375 32.421875 
Q 37.25 32.421875 41.125 36.953125 
Q 45.015625 41.5 45.015625 49.421875 
Q 45.015625 57.28125 41.125 61.84375 
Q 37.25 66.40625 30.609375 66.40625 
Q 23.96875 66.40625 20.09375 61.84375 
Q 16.21875 57.28125 16.21875 49.421875 
Q 16.21875 41.5 20.09375 36.953125 
Q 23.96875 32.421875 30.609375 32.421875 
" id="BitstreamVeraSans-Roman-39"/>
      </defs>
      <g transform="translate(870.459090909 1008.39375)scale(0.4 -0.4)">
       <use xlink:href="#BitstreamVeraSans-Roman-39"/>
       <use x="63.623046875" xlink:href="#BitstreamVeraSans-Roman-30"/>
      </g>
     </g>
    </g>
   </g>
   <g id="matplotlib.axis_2">
    <g id="ytick_1">
     <g id="line2d_15">
      <path clip-path="url(#p832a6a253c)" d="M 135 972 
L 972 972 
" style="fill:none;stroke:#000000;stroke-linecap:square;stroke-width:0.25;"/>
     </g>
     <g id="line2d_16">
      <defs>
       <path d="M 4 0 
L -4 -0 
" id="md6a02c8b7d" style="stroke:#000000;stroke-width:3.0;"/>
      </defs>
      <g>
       <use style="stroke:#000000;stroke-width:3.0;" x="135.0" xlink:href="#md6a02c8b7d" y="972.0"/>
      </g>
     </g>
     <g id="text_11">
      <!-- 0.5 -->
      <defs>
       <path d="M 10.6875 12.40625 
L 21 12.40625 
L 21 0 
L 10.6875 0 
z
" id="BitstreamVeraSans-Roman-2e"/>
      </defs>
      <g transform="translate(65.3875 983.0375)scale(0.4 -0.4)">
       <use xlink:href="#BitstreamVeraSans-Roman-30"/>
       <use x="63.623046875" xlink:href="#BitstreamVeraSans-Roman-2e"/>
       <use x="95.41015625" xlink:href="#BitstreamVeraSans-Roman-35"/>
      </g>
     </g>
    </g>
    <g id="ytick_2">
     <g id="line2d_17">
      <path clip-path="url(#p832a6a253c)" d="M 135 876 
L 972 876 
" style="fill:none;stroke:#000000;stroke-linecap:square;stroke-width:0.25;"/>
     </g>
     <g id="line2d_18">
      <g>
       <use style="stroke:#000000;stroke-width:3.0;" x="135.0" xlink:href="#md6a02c8b7d" y="876.0"/>
      </g>
     </g>
     <g id="text_12">
      <!-- 1.0 -->
      <g transform="translate(65.3875 887.0375)scale(0.4 -0.4)">
       <use xlink:href="#BitstreamVeraSans-Roman-31"/>
       <use x="63.623046875" xlink:href="#BitstreamVeraSans-Roman-2e"/>
       <use x="95.41015625" xlink:href="#BitstreamVeraSans-Roman-30"/>
      </g>
     </g>
    </g>
    <g id="ytick_3">
     <g id="line2d_19">
      <path clip-path="url(#p832a6a253c)" d="M 135 780 
L 972 780 
" style="fill:none;stroke:#000000;stroke-linecap:square;stroke-width:0.25;"/>
     </g>
     <g id="line2d_20">
      <g>
       <use style="stroke:#000000;stroke-width:3.0;" x="135.0" xlink:href="#md6a02c8b7d" y="780.0"/>
      </g>
     </g>
     <g id="text_13">
      <!-- 1.5 -->
      <g transform="translate(65.3875 791.0375)scale(0.4 -0.4)">
       <use xlink:href="#BitstreamVeraSans-Roman-31"/>
       <use x="63.623046875" xlink:href="#BitstreamVeraSans-Roman-2e"/>
       <use x="95.41015625" xlink:href="#BitstreamVeraSans-Roman-35"/>
      </g>
     </g>
    </g>
    <g id="ytick_4">
     <g id="line2d_21">
      <path clip-path="url(#p832a6a253c)" d="M 135 684 
L 972 684 
" style="fill:none;stroke:#000000;stroke-linecap:square;stroke-width:0.25;"/>
     </g>
     <g id="line2d_22">
      <g>
       <use style="stroke:#000000;stroke-width:3.0;" x="135.0" xlink:href="#md6a02c8b7d" y="684.0"/>
      </g>
     </g>
     <g id="text_14">
      <!-- 2.0 -->
      <g transform="translate(65.3875 695.0375)scale(0.4 -0.4)">
       <use xlink:href="#BitstreamVeraSans-Roman-32"/>
       <use x="63.623046875" xlink:href="#BitstreamVeraSans-Roman-2e"/>
       <use x="95.41015625" xlink:href="#BitstreamVeraSans-Roman-30"/>
      </g>
     </g>
    </g>
    <g id="ytick_5">
     <g id="line2d_23">
      <path clip-path="url(#p832a6a253c)" d="M 135 588 
L 972 588 
" style="fill:none;stroke:#000000;stroke-linecap:square;stroke-width:0.25;"/>
     </g>
     <g id="line2d_24">
      <g>
       <use style="stroke:#000000;stroke-width:3.0;" x="135.0" xlink:href="#md6a02c8b7d" y="588.0"/>
      </g>
     </g>
     <g id="text_15">
      <!-- 2.5 -->
      <g transform="translate(65.3875 599.0375)scale(0.4 -0.4)">
       <use xlink:href="#BitstreamVeraSans-Roman-32"/>
       <use x="63.623046875" xlink:href="#BitstreamVeraSans-Roman-2e"/>
       <use x="95.41015625" xlink:href="#BitstreamVeraSans-Roman-35"/>
      </g>
     </g>
    </g>
    <g id="ytick_6">
     <g id="line2d_25">
      <path clip-path="url(#p832a6a253c)" d="M 135 492 
L 972 492 
" style="fill:none;stroke:#000000;stroke-linecap:square;stroke-width:0.25;"/>
     </g>
     <g id="line2d_26">
      <g>
       <use style="stroke:#000000;stroke-width:3.0;" x="135.0" xlink:href="#md6a02c8b7d" y="492.0"/>
      </g>
     </g>
     <g id="text_16">
      <!-- 3.0 -->
      <g transform="translate(65.3875 503.0375)scale(0.4 -0.4)">
       <use xlink:href="#BitstreamVeraSans-Roman-33"/>
       <use x="63.623046875" xlink:href="#BitstreamVeraSans-Roman-2e"/>
       <use x="95.41015625" xlink:href="#BitstreamVeraSans-Roman-30"/>
      </g>
     </g>
    </g>
    <g id="ytick_7">
     <g id="line2d_27">
      <path clip-path="url(#p832a6a253c)" d="M 135 396 
L 972 396 
" style="fill:none;stroke:#000000;stroke-linecap:square;stroke-width:0.25;"/>
     </g>
     <g id="line2d_28">
      <g>
       <use style="stroke:#000000;stroke-width:3.0;" x="135.0" xlink:href="#md6a02c8b7d" y="396.0"/>
      </g>
     </g>
     <g id="text_17">
      <!-- 3.5 -->
      <g transform="translate(65.3875 407.0375)scale(0.4 -0.4)">
       <use xlink:href="#BitstreamVeraSans-Roman-33"/>
       <use x="63.623046875" xlink:href="#BitstreamVeraSans-Roman-2e"/>
       <use x="95.41015625" xlink:href="#BitstreamVeraSans-Roman-35"/>
      </g>
     </g>
    </g>
    <g id="ytick_8">
     <g id="line2d_29">
      <path clip-path="url(#p832a6a253c)" d="M 135 300 
L 972 300 
" style="fill:none;stroke:#000000;stroke-linecap:square;stroke-width:0.25;"/>
     </g>
     <g id="line2d_30">
      <g>
       <use style="stroke:#000000;stroke-width:3.0;" x="135.0" xlink:href="#md6a02c8b7d" y="300.0"/>
      </g>
     </g>
     <g id="text_18">
      <!-- 4.0 -->
      <g transform="translate(65.3875 311.0375)scale(0.4 -0.4)">
       <use xlink:href="#BitstreamVeraSans-Roman-34"/>
       <use x="63.623046875" xlink:href="#BitstreamVeraSans-Roman-2e"/>
       <use x="95.41015625" xlink:href="#BitstreamVeraSans-Roman-30"/>
      </g>
     </g>
    </g>
    <g id="ytick_9">
     <g id="line2d_31">
      <path clip-path="url(#p832a6a253c)" d="M 135 204 
L 972 204 
" style="fill:none;stroke:#000000;stroke-linecap:square;stroke-width:0.25;"/>
     </g>
     <g id="line2d_32">
      <g>
       <use style="stroke:#000000;stroke-width:3.0;" x="135.0" xlink:href="#md6a02c8b7d" y="204.0"/>
      </g>
     </g>
     <g id="text_19">
      <!-- 4.5 -->
      <g transform="translate(65.3875 215.0375)scale(0.4 -0.4)">
       <use xlink:href="#BitstreamVeraSans-Roman-34"/>
       <use x="63.623046875" xlink:href="#BitstreamVeraSans-Roman-2e"/>
       <use x="95.41015625" xlink:href="#BitstreamVeraSans-Roman-35"/>
      </g>
     </g>
    </g>
    <g id="ytick_10">
     <g id="line2d_33">
      <path clip-path="url(#p832a6a253c)" d="M 135 108 
L 972 108 
" style="fill:none;stroke:#000000;stroke-linecap:square;stroke-width:0.25;"/>
     </g>
     <g id="line2d_34">
      <g>
       <use style="stroke:#000000;stroke-width:3.0;" x="135.0" xlink:href="#md6a02c8b7d" y="108.0"/>
      </g>
     </g>
     <g id="text_20">
      <!-- 5.0 -->
      <g transform="translate(65.3875 119.0375)scale(0.4 -0.4)">
       <use xlink:href="#BitstreamVeraSans-Roman-35"/>
       <use x="63.623046875" xlink:href="#BitstreamVeraSans-Roman-2e"/>
       <use x="95.41015625" xlink:href="#BitstreamVeraSans-Roman-30"/>
      </g>
     </g>
    </g>
   </g>
   <g id="legend_1">
    <g id="patch_7">
     <path d="M 768.92175 204.867 
L 964.8 204.867 
L 964.8 115.2 
L 768.92175 115.2 
z
" style="fill:#ffffff;stroke:#000000;stroke-linejoin:miter;"/>
    </g>
    <g id="line2d_35">
     <path d="M 779.00175 126.86175 
L 799.16175 126.86175 
" style="fill:none;stroke:#1e95bb;stroke-linecap:square;stroke-width:3.0;"/>
    </g>
    <g id="line2d_36"/>
    <g id="text_21">
     <!-- arhgdia -->
     <defs>
      <path d="M 34.28125 27.484375 
Q 23.390625 27.484375 19.1875 25 
Q 14.984375 22.515625 14.984375 16.5 
Q 14.984375 11.71875 18.140625 8.90625 
Q 21.296875 6.109375 26.703125 6.109375 
Q 34.1875 6.109375 38.703125 11.40625 
Q 43.21875 16.703125 43.21875 25.484375 
L 43.21875 27.484375 
z
M 52.203125 31.203125 
L 52.203125 0 
L 43.21875 0 
L 43.21875 8.296875 
Q 40.140625 3.328125 35.546875 0.953125 
Q 30.953125 -1.421875 24.3125 -1.421875 
Q 15.921875 -1.421875 10.953125 3.296875 
Q 6 8.015625 6 15.921875 
Q 6 25.140625 12.171875 29.828125 
Q 18.359375 34.515625 30.609375 34.515625 
L 43.21875 34.515625 
L 43.21875 35.40625 
Q 43.21875 41.609375 39.140625 45 
Q 35.0625 48.390625 27.6875 48.390625 
Q 23 48.390625 18.546875 47.265625 
Q 14.109375 46.140625 10.015625 43.890625 
L 10.015625 52.203125 
Q 14.9375 54.109375 19.578125 55.046875 
Q 24.21875 56 28.609375 56 
Q 40.484375 56 46.34375 49.84375 
Q 52.203125 43.703125 52.203125 31.203125 
" id="BitstreamVeraSans-Roman-61"/>
      <path d="M 9.421875 54.6875 
L 18.40625 54.6875 
L 18.40625 0 
L 9.421875 0 
z
M 9.421875 75.984375 
L 18.40625 75.984375 
L 18.40625 64.59375 
L 9.421875 64.59375 
z
" id="BitstreamVeraSans-Roman-69"/>
      <path d="M 54.890625 33.015625 
L 54.890625 0 
L 45.90625 0 
L 45.90625 32.71875 
Q 45.90625 40.484375 42.875 44.328125 
Q 39.84375 48.1875 33.796875 48.1875 
Q 26.515625 48.1875 22.3125 43.546875 
Q 18.109375 38.921875 18.109375 30.90625 
L 18.109375 0 
L 9.078125 0 
L 9.078125 75.984375 
L 18.109375 75.984375 
L 18.109375 46.1875 
Q 21.34375 51.125 25.703125 53.5625 
Q 30.078125 56 35.796875 56 
Q 45.21875 56 50.046875 50.171875 
Q 54.890625 44.34375 54.890625 33.015625 
" id="BitstreamVeraSans-Roman-68"/>
      <path d="M 45.40625 46.390625 
L 45.40625 75.984375 
L 54.390625 75.984375 
L 54.390625 0 
L 45.40625 0 
L 45.40625 8.203125 
Q 42.578125 3.328125 38.25 0.953125 
Q 33.9375 -1.421875 27.875 -1.421875 
Q 17.96875 -1.421875 11.734375 6.484375 
Q 5.515625 14.40625 5.515625 27.296875 
Q 5.515625 40.1875 11.734375 48.09375 
Q 17.96875 56 27.875 56 
Q 33.9375 56 38.25 53.625 
Q 42.578125 51.265625 45.40625 46.390625 
M 14.796875 27.296875 
Q 14.796875 17.390625 18.875 11.75 
Q 22.953125 6.109375 30.078125 6.109375 
Q 37.203125 6.109375 41.296875 11.75 
Q 45.40625 17.390625 45.40625 27.296875 
Q 45.40625 37.203125 41.296875 42.84375 
Q 37.203125 48.484375 30.078125 48.484375 
Q 22.953125 48.484375 18.875 42.84375 
Q 14.796875 37.203125 14.796875 27.296875 
" id="BitstreamVeraSans-Roman-64"/>
      <path d="M 45.40625 27.984375 
Q 45.40625 37.75 41.375 43.109375 
Q 37.359375 48.484375 30.078125 48.484375 
Q 22.859375 48.484375 18.828125 43.109375 
Q 14.796875 37.75 14.796875 27.984375 
Q 14.796875 18.265625 18.828125 12.890625 
Q 22.859375 7.515625 30.078125 7.515625 
Q 37.359375 7.515625 41.375 12.890625 
Q 45.40625 18.265625 45.40625 27.984375 
M 54.390625 6.78125 
Q 54.390625 -7.171875 48.1875 -13.984375 
Q 42 -20.796875 29.203125 -20.796875 
Q 24.46875 -20.796875 20.265625 -20.09375 
Q 16.0625 -19.390625 12.109375 -17.921875 
L 12.109375 -9.1875 
Q 16.0625 -11.328125 19.921875 -12.34375 
Q 23.78125 -13.375 27.78125 -13.375 
Q 36.625 -13.375 41.015625 -8.765625 
Q 45.40625 -4.15625 45.40625 5.171875 
L 45.40625 9.625 
Q 42.625 4.78125 38.28125 2.390625 
Q 33.9375 0 27.875 0 
Q 17.828125 0 11.671875 7.65625 
Q 5.515625 15.328125 5.515625 27.984375 
Q 5.515625 40.671875 11.671875 48.328125 
Q 17.828125 56 27.875 56 
Q 33.9375 56 38.28125 53.609375 
Q 42.625 51.21875 45.40625 46.390625 
L 45.40625 54.6875 
L 54.390625 54.6875 
z
" id="BitstreamVeraSans-Roman-67"/>
      <path d="M 41.109375 46.296875 
Q 39.59375 47.171875 37.8125 47.578125 
Q 36.03125 48 33.890625 48 
Q 26.265625 48 22.1875 43.046875 
Q 18.109375 38.09375 18.109375 28.8125 
L 18.109375 0 
L 9.078125 0 
L 9.078125 54.6875 
L 18.109375 54.6875 
L 18.109375 46.1875 
Q 20.953125 51.171875 25.484375 53.578125 
Q 30.03125 56 36.53125 56 
Q 37.453125 56 38.578125 55.875 
Q 39.703125 55.765625 41.0625 55.515625 
z
" id="BitstreamVeraSans-Roman-72"/>
     </defs>
     <g transform="translate(815.00175 131.90175)scale(0.144 -0.144)">
      <use xlink:href="#BitstreamVeraSans-Roman-61"/>
      <use x="61.279296875" xlink:href="#BitstreamVeraSans-Roman-72"/>
      <use x="102.376953125" xlink:href="#BitstreamVeraSans-Roman-68"/>
      <use x="165.755859375" xlink:href="#BitstreamVeraSans-Roman-67"/>
      <use x="229.232421875" xlink:href="#BitstreamVeraSans-Roman-64"/>
      <use x="292.708984375" xlink:href="#BitstreamVeraSans-Roman-69"/>
      <use x="320.4921875" xlink:href="#BitstreamVeraSans-Roman-61"/>
     </g>
    </g>
    <g id="line2d_37">
     <path d="M 779.00175 147.99825 
L 799.16175 147.99825 
" style="fill:none;stroke:#3ab6df;stroke-linecap:square;stroke-width:3.0;"/>
    </g>
    <g id="line2d_38"/>
    <g id="text_22">
     <!-- arhgdia_nocodazole -->
     <defs>
      <path d="M 50.984375 -16.609375 
L 50.984375 -23.578125 
L -0.984375 -23.578125 
L -0.984375 -16.609375 
z
" id="BitstreamVeraSans-Roman-5f"/>
      <path d="M 54.890625 33.015625 
L 54.890625 0 
L 45.90625 0 
L 45.90625 32.71875 
Q 45.90625 40.484375 42.875 44.328125 
Q 39.84375 48.1875 33.796875 48.1875 
Q 26.515625 48.1875 22.3125 43.546875 
Q 18.109375 38.921875 18.109375 30.90625 
L 18.109375 0 
L 9.078125 0 
L 9.078125 54.6875 
L 18.109375 54.6875 
L 18.109375 46.1875 
Q 21.34375 51.125 25.703125 53.5625 
Q 30.078125 56 35.796875 56 
Q 45.21875 56 50.046875 50.171875 
Q 54.890625 44.34375 54.890625 33.015625 
" id="BitstreamVeraSans-Roman-6e"/>
      <path d="M 30.609375 48.390625 
Q 23.390625 48.390625 19.1875 42.75 
Q 14.984375 37.109375 14.984375 27.296875 
Q 14.984375 17.484375 19.15625 11.84375 
Q 23.34375 6.203125 30.609375 6.203125 
Q 37.796875 6.203125 41.984375 11.859375 
Q 46.1875 17.53125 46.1875 27.296875 
Q 46.1875 37.015625 41.984375 42.703125 
Q 37.796875 48.390625 30.609375 48.390625 
M 30.609375 56 
Q 42.328125 56 49.015625 48.375 
Q 55.71875 40.765625 55.71875 27.296875 
Q 55.71875 13.875 49.015625 6.21875 
Q 42.328125 -1.421875 30.609375 -1.421875 
Q 18.84375 -1.421875 12.171875 6.21875 
Q 5.515625 13.875 5.515625 27.296875 
Q 5.515625 40.765625 12.171875 48.375 
Q 18.84375 56 30.609375 56 
" id="BitstreamVeraSans-Roman-6f"/>
      <path d="M 9.421875 75.984375 
L 18.40625 75.984375 
L 18.40625 0 
L 9.421875 0 
z
" id="BitstreamVeraSans-Roman-6c"/>
      <path d="M 5.515625 54.6875 
L 48.1875 54.6875 
L 48.1875 46.484375 
L 14.40625 7.171875 
L 48.1875 7.171875 
L 48.1875 0 
L 4.296875 0 
L 4.296875 8.203125 
L 38.09375 47.515625 
L 5.515625 47.515625 
z
" id="BitstreamVeraSans-Roman-7a"/>
      <path d="M 56.203125 29.59375 
L 56.203125 25.203125 
L 14.890625 25.203125 
Q 15.484375 15.921875 20.484375 11.0625 
Q 25.484375 6.203125 34.421875 6.203125 
Q 39.59375 6.203125 44.453125 7.46875 
Q 49.3125 8.734375 54.109375 11.28125 
L 54.109375 2.78125 
Q 49.265625 0.734375 44.1875 -0.34375 
Q 39.109375 -1.421875 33.890625 -1.421875 
Q 20.796875 -1.421875 13.15625 6.1875 
Q 5.515625 13.8125 5.515625 26.8125 
Q 5.515625 40.234375 12.765625 48.109375 
Q 20.015625 56 32.328125 56 
Q 43.359375 56 49.78125 48.890625 
Q 56.203125 41.796875 56.203125 29.59375 
M 47.21875 32.234375 
Q 47.125 39.59375 43.09375 43.984375 
Q 39.0625 48.390625 32.421875 48.390625 
Q 24.90625 48.390625 20.390625 44.140625 
Q 15.875 39.890625 15.1875 32.171875 
z
" id="BitstreamVeraSans-Roman-65"/>
      <path d="M 48.78125 52.59375 
L 48.78125 44.1875 
Q 44.96875 46.296875 41.140625 47.34375 
Q 37.3125 48.390625 33.40625 48.390625 
Q 24.65625 48.390625 19.8125 42.84375 
Q 14.984375 37.3125 14.984375 27.296875 
Q 14.984375 17.28125 19.8125 11.734375 
Q 24.65625 6.203125 33.40625 6.203125 
Q 37.3125 6.203125 41.140625 7.25 
Q 44.96875 8.296875 48.78125 10.40625 
L 48.78125 2.09375 
Q 45.015625 0.34375 40.984375 -0.53125 
Q 36.96875 -1.421875 32.421875 -1.421875 
Q 20.0625 -1.421875 12.78125 6.34375 
Q 5.515625 14.109375 5.515625 27.296875 
Q 5.515625 40.671875 12.859375 48.328125 
Q 20.21875 56 33.015625 56 
Q 37.15625 56 41.109375 55.140625 
Q 45.0625 54.296875 48.78125 52.59375 
" id="BitstreamVeraSans-Roman-63"/>
     </defs>
     <g transform="translate(815.00175 153.03825)scale(0.144 -0.144)">
      <use xlink:href="#BitstreamVeraSans-Roman-61"/>
      <use x="61.279296875" xlink:href="#BitstreamVeraSans-Roman-72"/>
      <use x="102.376953125" xlink:href="#BitstreamVeraSans-Roman-68"/>
      <use x="165.755859375" xlink:href="#BitstreamVeraSans-Roman-67"/>
      <use x="229.232421875" xlink:href="#BitstreamVeraSans-Roman-64"/>
      <use x="292.708984375" xlink:href="#BitstreamVeraSans-Roman-69"/>
      <use x="320.4921875" xlink:href="#BitstreamVeraSans-Roman-61"/>
      <use x="381.771484375" xlink:href="#BitstreamVeraSans-Roman-5f"/>
      <use x="431.771484375" xlink:href="#BitstreamVeraSans-Roman-6e"/>
      <use x="495.150390625" xlink:href="#BitstreamVeraSans-Roman-6f"/>
      <use x="556.33203125" xlink:href="#BitstreamVeraSans-Roman-63"/>
      <use x="611.3125" xlink:href="#BitstreamVeraSans-Roman-6f"/>
      <use x="672.494140625" xlink:href="#BitstreamVeraSans-Roman-64"/>
      <use x="735.970703125" xlink:href="#BitstreamVeraSans-Roman-61"/>
      <use x="797.25" xlink:href="#BitstreamVeraSans-Roman-7a"/>
      <use x="849.740234375" xlink:href="#BitstreamVeraSans-Roman-6f"/>
      <use x="910.921875" xlink:href="#BitstreamVeraSans-Roman-6c"/>
      <use x="938.705078125" xlink:href="#BitstreamVeraSans-Roman-65"/>
     </g>
    </g>
    <g id="line2d_39">
     <path d="M 779.00175 169.53525 
L 799.16175 169.53525 
" style="fill:none;stroke:#bde7f4;stroke-linecap:square;stroke-width:3.0;"/>
    </g>
    <g id="line2d_40"/>
    <g id="text_23">
     <!-- pard3 -->
     <defs>
      <path d="M 18.109375 8.203125 
L 18.109375 -20.796875 
L 9.078125 -20.796875 
L 9.078125 54.6875 
L 18.109375 54.6875 
L 18.109375 46.390625 
Q 20.953125 51.265625 25.265625 53.625 
Q 29.59375 56 35.59375 56 
Q 45.5625 56 51.78125 48.09375 
Q 58.015625 40.1875 58.015625 27.296875 
Q 58.015625 14.40625 51.78125 6.484375 
Q 45.5625 -1.421875 35.59375 -1.421875 
Q 29.59375 -1.421875 25.265625 0.953125 
Q 20.953125 3.328125 18.109375 8.203125 
M 48.6875 27.296875 
Q 48.6875 37.203125 44.609375 42.84375 
Q 40.53125 48.484375 33.40625 48.484375 
Q 26.265625 48.484375 22.1875 42.84375 
Q 18.109375 37.203125 18.109375 27.296875 
Q 18.109375 17.390625 22.1875 11.75 
Q 26.265625 6.109375 33.40625 6.109375 
Q 40.53125 6.109375 44.609375 11.75 
Q 48.6875 17.390625 48.6875 27.296875 
" id="BitstreamVeraSans-Roman-70"/>
     </defs>
     <g transform="translate(815.00175 174.57525)scale(0.144 -0.144)">
      <use xlink:href="#BitstreamVeraSans-Roman-70"/>
      <use x="63.4765625" xlink:href="#BitstreamVeraSans-Roman-61"/>
      <use x="124.755859375" xlink:href="#BitstreamVeraSans-Roman-72"/>
      <use x="165.853515625" xlink:href="#BitstreamVeraSans-Roman-64"/>
      <use x="229.330078125" xlink:href="#BitstreamVeraSans-Roman-33"/>
     </g>
    </g>
    <g id="line2d_41">
     <path d="M 779.00175 190.67175 
L 799.16175 190.67175 
" style="fill:none;stroke:#efcb1b;stroke-linecap:square;stroke-width:3.0;"/>
    </g>
    <g id="line2d_42"/>
    <g id="text_24">
     <!-- pard3_nocodazole -->
     <g transform="translate(815.00175 195.71175)scale(0.144 -0.144)">
      <use xlink:href="#BitstreamVeraSans-Roman-70"/>
      <use x="63.4765625" xlink:href="#BitstreamVeraSans-Roman-61"/>
      <use x="124.755859375" xlink:href="#BitstreamVeraSans-Roman-72"/>
      <use x="165.853515625" xlink:href="#BitstreamVeraSans-Roman-64"/>
      <use x="229.330078125" xlink:href="#BitstreamVeraSans-Roman-33"/>
      <use x="292.953125" xlink:href="#BitstreamVeraSans-Roman-5f"/>
      <use x="342.953125" xlink:href="#BitstreamVeraSans-Roman-6e"/>
      <use x="406.33203125" xlink:href="#BitstreamVeraSans-Roman-6f"/>
      <use x="467.513671875" xlink:href="#BitstreamVeraSans-Roman-63"/>
      <use x="522.494140625" xlink:href="#BitstreamVeraSans-Roman-6f"/>
      <use x="583.67578125" xlink:href="#BitstreamVeraSans-Roman-64"/>
      <use x="647.15234375" xlink:href="#BitstreamVeraSans-Roman-61"/>
      <use x="708.431640625" xlink:href="#BitstreamVeraSans-Roman-7a"/>
      <use x="760.921875" xlink:href="#BitstreamVeraSans-Roman-6f"/>
      <use x="822.103515625" xlink:href="#BitstreamVeraSans-Roman-6c"/>
      <use x="849.88671875" xlink:href="#BitstreamVeraSans-Roman-65"/>
     </g>
    </g>
   </g>
  </g>
 </g>
 <defs>
  <clipPath id="p832a6a253c">
   <rect height="864.0" width="837.0" x="135.0" y="108.0"/>
  </clipPath>
 </defs>
</svg>
