<?xml version="1.0" encoding="utf-8" standalone="no"?>
<!DOCTYPE svg PUBLIC "-//W3C//DTD SVG 1.1//EN"
  "http://www.w3.org/Graphics/SVG/1.1/DTD/svg11.dtd">
<!-- Created with matplotlib (http://matplotlib.org/) -->
<svg height="1080pt" version="1.1" viewBox="0 0 1080 1080" width="1080pt" xmlns="http://www.w3.org/2000/svg" xmlns:xlink="http://www.w3.org/1999/xlink">
 <defs>
  <style type="text/css">
*{stroke-linecap:butt;stroke-linejoin:round;stroke-miterlimit:100000;}
  </style>
 </defs>
 <g id="figure_1">
  <g id="patch_1">
   <path d="M 0 1080 
L 1080 1080 
L 1080 0 
L 0 0 
z
" style="fill:#ffffff;"/>
  </g>
  <g id="axes_1">
   <g id="patch_2">
    <path d="M 135 972 
L 972 972 
L 972 108 
L 135 108 
z
" style="fill:#ffffff;"/>
   </g>
   <g id="line2d_1">
    <path clip-path="url(#pe39e6402fc)" d="M 135 835.748265 
L 143.454545 824.947864 
L 151.909091 815.017123 
L 160.363636 822.216182 
L 168.818182 824.588652 
L 177.272727 830.348145 
L 185.727273 835.912909 
L 194.181818 822.047146 
L 202.636364 822.117633 
L 211.090909 831.293867 
L 219.545455 825.073411 
L 228 831.870249 
L 236.454545 836.667097 
L 244.909091 836.118877 
L 253.363636 832.927636 
L 261.818182 838.076386 
L 270.272727 835.442175 
L 278.727273 837.948086 
L 287.181818 833.468386 
L 295.636364 831.789867 
L 304.090909 825.828987 
L 312.545455 823.948007 
L 321 821.904217 
L 329.454545 833.718181 
L 337.909091 827.97234 
L 346.363636 822.823384 
L 354.818182 820.5069 
L 363.272727 817.34062 
L 371.727273 814.493515 
L 380.181818 808.877003 
L 388.636364 807.917418 
L 397.090909 803.575992 
L 405.545455 807.958098 
L 414 805.931426 
L 422.454545 808.01479 
L 430.909091 806.039367 
L 439.363636 803.567995 
L 447.818182 801.514232 
L 456.272727 804.074725 
L 464.727273 803.818724 
L 473.181818 807.54782 
L 481.636364 806.205249 
L 490.090909 802.867773 
L 498.545455 797.558228 
L 507 799.905315 
L 515.454545 799.048103 
L 523.909091 795.997177 
L 532.363636 795.354747 
L 540.818182 788.276293 
L 549.272727 786.992765 
L 557.727273 785.244006 
L 566.181818 784.107629 
L 574.636364 785.108398 
L 583.090909 784.57107 
L 591.545455 783.0353 
L 600 784.188414 
L 608.454545 787.609531 
L 616.909091 789.956957 
L 625.363636 792.094574 
L 633.818182 789.977998 
L 642.272727 791.630356 
L 650.727273 792.951071 
L 659.181818 795.252113 
L 667.636364 796.514555 
L 676.090909 798.732863 
L 684.545455 798.342712 
L 693 799.004484 
L 701.454545 799.570332 
L 709.909091 797.486955 
L 718.363636 799.512794 
L 726.818182 799.34316 
L 735.272727 799.808336 
L 743.727273 800.147175 
L 752.181818 801.861966 
L 760.636364 804.274979 
L 769.090909 805.552248 
L 777.545455 807.46646 
L 786 810.417107 
L 794.454545 811.283509 
L 802.909091 808.815557 
L 811.363636 807.786404 
L 819.818182 808.710444 
L 828.272727 810.817001 
L 836.727273 810.123389 
L 845.181818 811.121314 
L 853.636364 813.015763 
L 862.090909 813.493601 
L 870.545455 815.217952 
L 879 816.015821 
L 887.454545 816.219732 
L 895.909091 817.645241 
L 904.363636 819.110078 
L 912.818182 818.963665 
L 921.272727 821.066353 
L 929.727273 823.049047 
L 938.181818 823.52359 
L 946.636364 824.180185 
L 955.090909 824.858843 
L 963.545455 825.943514 
L 972 828 
" style="fill:none;stroke:#1e95bb;stroke-linecap:square;stroke-width:3.0;"/>
   </g>
   <g id="line2d_2">
    <path clip-path="url(#pe39e6402fc)" d="M 135 252.154809 
L 143.454545 233.714306 
L 151.909091 222.233342 
L 160.363636 258.969615 
L 168.818182 294.281773 
L 177.272727 352.731554 
L 185.727273 391.078004 
L 194.181818 390.94914 
L 202.636364 421.162397 
L 211.090909 471.368647 
L 219.545455 467.668325 
L 228 516.063787 
L 236.454545 544.49992 
L 244.909091 543.930029 
L 253.363636 548.312025 
L 261.818182 576.741566 
L 270.272727 588.889235 
L 278.727273 600.092987 
L 287.181818 608.069423 
L 295.636364 627.302336 
L 304.090909 618.272861 
L 312.545455 624.879925 
L 321 633.092167 
L 329.454545 664.76198 
L 337.909091 661.635676 
L 346.363636 656.894382 
L 354.818182 660.40997 
L 363.272727 666.526497 
L 371.727273 668.78492 
L 380.181818 668.270218 
L 388.636364 670.643924 
L 397.090909 672.149603 
L 405.545455 686.14408 
L 414 689.779279 
L 422.454545 696.8576 
L 430.909091 693.949726 
L 439.363636 690.771497 
L 447.818182 691.85529 
L 456.272727 698.545028 
L 464.727273 705.170915 
L 473.181818 714.368109 
L 481.636364 716.052745 
L 490.090909 715.71073 
L 498.545455 715.457326 
L 507 720.817203 
L 515.454545 724.127307 
L 523.909091 724.791826 
L 532.363636 727.096367 
L 540.818182 729.859571 
L 549.272727 728.327155 
L 557.727273 730.150548 
L 566.181818 730.881462 
L 574.636364 734.877131 
L 583.090909 736.102435 
L 591.545455 734.547006 
L 600 738.59405 
L 608.454545 745.927946 
L 616.909091 749.288061 
L 625.363636 753.617404 
L 633.818182 752.965596 
L 642.272727 756.668668 
L 650.727273 761.291678 
L 659.181818 766.268763 
L 667.636364 766.4645 
L 676.090909 770.3095 
L 684.545455 772.430707 
L 693 774.392022 
L 701.454545 776.745629 
L 709.909091 775.87417 
L 718.363636 778.410332 
L 726.818182 780.201425 
L 735.272727 782.0513 
L 743.727273 783.367536 
L 752.181818 787.317394 
L 760.636364 790.853301 
L 769.090909 793.245503 
L 777.545455 795.391166 
L 786 798.932723 
L 794.454545 800.063577 
L 802.909091 800.784416 
L 811.363636 800.052553 
L 819.818182 801.823062 
L 828.272727 804.744482 
L 836.727273 805.211215 
L 845.181818 807.132736 
L 853.636364 810.102088 
L 862.090909 810.812528 
L 870.545455 812.374081 
L 879 814.583166 
L 887.454545 815.370759 
L 895.909091 817.197181 
L 904.363636 818.39145 
L 912.818182 818.83562 
L 921.272727 822.058456 
L 929.727273 824.237952 
L 938.181818 823.981955 
L 946.636364 824.390474 
L 955.090909 824.747516 
L 963.545455 826.540166 
L 972 828 
" style="fill:none;stroke:#3ab6df;stroke-linecap:square;stroke-width:3.0;"/>
   </g>
   <g id="line2d_3">
    <path clip-path="url(#pe39e6402fc)" d="M 135 828 
L 143.454545 828 
L 151.909091 828 
L 160.363636 828 
L 168.818182 828 
L 177.272727 828 
L 185.727273 828 
L 194.181818 828 
L 202.636364 828 
L 211.090909 828 
L 219.545455 828 
L 228 828 
L 236.454545 828 
L 244.909091 828 
L 253.363636 828 
L 261.818182 828 
L 270.272727 828 
L 278.727273 828 
L 287.181818 828 
L 295.636364 828 
L 304.090909 828 
L 312.545455 828 
L 321 828 
L 329.454545 828 
L 337.909091 828 
L 346.363636 828 
L 354.818182 828 
L 363.272727 828 
L 371.727273 828 
L 380.181818 828 
L 388.636364 828 
L 397.090909 828 
L 405.545455 828 
L 414 828 
L 422.454545 828 
L 430.909091 828 
L 439.363636 828 
L 447.818182 828 
L 456.272727 828 
L 464.727273 828 
L 473.181818 828 
L 481.636364 828 
L 490.090909 828 
L 498.545455 828 
L 507 828 
L 515.454545 828 
L 523.909091 828 
L 532.363636 828 
L 540.818182 828 
L 549.272727 828 
L 557.727273 828 
L 566.181818 828 
L 574.636364 828 
L 583.090909 828 
L 591.545455 828 
L 600 828 
L 608.454545 828 
L 616.909091 828 
L 625.363636 828 
L 633.818182 828 
L 642.272727 828 
L 650.727273 828 
L 659.181818 828 
L 667.636364 828 
L 676.090909 828 
L 684.545455 828 
L 693 828 
L 701.454545 828 
L 709.909091 828 
L 718.363636 828 
L 726.818182 828 
L 735.272727 828 
L 743.727273 828 
L 752.181818 828 
L 760.636364 828 
L 769.090909 828 
L 777.545455 828 
L 786 828 
L 794.454545 828 
L 802.909091 828 
L 811.363636 828 
L 819.818182 828 
L 828.272727 828 
L 836.727273 828 
L 845.181818 828 
L 853.636364 828 
L 862.090909 828 
L 870.545455 828 
L 879 828 
L 887.454545 828 
L 895.909091 828 
L 904.363636 828 
L 912.818182 828 
L 921.272727 828 
L 929.727273 828 
L 938.181818 828 
L 946.636364 828 
L 955.090909 828 
L 963.545455 828 
L 972 828 
" style="fill:none;stroke:#bde7f4;stroke-linecap:square;stroke-width:3.0;"/>
   </g>
   <g id="line2d_4">
    <path clip-path="url(#pe39e6402fc)" d="M 135 398.105157 
L 143.454545 379.619907 
L 151.909091 367.48733 
L 160.363636 380.224318 
L 168.818182 384.567806 
L 177.272727 447.410134 
L 185.727273 477.421738 
L 194.181818 483.093466 
L 202.636364 509.892223 
L 211.090909 554.10177 
L 219.545455 540.418797 
L 228 575.084159 
L 236.454545 593.678255 
L 244.909091 588.85312 
L 253.363636 582.500777 
L 261.818182 609.582867 
L 270.272727 618.997032 
L 278.727273 631.650134 
L 287.181818 635.709706 
L 295.636364 652.7598 
L 304.090909 646.681919 
L 312.545455 651.528953 
L 321 656.381095 
L 329.454545 687.965639 
L 337.909091 682.79713 
L 346.363636 678.422935 
L 354.818182 680.420699 
L 363.272727 686.3548 
L 371.727273 687.519496 
L 380.181818 684.171375 
L 388.636364 686.189592 
L 397.090909 683.956803 
L 405.545455 697.837241 
L 414 696.519151 
L 422.454545 702.295577 
L 430.909091 702.248653 
L 439.363636 701.051748 
L 447.818182 702.762707 
L 456.272727 711.229118 
L 464.727273 716.933689 
L 473.181818 727.722403 
L 481.636364 726.898408 
L 490.090909 728.267081 
L 498.545455 728.026954 
L 507 735.978593 
L 515.454545 737.726343 
L 523.909091 737.353534 
L 532.363636 739.536306 
L 540.818182 741.717392 
L 549.272727 740.635249 
L 557.727273 742.885472 
L 566.181818 744.523893 
L 574.636364 747.141687 
L 583.090909 747.716846 
L 591.545455 744.80674 
L 600 747.527914 
L 608.454545 749.173466 
L 616.909091 753.330233 
L 625.363636 757.1951 
L 633.818182 755.629381 
L 642.272727 759.304667 
L 650.727273 762.602948 
L 659.181818 766.811924 
L 667.636364 770.187728 
L 676.090909 773.181128 
L 684.545455 773.883843 
L 693 776.364089 
L 701.454545 777.696611 
L 709.909091 777.477232 
L 718.363636 778.915972 
L 726.818182 779.651596 
L 735.272727 781.99964 
L 743.727273 781.859083 
L 752.181818 785.795682 
L 760.636364 789.704204 
L 769.090909 791.322915 
L 777.545455 793.349439 
L 786 797.068773 
L 794.454545 799.154794 
L 802.909091 800.376188 
L 811.363636 800.340729 
L 819.818182 802.169624 
L 828.272727 805.177748 
L 836.727273 805.22951 
L 845.181818 806.265974 
L 853.636364 808.20664 
L 862.090909 808.445639 
L 870.545455 809.967851 
L 879 811.875615 
L 887.454545 812.26445 
L 895.909091 815.044679 
L 904.363636 816.911052 
L 912.818182 816.686281 
L 921.272727 819.541922 
L 929.727273 821.927924 
L 938.181818 823.060515 
L 946.636364 823.342957 
L 955.090909 824.024593 
L 963.545455 825.826044 
L 972 828 
" style="fill:none;stroke:#efcb1b;stroke-linecap:square;stroke-width:3.0;"/>
   </g>
   <g id="patch_3">
    <path d="M 135 108 
L 972 108 
" style="fill:none;stroke:#000000;stroke-linecap:square;stroke-linejoin:miter;"/>
   </g>
   <g id="patch_4">
    <path d="M 972 972 
L 972 108 
" style="fill:none;stroke:#000000;stroke-linecap:square;stroke-linejoin:miter;"/>
   </g>
   <g id="patch_5">
    <path d="M 135 972 
L 972 972 
" style="fill:none;stroke:#000000;stroke-linecap:square;stroke-linejoin:miter;stroke-width:3.0;"/>
   </g>
   <g id="patch_6">
    <path d="M 135 972 
L 135 108 
" style="fill:none;stroke:#000000;stroke-linecap:square;stroke-linejoin:miter;stroke-width:3.0;"/>
   </g>
   <g id="matplotlib.axis_1">
    <g id="xtick_1">
     <g id="line2d_5">
      <defs>
       <path d="M 0 4 
L 0 -4 
" id="m6ecd728a7e" style="stroke:#000000;stroke-width:3.0;"/>
      </defs>
      <g>
       <use style="stroke:#000000;stroke-width:3.0;" x="135.0" xlink:href="#m6ecd728a7e" y="972.0"/>
      </g>
     </g>
     <g id="text_1">
      <!-- 0 -->
      <defs>
       <path d="M 31.78125 66.40625 
Q 24.171875 66.40625 20.328125 58.90625 
Q 16.5 51.421875 16.5 36.375 
Q 16.5 21.390625 20.328125 13.890625 
Q 24.171875 6.390625 31.78125 6.390625 
Q 39.453125 6.390625 43.28125 13.890625 
Q 47.125 21.390625 47.125 36.375 
Q 47.125 51.421875 43.28125 58.90625 
Q 39.453125 66.40625 31.78125 66.40625 
M 31.78125 74.21875 
Q 44.046875 74.21875 50.515625 64.515625 
Q 56.984375 54.828125 56.984375 36.375 
Q 56.984375 17.96875 50.515625 8.265625 
Q 44.046875 -1.421875 31.78125 -1.421875 
Q 19.53125 -1.421875 13.0625 8.265625 
Q 6.59375 17.96875 6.59375 36.375 
Q 6.59375 54.828125 13.0625 64.515625 
Q 19.53125 74.21875 31.78125 74.21875 
" id="BitstreamVeraSans-Roman-30"/>
      </defs>
      <g transform="translate(122.275 1008.39375)scale(0.4 -0.4)">
       <use xlink:href="#BitstreamVeraSans-Roman-30"/>
      </g>
     </g>
    </g>
    <g id="xtick_2">
     <g id="line2d_6">
      <g>
       <use style="stroke:#000000;stroke-width:3.0;" x="219.545454545" xlink:href="#m6ecd728a7e" y="972.0"/>
      </g>
     </g>
     <g id="text_2">
      <!-- 10 -->
      <defs>
       <path d="M 12.40625 8.296875 
L 28.515625 8.296875 
L 28.515625 63.921875 
L 10.984375 60.40625 
L 10.984375 69.390625 
L 28.421875 72.90625 
L 38.28125 72.90625 
L 38.28125 8.296875 
L 54.390625 8.296875 
L 54.390625 0 
L 12.40625 0 
z
" id="BitstreamVeraSans-Roman-31"/>
      </defs>
      <g transform="translate(194.095454545 1008.39375)scale(0.4 -0.4)">
       <use xlink:href="#BitstreamVeraSans-Roman-31"/>
       <use x="63.623046875" xlink:href="#BitstreamVeraSans-Roman-30"/>
      </g>
     </g>
    </g>
    <g id="xtick_3">
     <g id="line2d_7">
      <g>
       <use style="stroke:#000000;stroke-width:3.0;" x="304.090909091" xlink:href="#m6ecd728a7e" y="972.0"/>
      </g>
     </g>
     <g id="text_3">
      <!-- 20 -->
      <defs>
       <path d="M 19.1875 8.296875 
L 53.609375 8.296875 
L 53.609375 0 
L 7.328125 0 
L 7.328125 8.296875 
Q 12.9375 14.109375 22.625 23.890625 
Q 32.328125 33.6875 34.8125 36.53125 
Q 39.546875 41.84375 41.421875 45.53125 
Q 43.3125 49.21875 43.3125 52.78125 
Q 43.3125 58.59375 39.234375 62.25 
Q 35.15625 65.921875 28.609375 65.921875 
Q 23.96875 65.921875 18.8125 64.3125 
Q 13.671875 62.703125 7.8125 59.421875 
L 7.8125 69.390625 
Q 13.765625 71.78125 18.9375 73 
Q 24.125 74.21875 28.421875 74.21875 
Q 39.75 74.21875 46.484375 68.546875 
Q 53.21875 62.890625 53.21875 53.421875 
Q 53.21875 48.921875 51.53125 44.890625 
Q 49.859375 40.875 45.40625 35.40625 
Q 44.1875 33.984375 37.640625 27.21875 
Q 31.109375 20.453125 19.1875 8.296875 
" id="BitstreamVeraSans-Roman-32"/>
      </defs>
      <g transform="translate(278.640909091 1008.39375)scale(0.4 -0.4)">
       <use xlink:href="#BitstreamVeraSans-Roman-32"/>
       <use x="63.623046875" xlink:href="#BitstreamVeraSans-Roman-30"/>
      </g>
     </g>
    </g>
    <g id="xtick_4">
     <g id="line2d_8">
      <g>
       <use style="stroke:#000000;stroke-width:3.0;" x="388.636363636" xlink:href="#m6ecd728a7e" y="972.0"/>
      </g>
     </g>
     <g id="text_4">
      <!-- 30 -->
      <defs>
       <path d="M 40.578125 39.3125 
Q 47.65625 37.796875 51.625 33 
Q 55.609375 28.21875 55.609375 21.1875 
Q 55.609375 10.40625 48.1875 4.484375 
Q 40.765625 -1.421875 27.09375 -1.421875 
Q 22.515625 -1.421875 17.65625 -0.515625 
Q 12.796875 0.390625 7.625 2.203125 
L 7.625 11.71875 
Q 11.71875 9.328125 16.59375 8.109375 
Q 21.484375 6.890625 26.8125 6.890625 
Q 36.078125 6.890625 40.9375 10.546875 
Q 45.796875 14.203125 45.796875 21.1875 
Q 45.796875 27.640625 41.28125 31.265625 
Q 36.765625 34.90625 28.71875 34.90625 
L 20.21875 34.90625 
L 20.21875 43.015625 
L 29.109375 43.015625 
Q 36.375 43.015625 40.234375 45.921875 
Q 44.09375 48.828125 44.09375 54.296875 
Q 44.09375 59.90625 40.109375 62.90625 
Q 36.140625 65.921875 28.71875 65.921875 
Q 24.65625 65.921875 20.015625 65.03125 
Q 15.375 64.15625 9.8125 62.3125 
L 9.8125 71.09375 
Q 15.4375 72.65625 20.34375 73.4375 
Q 25.25 74.21875 29.59375 74.21875 
Q 40.828125 74.21875 47.359375 69.109375 
Q 53.90625 64.015625 53.90625 55.328125 
Q 53.90625 49.265625 50.4375 45.09375 
Q 46.96875 40.921875 40.578125 39.3125 
" id="BitstreamVeraSans-Roman-33"/>
      </defs>
      <g transform="translate(363.186363636 1008.39375)scale(0.4 -0.4)">
       <use xlink:href="#BitstreamVeraSans-Roman-33"/>
       <use x="63.623046875" xlink:href="#BitstreamVeraSans-Roman-30"/>
      </g>
     </g>
    </g>
    <g id="xtick_5">
     <g id="line2d_9">
      <g>
       <use style="stroke:#000000;stroke-width:3.0;" x="473.181818182" xlink:href="#m6ecd728a7e" y="972.0"/>
      </g>
     </g>
     <g id="text_5">
      <!-- 40 -->
      <defs>
       <path d="M 37.796875 64.3125 
L 12.890625 25.390625 
L 37.796875 25.390625 
z
M 35.203125 72.90625 
L 47.609375 72.90625 
L 47.609375 25.390625 
L 58.015625 25.390625 
L 58.015625 17.1875 
L 47.609375 17.1875 
L 47.609375 0 
L 37.796875 0 
L 37.796875 17.1875 
L 4.890625 17.1875 
L 4.890625 26.703125 
z
" id="BitstreamVeraSans-Roman-34"/>
      </defs>
      <g transform="translate(447.731818182 1008.39375)scale(0.4 -0.4)">
       <use xlink:href="#BitstreamVeraSans-Roman-34"/>
       <use x="63.623046875" xlink:href="#BitstreamVeraSans-Roman-30"/>
      </g>
     </g>
    </g>
    <g id="xtick_6">
     <g id="line2d_10">
      <g>
       <use style="stroke:#000000;stroke-width:3.0;" x="557.727272727" xlink:href="#m6ecd728a7e" y="972.0"/>
      </g>
     </g>
     <g id="text_6">
      <!-- 50 -->
      <defs>
       <path d="M 10.796875 72.90625 
L 49.515625 72.90625 
L 49.515625 64.59375 
L 19.828125 64.59375 
L 19.828125 46.734375 
Q 21.96875 47.46875 24.109375 47.828125 
Q 26.265625 48.1875 28.421875 48.1875 
Q 40.625 48.1875 47.75 41.5 
Q 54.890625 34.8125 54.890625 23.390625 
Q 54.890625 11.625 47.5625 5.09375 
Q 40.234375 -1.421875 26.90625 -1.421875 
Q 22.3125 -1.421875 17.546875 -0.640625 
Q 12.796875 0.140625 7.71875 1.703125 
L 7.71875 11.625 
Q 12.109375 9.234375 16.796875 8.0625 
Q 21.484375 6.890625 26.703125 6.890625 
Q 35.15625 6.890625 40.078125 11.328125 
Q 45.015625 15.765625 45.015625 23.390625 
Q 45.015625 31 40.078125 35.4375 
Q 35.15625 39.890625 26.703125 39.890625 
Q 22.75 39.890625 18.8125 39.015625 
Q 14.890625 38.140625 10.796875 36.28125 
z
" id="BitstreamVeraSans-Roman-35"/>
      </defs>
      <g transform="translate(532.277272727 1008.39375)scale(0.4 -0.4)">
       <use xlink:href="#BitstreamVeraSans-Roman-35"/>
       <use x="63.623046875" xlink:href="#BitstreamVeraSans-Roman-30"/>
      </g>
     </g>
    </g>
    <g id="xtick_7">
     <g id="line2d_11">
      <g>
       <use style="stroke:#000000;stroke-width:3.0;" x="642.272727273" xlink:href="#m6ecd728a7e" y="972.0"/>
      </g>
     </g>
     <g id="text_7">
      <!-- 60 -->
      <defs>
       <path d="M 33.015625 40.375 
Q 26.375 40.375 22.484375 35.828125 
Q 18.609375 31.296875 18.609375 23.390625 
Q 18.609375 15.53125 22.484375 10.953125 
Q 26.375 6.390625 33.015625 6.390625 
Q 39.65625 6.390625 43.53125 10.953125 
Q 47.40625 15.53125 47.40625 23.390625 
Q 47.40625 31.296875 43.53125 35.828125 
Q 39.65625 40.375 33.015625 40.375 
M 52.59375 71.296875 
L 52.59375 62.3125 
Q 48.875 64.0625 45.09375 64.984375 
Q 41.3125 65.921875 37.59375 65.921875 
Q 27.828125 65.921875 22.671875 59.328125 
Q 17.53125 52.734375 16.796875 39.40625 
Q 19.671875 43.65625 24.015625 45.921875 
Q 28.375 48.1875 33.59375 48.1875 
Q 44.578125 48.1875 50.953125 41.515625 
Q 57.328125 34.859375 57.328125 23.390625 
Q 57.328125 12.15625 50.6875 5.359375 
Q 44.046875 -1.421875 33.015625 -1.421875 
Q 20.359375 -1.421875 13.671875 8.265625 
Q 6.984375 17.96875 6.984375 36.375 
Q 6.984375 53.65625 15.1875 63.9375 
Q 23.390625 74.21875 37.203125 74.21875 
Q 40.921875 74.21875 44.703125 73.484375 
Q 48.484375 72.75 52.59375 71.296875 
" id="BitstreamVeraSans-Roman-36"/>
      </defs>
      <g transform="translate(616.822727273 1008.39375)scale(0.4 -0.4)">
       <use xlink:href="#BitstreamVeraSans-Roman-36"/>
       <use x="63.623046875" xlink:href="#BitstreamVeraSans-Roman-30"/>
      </g>
     </g>
    </g>
    <g id="xtick_8">
     <g id="line2d_12">
      <g>
       <use style="stroke:#000000;stroke-width:3.0;" x="726.818181818" xlink:href="#m6ecd728a7e" y="972.0"/>
      </g>
     </g>
     <g id="text_8">
      <!-- 70 -->
      <defs>
       <path d="M 8.203125 72.90625 
L 55.078125 72.90625 
L 55.078125 68.703125 
L 28.609375 0 
L 18.3125 0 
L 43.21875 64.59375 
L 8.203125 64.59375 
z
" id="BitstreamVeraSans-Roman-37"/>
      </defs>
      <g transform="translate(701.368181818 1008.39375)scale(0.4 -0.4)">
       <use xlink:href="#BitstreamVeraSans-Roman-37"/>
       <use x="63.623046875" xlink:href="#BitstreamVeraSans-Roman-30"/>
      </g>
     </g>
    </g>
    <g id="xtick_9">
     <g id="line2d_13">
      <g>
       <use style="stroke:#000000;stroke-width:3.0;" x="811.363636364" xlink:href="#m6ecd728a7e" y="972.0"/>
      </g>
     </g>
     <g id="text_9">
      <!-- 80 -->
      <defs>
       <path d="M 31.78125 34.625 
Q 24.75 34.625 20.71875 30.859375 
Q 16.703125 27.09375 16.703125 20.515625 
Q 16.703125 13.921875 20.71875 10.15625 
Q 24.75 6.390625 31.78125 6.390625 
Q 38.8125 6.390625 42.859375 10.171875 
Q 46.921875 13.96875 46.921875 20.515625 
Q 46.921875 27.09375 42.890625 30.859375 
Q 38.875 34.625 31.78125 34.625 
M 21.921875 38.8125 
Q 15.578125 40.375 12.03125 44.71875 
Q 8.5 49.078125 8.5 55.328125 
Q 8.5 64.0625 14.71875 69.140625 
Q 20.953125 74.21875 31.78125 74.21875 
Q 42.671875 74.21875 48.875 69.140625 
Q 55.078125 64.0625 55.078125 55.328125 
Q 55.078125 49.078125 51.53125 44.71875 
Q 48 40.375 41.703125 38.8125 
Q 48.828125 37.15625 52.796875 32.3125 
Q 56.78125 27.484375 56.78125 20.515625 
Q 56.78125 9.90625 50.3125 4.234375 
Q 43.84375 -1.421875 31.78125 -1.421875 
Q 19.734375 -1.421875 13.25 4.234375 
Q 6.78125 9.90625 6.78125 20.515625 
Q 6.78125 27.484375 10.78125 32.3125 
Q 14.796875 37.15625 21.921875 38.8125 
M 18.3125 54.390625 
Q 18.3125 48.734375 21.84375 45.5625 
Q 25.390625 42.390625 31.78125 42.390625 
Q 38.140625 42.390625 41.71875 45.5625 
Q 45.3125 48.734375 45.3125 54.390625 
Q 45.3125 60.0625 41.71875 63.234375 
Q 38.140625 66.40625 31.78125 66.40625 
Q 25.390625 66.40625 21.84375 63.234375 
Q 18.3125 60.0625 18.3125 54.390625 
" id="BitstreamVeraSans-Roman-38"/>
      </defs>
      <g transform="translate(785.913636364 1008.39375)scale(0.4 -0.4)">
       <use xlink:href="#BitstreamVeraSans-Roman-38"/>
       <use x="63.623046875" xlink:href="#BitstreamVeraSans-Roman-30"/>
      </g>
     </g>
    </g>
    <g id="xtick_10">
     <g id="line2d_14">
      <g>
       <use style="stroke:#000000;stroke-width:3.0;" x="895.909090909" xlink:href="#m6ecd728a7e" y="972.0"/>
      </g>
     </g>
     <g id="text_10">
      <!-- 90 -->
      <defs>
       <path d="M 10.984375 1.515625 
L 10.984375 10.5 
Q 14.703125 8.734375 18.5 7.8125 
Q 22.3125 6.890625 25.984375 6.890625 
Q 35.75 6.890625 40.890625 13.453125 
Q 46.046875 20.015625 46.78125 33.40625 
Q 43.953125 29.203125 39.59375 26.953125 
Q 35.25 24.703125 29.984375 24.703125 
Q 19.046875 24.703125 12.671875 31.3125 
Q 6.296875 37.9375 6.296875 49.421875 
Q 6.296875 60.640625 12.9375 67.421875 
Q 19.578125 74.21875 30.609375 74.21875 
Q 43.265625 74.21875 49.921875 64.515625 
Q 56.59375 54.828125 56.59375 36.375 
Q 56.59375 19.140625 48.40625 8.859375 
Q 40.234375 -1.421875 26.421875 -1.421875 
Q 22.703125 -1.421875 18.890625 -0.6875 
Q 15.09375 0.046875 10.984375 1.515625 
M 30.609375 32.421875 
Q 37.25 32.421875 41.125 36.953125 
Q 45.015625 41.5 45.015625 49.421875 
Q 45.015625 57.28125 41.125 61.84375 
Q 37.25 66.40625 30.609375 66.40625 
Q 23.96875 66.40625 20.09375 61.84375 
Q 16.21875 57.28125 16.21875 49.421875 
Q 16.21875 41.5 20.09375 36.953125 
Q 23.96875 32.421875 30.609375 32.421875 
" id="BitstreamVeraSans-Roman-39"/>
      </defs>
      <g transform="translate(870.459090909 1008.39375)scale(0.4 -0.4)">
       <use xlink:href="#BitstreamVeraSans-Roman-39"/>
       <use x="63.623046875" xlink:href="#BitstreamVeraSans-Roman-30"/>
      </g>
     </g>
    </g>
   </g>
   <g id="matplotlib.axis_2">
    <g id="ytick_1">
     <g id="line2d_15">
      <path clip-path="url(#pe39e6402fc)" d="M 135 972 
L 972 972 
" style="fill:none;stroke:#000000;stroke-linecap:square;stroke-width:0.25;"/>
     </g>
     <g id="line2d_16">
      <defs>
       <path d="M 4 0 
L -4 -0 
" id="m47f8e42de0" style="stroke:#000000;stroke-width:3.0;"/>
      </defs>
      <g>
       <use style="stroke:#000000;stroke-width:3.0;" x="135.0" xlink:href="#m47f8e42de0" y="972.0"/>
      </g>
     </g>
     <g id="text_11">
      <!-- 0 -->
      <g transform="translate(103.55 983.0375)scale(0.4 -0.4)">
       <use xlink:href="#BitstreamVeraSans-Roman-30"/>
      </g>
     </g>
    </g>
    <g id="ytick_2">
     <g id="line2d_17">
      <path clip-path="url(#pe39e6402fc)" d="M 135 828 
L 972 828 
" style="fill:none;stroke:#000000;stroke-linecap:square;stroke-width:0.25;"/>
     </g>
     <g id="line2d_18">
      <g>
       <use style="stroke:#000000;stroke-width:3.0;" x="135.0" xlink:href="#m47f8e42de0" y="828.0"/>
      </g>
     </g>
     <g id="text_12">
      <!-- 1 -->
      <g transform="translate(103.55 839.0375)scale(0.4 -0.4)">
       <use xlink:href="#BitstreamVeraSans-Roman-31"/>
      </g>
     </g>
    </g>
    <g id="ytick_3">
     <g id="line2d_19">
      <path clip-path="url(#pe39e6402fc)" d="M 135 684 
L 972 684 
" style="fill:none;stroke:#000000;stroke-linecap:square;stroke-width:0.25;"/>
     </g>
     <g id="line2d_20">
      <g>
       <use style="stroke:#000000;stroke-width:3.0;" x="135.0" xlink:href="#m47f8e42de0" y="684.0"/>
      </g>
     </g>
     <g id="text_13">
      <!-- 2 -->
      <g transform="translate(103.55 695.0375)scale(0.4 -0.4)">
       <use xlink:href="#BitstreamVeraSans-Roman-32"/>
      </g>
     </g>
    </g>
    <g id="ytick_4">
     <g id="line2d_21">
      <path clip-path="url(#pe39e6402fc)" d="M 135 540 
L 972 540 
" style="fill:none;stroke:#000000;stroke-linecap:square;stroke-width:0.25;"/>
     </g>
     <g id="line2d_22">
      <g>
       <use style="stroke:#000000;stroke-width:3.0;" x="135.0" xlink:href="#m47f8e42de0" y="540.0"/>
      </g>
     </g>
     <g id="text_14">
      <!-- 3 -->
      <g transform="translate(103.55 551.0375)scale(0.4 -0.4)">
       <use xlink:href="#BitstreamVeraSans-Roman-33"/>
      </g>
     </g>
    </g>
    <g id="ytick_5">
     <g id="line2d_23">
      <path clip-path="url(#pe39e6402fc)" d="M 135 396 
L 972 396 
" style="fill:none;stroke:#000000;stroke-linecap:square;stroke-width:0.25;"/>
     </g>
     <g id="line2d_24">
      <g>
       <use style="stroke:#000000;stroke-width:3.0;" x="135.0" xlink:href="#m47f8e42de0" y="396.0"/>
      </g>
     </g>
     <g id="text_15">
      <!-- 4 -->
      <g transform="translate(103.55 407.0375)scale(0.4 -0.4)">
       <use xlink:href="#BitstreamVeraSans-Roman-34"/>
      </g>
     </g>
    </g>
    <g id="ytick_6">
     <g id="line2d_25">
      <path clip-path="url(#pe39e6402fc)" d="M 135 252 
L 972 252 
" style="fill:none;stroke:#000000;stroke-linecap:square;stroke-width:0.25;"/>
     </g>
     <g id="line2d_26">
      <g>
       <use style="stroke:#000000;stroke-width:3.0;" x="135.0" xlink:href="#m47f8e42de0" y="252.0"/>
      </g>
     </g>
     <g id="text_16">
      <!-- 5 -->
      <g transform="translate(103.55 263.0375)scale(0.4 -0.4)">
       <use xlink:href="#BitstreamVeraSans-Roman-35"/>
      </g>
     </g>
    </g>
    <g id="ytick_7">
     <g id="line2d_27">
      <path clip-path="url(#pe39e6402fc)" d="M 135 108 
L 972 108 
" style="fill:none;stroke:#000000;stroke-linecap:square;stroke-width:0.25;"/>
     </g>
     <g id="line2d_28">
      <g>
       <use style="stroke:#000000;stroke-width:3.0;" x="135.0" xlink:href="#m47f8e42de0" y="108.0"/>
      </g>
     </g>
     <g id="text_17">
      <!-- 6 -->
      <g transform="translate(103.55 119.0375)scale(0.4 -0.4)">
       <use xlink:href="#BitstreamVeraSans-Roman-36"/>
      </g>
     </g>
    </g>
   </g>
   <g id="legend_1">
    <g id="patch_7">
     <path d="M 768.92175 204.867 
L 964.8 204.867 
L 964.8 115.2 
L 768.92175 115.2 
z
" style="fill:#ffffff;stroke:#000000;stroke-linejoin:miter;"/>
    </g>
    <g id="line2d_29">
     <path d="M 779.00175 126.86175 
L 799.16175 126.86175 
" style="fill:none;stroke:#1e95bb;stroke-linecap:square;stroke-width:3.0;"/>
    </g>
    <g id="line2d_30"/>
    <g id="text_18">
     <!-- arhgdia -->
     <defs>
      <path d="M 34.28125 27.484375 
Q 23.390625 27.484375 19.1875 25 
Q 14.984375 22.515625 14.984375 16.5 
Q 14.984375 11.71875 18.140625 8.90625 
Q 21.296875 6.109375 26.703125 6.109375 
Q 34.1875 6.109375 38.703125 11.40625 
Q 43.21875 16.703125 43.21875 25.484375 
L 43.21875 27.484375 
z
M 52.203125 31.203125 
L 52.203125 0 
L 43.21875 0 
L 43.21875 8.296875 
Q 40.140625 3.328125 35.546875 0.953125 
Q 30.953125 -1.421875 24.3125 -1.421875 
Q 15.921875 -1.421875 10.953125 3.296875 
Q 6 8.015625 6 15.921875 
Q 6 25.140625 12.171875 29.828125 
Q 18.359375 34.515625 30.609375 34.515625 
L 43.21875 34.515625 
L 43.21875 35.40625 
Q 43.21875 41.609375 39.140625 45 
Q 35.0625 48.390625 27.6875 48.390625 
Q 23 48.390625 18.546875 47.265625 
Q 14.109375 46.140625 10.015625 43.890625 
L 10.015625 52.203125 
Q 14.9375 54.109375 19.578125 55.046875 
Q 24.21875 56 28.609375 56 
Q 40.484375 56 46.34375 49.84375 
Q 52.203125 43.703125 52.203125 31.203125 
" id="BitstreamVeraSans-Roman-61"/>
      <path d="M 9.421875 54.6875 
L 18.40625 54.6875 
L 18.40625 0 
L 9.421875 0 
z
M 9.421875 75.984375 
L 18.40625 75.984375 
L 18.40625 64.59375 
L 9.421875 64.59375 
z
" id="BitstreamVeraSans-Roman-69"/>
      <path d="M 54.890625 33.015625 
L 54.890625 0 
L 45.90625 0 
L 45.90625 32.71875 
Q 45.90625 40.484375 42.875 44.328125 
Q 39.84375 48.1875 33.796875 48.1875 
Q 26.515625 48.1875 22.3125 43.546875 
Q 18.109375 38.921875 18.109375 30.90625 
L 18.109375 0 
L 9.078125 0 
L 9.078125 75.984375 
L 18.109375 75.984375 
L 18.109375 46.1875 
Q 21.34375 51.125 25.703125 53.5625 
Q 30.078125 56 35.796875 56 
Q 45.21875 56 50.046875 50.171875 
Q 54.890625 44.34375 54.890625 33.015625 
" id="BitstreamVeraSans-Roman-68"/>
      <path d="M 45.40625 46.390625 
L 45.40625 75.984375 
L 54.390625 75.984375 
L 54.390625 0 
L 45.40625 0 
L 45.40625 8.203125 
Q 42.578125 3.328125 38.25 0.953125 
Q 33.9375 -1.421875 27.875 -1.421875 
Q 17.96875 -1.421875 11.734375 6.484375 
Q 5.515625 14.40625 5.515625 27.296875 
Q 5.515625 40.1875 11.734375 48.09375 
Q 17.96875 56 27.875 56 
Q 33.9375 56 38.25 53.625 
Q 42.578125 51.265625 45.40625 46.390625 
M 14.796875 27.296875 
Q 14.796875 17.390625 18.875 11.75 
Q 22.953125 6.109375 30.078125 6.109375 
Q 37.203125 6.109375 41.296875 11.75 
Q 45.40625 17.390625 45.40625 27.296875 
Q 45.40625 37.203125 41.296875 42.84375 
Q 37.203125 48.484375 30.078125 48.484375 
Q 22.953125 48.484375 18.875 42.84375 
Q 14.796875 37.203125 14.796875 27.296875 
" id="BitstreamVeraSans-Roman-64"/>
      <path d="M 45.40625 27.984375 
Q 45.40625 37.75 41.375 43.109375 
Q 37.359375 48.484375 30.078125 48.484375 
Q 22.859375 48.484375 18.828125 43.109375 
Q 14.796875 37.75 14.796875 27.984375 
Q 14.796875 18.265625 18.828125 12.890625 
Q 22.859375 7.515625 30.078125 7.515625 
Q 37.359375 7.515625 41.375 12.890625 
Q 45.40625 18.265625 45.40625 27.984375 
M 54.390625 6.78125 
Q 54.390625 -7.171875 48.1875 -13.984375 
Q 42 -20.796875 29.203125 -20.796875 
Q 24.46875 -20.796875 20.265625 -20.09375 
Q 16.0625 -19.390625 12.109375 -17.921875 
L 12.109375 -9.1875 
Q 16.0625 -11.328125 19.921875 -12.34375 
Q 23.78125 -13.375 27.78125 -13.375 
Q 36.625 -13.375 41.015625 -8.765625 
Q 45.40625 -4.15625 45.40625 5.171875 
L 45.40625 9.625 
Q 42.625 4.78125 38.28125 2.390625 
Q 33.9375 0 27.875 0 
Q 17.828125 0 11.671875 7.65625 
Q 5.515625 15.328125 5.515625 27.984375 
Q 5.515625 40.671875 11.671875 48.328125 
Q 17.828125 56 27.875 56 
Q 33.9375 56 38.28125 53.609375 
Q 42.625 51.21875 45.40625 46.390625 
L 45.40625 54.6875 
L 54.390625 54.6875 
z
" id="BitstreamVeraSans-Roman-67"/>
      <path d="M 41.109375 46.296875 
Q 39.59375 47.171875 37.8125 47.578125 
Q 36.03125 48 33.890625 48 
Q 26.265625 48 22.1875 43.046875 
Q 18.109375 38.09375 18.109375 28.8125 
L 18.109375 0 
L 9.078125 0 
L 9.078125 54.6875 
L 18.109375 54.6875 
L 18.109375 46.1875 
Q 20.953125 51.171875 25.484375 53.578125 
Q 30.03125 56 36.53125 56 
Q 37.453125 56 38.578125 55.875 
Q 39.703125 55.765625 41.0625 55.515625 
z
" id="BitstreamVeraSans-Roman-72"/>
     </defs>
     <g transform="translate(815.00175 131.90175)scale(0.144 -0.144)">
      <use xlink:href="#BitstreamVeraSans-Roman-61"/>
      <use x="61.279296875" xlink:href="#BitstreamVeraSans-Roman-72"/>
      <use x="102.376953125" xlink:href="#BitstreamVeraSans-Roman-68"/>
      <use x="165.755859375" xlink:href="#BitstreamVeraSans-Roman-67"/>
      <use x="229.232421875" xlink:href="#BitstreamVeraSans-Roman-64"/>
      <use x="292.708984375" xlink:href="#BitstreamVeraSans-Roman-69"/>
      <use x="320.4921875" xlink:href="#BitstreamVeraSans-Roman-61"/>
     </g>
    </g>
    <g id="line2d_31">
     <path d="M 779.00175 147.99825 
L 799.16175 147.99825 
" style="fill:none;stroke:#3ab6df;stroke-linecap:square;stroke-width:3.0;"/>
    </g>
    <g id="line2d_32"/>
    <g id="text_19">
     <!-- arhgdia_nocodazole -->
     <defs>
      <path d="M 50.984375 -16.609375 
L 50.984375 -23.578125 
L -0.984375 -23.578125 
L -0.984375 -16.609375 
z
" id="BitstreamVeraSans-Roman-5f"/>
      <path d="M 54.890625 33.015625 
L 54.890625 0 
L 45.90625 0 
L 45.90625 32.71875 
Q 45.90625 40.484375 42.875 44.328125 
Q 39.84375 48.1875 33.796875 48.1875 
Q 26.515625 48.1875 22.3125 43.546875 
Q 18.109375 38.921875 18.109375 30.90625 
L 18.109375 0 
L 9.078125 0 
L 9.078125 54.6875 
L 18.109375 54.6875 
L 18.109375 46.1875 
Q 21.34375 51.125 25.703125 53.5625 
Q 30.078125 56 35.796875 56 
Q 45.21875 56 50.046875 50.171875 
Q 54.890625 44.34375 54.890625 33.015625 
" id="BitstreamVeraSans-Roman-6e"/>
      <path d="M 30.609375 48.390625 
Q 23.390625 48.390625 19.1875 42.75 
Q 14.984375 37.109375 14.984375 27.296875 
Q 14.984375 17.484375 19.15625 11.84375 
Q 23.34375 6.203125 30.609375 6.203125 
Q 37.796875 6.203125 41.984375 11.859375 
Q 46.1875 17.53125 46.1875 27.296875 
Q 46.1875 37.015625 41.984375 42.703125 
Q 37.796875 48.390625 30.609375 48.390625 
M 30.609375 56 
Q 42.328125 56 49.015625 48.375 
Q 55.71875 40.765625 55.71875 27.296875 
Q 55.71875 13.875 49.015625 6.21875 
Q 42.328125 -1.421875 30.609375 -1.421875 
Q 18.84375 -1.421875 12.171875 6.21875 
Q 5.515625 13.875 5.515625 27.296875 
Q 5.515625 40.765625 12.171875 48.375 
Q 18.84375 56 30.609375 56 
" id="BitstreamVeraSans-Roman-6f"/>
      <path d="M 9.421875 75.984375 
L 18.40625 75.984375 
L 18.40625 0 
L 9.421875 0 
z
" id="BitstreamVeraSans-Roman-6c"/>
      <path d="M 5.515625 54.6875 
L 48.1875 54.6875 
L 48.1875 46.484375 
L 14.40625 7.171875 
L 48.1875 7.171875 
L 48.1875 0 
L 4.296875 0 
L 4.296875 8.203125 
L 38.09375 47.515625 
L 5.515625 47.515625 
z
" id="BitstreamVeraSans-Roman-7a"/>
      <path d="M 56.203125 29.59375 
L 56.203125 25.203125 
L 14.890625 25.203125 
Q 15.484375 15.921875 20.484375 11.0625 
Q 25.484375 6.203125 34.421875 6.203125 
Q 39.59375 6.203125 44.453125 7.46875 
Q 49.3125 8.734375 54.109375 11.28125 
L 54.109375 2.78125 
Q 49.265625 0.734375 44.1875 -0.34375 
Q 39.109375 -1.421875 33.890625 -1.421875 
Q 20.796875 -1.421875 13.15625 6.1875 
Q 5.515625 13.8125 5.515625 26.8125 
Q 5.515625 40.234375 12.765625 48.109375 
Q 20.015625 56 32.328125 56 
Q 43.359375 56 49.78125 48.890625 
Q 56.203125 41.796875 56.203125 29.59375 
M 47.21875 32.234375 
Q 47.125 39.59375 43.09375 43.984375 
Q 39.0625 48.390625 32.421875 48.390625 
Q 24.90625 48.390625 20.390625 44.140625 
Q 15.875 39.890625 15.1875 32.171875 
z
" id="BitstreamVeraSans-Roman-65"/>
      <path d="M 48.78125 52.59375 
L 48.78125 44.1875 
Q 44.96875 46.296875 41.140625 47.34375 
Q 37.3125 48.390625 33.40625 48.390625 
Q 24.65625 48.390625 19.8125 42.84375 
Q 14.984375 37.3125 14.984375 27.296875 
Q 14.984375 17.28125 19.8125 11.734375 
Q 24.65625 6.203125 33.40625 6.203125 
Q 37.3125 6.203125 41.140625 7.25 
Q 44.96875 8.296875 48.78125 10.40625 
L 48.78125 2.09375 
Q 45.015625 0.34375 40.984375 -0.53125 
Q 36.96875 -1.421875 32.421875 -1.421875 
Q 20.0625 -1.421875 12.78125 6.34375 
Q 5.515625 14.109375 5.515625 27.296875 
Q 5.515625 40.671875 12.859375 48.328125 
Q 20.21875 56 33.015625 56 
Q 37.15625 56 41.109375 55.140625 
Q 45.0625 54.296875 48.78125 52.59375 
" id="BitstreamVeraSans-Roman-63"/>
     </defs>
     <g transform="translate(815.00175 153.03825)scale(0.144 -0.144)">
      <use xlink:href="#BitstreamVeraSans-Roman-61"/>
      <use x="61.279296875" xlink:href="#BitstreamVeraSans-Roman-72"/>
      <use x="102.376953125" xlink:href="#BitstreamVeraSans-Roman-68"/>
      <use x="165.755859375" xlink:href="#BitstreamVeraSans-Roman-67"/>
      <use x="229.232421875" xlink:href="#BitstreamVeraSans-Roman-64"/>
      <use x="292.708984375" xlink:href="#BitstreamVeraSans-Roman-69"/>
      <use x="320.4921875" xlink:href="#BitstreamVeraSans-Roman-61"/>
      <use x="381.771484375" xlink:href="#BitstreamVeraSans-Roman-5f"/>
      <use x="431.771484375" xlink:href="#BitstreamVeraSans-Roman-6e"/>
      <use x="495.150390625" xlink:href="#BitstreamVeraSans-Roman-6f"/>
      <use x="556.33203125" xlink:href="#BitstreamVeraSans-Roman-63"/>
      <use x="611.3125" xlink:href="#BitstreamVeraSans-Roman-6f"/>
      <use x="672.494140625" xlink:href="#BitstreamVeraSans-Roman-64"/>
      <use x="735.970703125" xlink:href="#BitstreamVeraSans-Roman-61"/>
      <use x="797.25" xlink:href="#BitstreamVeraSans-Roman-7a"/>
      <use x="849.740234375" xlink:href="#BitstreamVeraSans-Roman-6f"/>
      <use x="910.921875" xlink:href="#BitstreamVeraSans-Roman-6c"/>
      <use x="938.705078125" xlink:href="#BitstreamVeraSans-Roman-65"/>
     </g>
    </g>
    <g id="line2d_33">
     <path d="M 779.00175 169.53525 
L 799.16175 169.53525 
" style="fill:none;stroke:#bde7f4;stroke-linecap:square;stroke-width:3.0;"/>
    </g>
    <g id="line2d_34"/>
    <g id="text_20">
     <!-- pard3 -->
     <defs>
      <path d="M 18.109375 8.203125 
L 18.109375 -20.796875 
L 9.078125 -20.796875 
L 9.078125 54.6875 
L 18.109375 54.6875 
L 18.109375 46.390625 
Q 20.953125 51.265625 25.265625 53.625 
Q 29.59375 56 35.59375 56 
Q 45.5625 56 51.78125 48.09375 
Q 58.015625 40.1875 58.015625 27.296875 
Q 58.015625 14.40625 51.78125 6.484375 
Q 45.5625 -1.421875 35.59375 -1.421875 
Q 29.59375 -1.421875 25.265625 0.953125 
Q 20.953125 3.328125 18.109375 8.203125 
M 48.6875 27.296875 
Q 48.6875 37.203125 44.609375 42.84375 
Q 40.53125 48.484375 33.40625 48.484375 
Q 26.265625 48.484375 22.1875 42.84375 
Q 18.109375 37.203125 18.109375 27.296875 
Q 18.109375 17.390625 22.1875 11.75 
Q 26.265625 6.109375 33.40625 6.109375 
Q 40.53125 6.109375 44.609375 11.75 
Q 48.6875 17.390625 48.6875 27.296875 
" id="BitstreamVeraSans-Roman-70"/>
     </defs>
     <g transform="translate(815.00175 174.57525)scale(0.144 -0.144)">
      <use xlink:href="#BitstreamVeraSans-Roman-70"/>
      <use x="63.4765625" xlink:href="#BitstreamVeraSans-Roman-61"/>
      <use x="124.755859375" xlink:href="#BitstreamVeraSans-Roman-72"/>
      <use x="165.853515625" xlink:href="#BitstreamVeraSans-Roman-64"/>
      <use x="229.330078125" xlink:href="#BitstreamVeraSans-Roman-33"/>
     </g>
    </g>
    <g id="line2d_35">
     <path d="M 779.00175 190.67175 
L 799.16175 190.67175 
" style="fill:none;stroke:#efcb1b;stroke-linecap:square;stroke-width:3.0;"/>
    </g>
    <g id="line2d_36"/>
    <g id="text_21">
     <!-- pard3_nocodazole -->
     <g transform="translate(815.00175 195.71175)scale(0.144 -0.144)">
      <use xlink:href="#BitstreamVeraSans-Roman-70"/>
      <use x="63.4765625" xlink:href="#BitstreamVeraSans-Roman-61"/>
      <use x="124.755859375" xlink:href="#BitstreamVeraSans-Roman-72"/>
      <use x="165.853515625" xlink:href="#BitstreamVeraSans-Roman-64"/>
      <use x="229.330078125" xlink:href="#BitstreamVeraSans-Roman-33"/>
      <use x="292.953125" xlink:href="#BitstreamVeraSans-Roman-5f"/>
      <use x="342.953125" xlink:href="#BitstreamVeraSans-Roman-6e"/>
      <use x="406.33203125" xlink:href="#BitstreamVeraSans-Roman-6f"/>
      <use x="467.513671875" xlink:href="#BitstreamVeraSans-Roman-63"/>
      <use x="522.494140625" xlink:href="#BitstreamVeraSans-Roman-6f"/>
      <use x="583.67578125" xlink:href="#BitstreamVeraSans-Roman-64"/>
      <use x="647.15234375" xlink:href="#BitstreamVeraSans-Roman-61"/>
      <use x="708.431640625" xlink:href="#BitstreamVeraSans-Roman-7a"/>
      <use x="760.921875" xlink:href="#BitstreamVeraSans-Roman-6f"/>
      <use x="822.103515625" xlink:href="#BitstreamVeraSans-Roman-6c"/>
      <use x="849.88671875" xlink:href="#BitstreamVeraSans-Roman-65"/>
     </g>
    </g>
   </g>
  </g>
 </g>
 <defs>
  <clipPath id="pe39e6402fc">
   <rect height="864.0" width="837.0" x="135.0" y="108.0"/>
  </clipPath>
 </defs>
</svg>
